{
.appVersion = "3081";
customParameters = (
{
name = "Enforce Compatibility Check";
value = 1;
},
{
name = license;
value = "SIL OFL";
},
{
name = licenseURL;
value = "https://scripts.sil.org/cms/scripts/page.php?item_id=OFL_web";
},
{
name = vendorID;
value = VTF;
},
{
name = Axes;
value = (
{
Name = Weight;
Tag = wght;
}
);
}
);
date = "2020-01-31 09:50:53 +0000";
designer = "Ange Degheest & May Jolivet & Justine Herbel ";
designerURL = "https://justineherbel.com/";
familyName = Director;
featurePrefixes = (
{
automatic = 1;
code = "languagesystem DFLT dflt;\012";
name = Languagesystems;
}
);
features = (
{
automatic = 1;
code = "feature dnom;\012feature frac;\012";
name = aalt;
},
{
automatic = 1;
code = "sub zero by zero.dnom;\012sub one by one.dnom;\012sub two by two.dnom;\012sub three by three.dnom;\012sub four by four.dnom;\012sub five by five.dnom;\012sub six by six.dnom;\012sub seven by seven.dnom;\012sub eight by eight.dnom;\012sub nine by nine.dnom;\012";
name = dnom;
},
{
automatic = 1;
code = "sub one slash eight by oneeighth;\012sub one slash four by onequarter;\012sub three slash eight by threeeighths;\012sub one slash two by onehalf;\012sub five slash eight by fiveeighths;\012sub three slash four by threequarters;\012sub seven slash eight by seveneighths;\012";
name = frac;
}
);
fontMaster = (
{
ascender = 800;
capHeight = 700;
descender = -200;
iconName = Light_Condensed;
id = "2C887366-8E1E-4334-B4A5-9B98F2C45AC5";
visible = 1;
weight = Light;
xHeight = 500;
},
{
ascender = 800;
capHeight = 700;
customParameters = (
{
name = "Nouveau paramètre";
value = "Nouvelle valeur";
}
);
descender = -200;
id = "15A46FCC-DA81-4964-B403-68213F8F3DE4";
visible = 1;
weightValue = 400;
xHeight = 500;
},
{
ascender = 800;
capHeight = 700;
custom = bold;
customParameters = (
{
name = "Nouveau paramètre";
value = "Nouvelle valeur";
}
);
descender = -200;
iconName = Bold_SemiExtended;
id = "6A265716-979C-4B63-AB57-6A34FBA57EF3";
visible = 1;
weightValue = 700;

glyphs = (
{
glyphname = A;
lastChange = "2020-08-31 11:28:10 +0000";
layers = (
{
layerId = "2C887366-8E1E-4334-B4A5-9B98F2C45AC5";
paths = (
{
closed = 1;
nodes = (
"343 730 OFFCURVE",
"340 725 OFFCURVE",
"336 712 CURVE SMOOTH",
"119 30 LINE",
"51 30 LINE SMOOTH",
"40 30 OFFCURVE",
"33 24 OFFCURVE",
"33 15 CURVE SMOOTH",
"33 6 OFFCURVE",
"40 0 OFFCURVE",
"51 0 CURVE SMOOTH",
"237 0 LINE SMOOTH",
"248 0 OFFCURVE",
"254 6 OFFCURVE",
"254 15 CURVE SMOOTH",
"254 24 OFFCURVE",
"248 30 OFFCURVE",
"237 30 CURVE SMOOTH",
"153 30 LINE",
"213 216 LINE",
"444 216 LINE",
"503 30 LINE",
"423 30 LINE SMOOTH",
"412 30 OFFCURVE",
"405 24 OFFCURVE",
"405 15 CURVE SMOOTH",
"405 6 OFFCURVE",
"412 0 OFFCURVE",
"423 0 CURVE SMOOTH",
"650 0 LINE SMOOTH",
"661 0 OFFCURVE",
"667 6 OFFCURVE",
"667 15 CURVE SMOOTH",
"667 24 OFFCURVE",
"661 30 OFFCURVE",
"650 30 CURVE SMOOTH",
"592 30 LINE",
"366 712 LINE SMOOTH",
"362 725 OFFCURVE",
"359 730 OFFCURVE",
"351 730 CURVE SMOOTH"
);
},
{
closed = 1;
nodes = (
"330 579 LINE",
"435 246 LINE",
"222 246 LINE"
);
}
);
width = 700;
},
{
layerId = "15A46FCC-DA81-4964-B403-68213F8F3DE4";
paths = (
{
closed = 1;
nodes = (
"328 730 OFFCURVE",
"316 718 OFFCURVE",
"310 699 CURVE SMOOTH",
"112 50 LINE",
"52 50 LINE SMOOTH",
"34 50 OFFCURVE",
"23 40 OFFCURVE",
"23 25 CURVE SMOOTH",
"23 10 OFFCURVE",
"34 0 OFFCURVE",
"52 0 CURVE SMOOTH",
"235 0 LINE SMOOTH",
"253 0 OFFCURVE",
"264 10 OFFCURVE",
"264 25 CURVE SMOOTH",
"264 40 OFFCURVE",
"253 50 OFFCURVE",
"235 50 CURVE SMOOTH",
"178 50 LINE",
"221 205 LINE",
"446 205 LINE",
"491 50 LINE",
"424 50 LINE SMOOTH",
"406 50 OFFCURVE",
"395 40 OFFCURVE",
"395 25 CURVE SMOOTH",
"395 10 OFFCURVE",
"406 0 OFFCURVE",
"424 0 CURVE SMOOTH",
"648 0 LINE SMOOTH",
"666 0 OFFCURVE",
"677 10 OFFCURVE",
"677 25 CURVE SMOOTH",
"677 40 OFFCURVE",
"666 50 OFFCURVE",
"648 50 CURVE SMOOTH",
"598 50 LINE",
"392 699 LINE SMOOTH",
"386 719 OFFCURVE",
"375 730 OFFCURVE",
"351 730 CURVE SMOOTH"
);
},
{
closed = 1;
nodes = (
"335 579 LINE",
"431 255 LINE",
"236 255 LINE"
);
}
);
width = 700;
},
{
layerId = "6A265716-979C-4B63-AB57-6A34FBA57EF3";
paths = (
{
closed = 1;
nodes = (
"330 731 OFFCURVE",
"317 720 OFFCURVE",
"310 699 CURVE SMOOTH",
"112 50 LINE",
"52 50 LINE SMOOTH",
"34 50 OFFCURVE",
"23 40 OFFCURVE",
"23 25 CURVE SMOOTH",
"23 10 OFFCURVE",
"34 0 OFFCURVE",
"52 0 CURVE SMOOTH",
"235 0 LINE SMOOTH",
"253 0 OFFCURVE",
"264 10 OFFCURVE",
"264 25 CURVE SMOOTH",
"264 40 OFFCURVE",
"253 50 OFFCURVE",
"235 50 CURVE SMOOTH",
"178 50 LINE",
"221 205 LINE",
"436 205 LINE",
"481 50 LINE",
"409 50 LINE SMOOTH",
"391 50 OFFCURVE",
"380 40 OFFCURVE",
"380 25 CURVE SMOOTH",
"380 10 OFFCURVE",
"391 0 OFFCURVE",
"409 0 CURVE SMOOTH",
"663 0 LINE SMOOTH",
"681 0 OFFCURVE",
"692 10 OFFCURVE",
"692 25 CURVE SMOOTH",
"692 40 OFFCURVE",
"681 50 OFFCURVE",
"663 50 CURVE SMOOTH",
"608 50 LINE",
"402 699 LINE SMOOTH",
"395 721 OFFCURVE",
"383 731 OFFCURVE",
"356 731 CURVE SMOOTH"
);
},
{
closed = 1;
nodes = (
"335 579 LINE",
"421 255 LINE",
"236 255 LINE"
);
}
);
width = 700;
}
);
unicode = 0041;
},
{
glyphname = Aacute;
lastChange = "2020-09-06 15:52:41 +0000";
layers = (
{
layerId = "2C887366-8E1E-4334-B4A5-9B98F2C45AC5";
paths = (
{
closed = 1;
nodes = (
"499 990 LINE SMOOTH",
"478 990 OFFCURVE",
"475 987 OFFCURVE",
"464 972 CURVE SMOOTH",
"350 809 LINE SMOOTH",
"344 800 OFFCURVE",
"338 789 OFFCURVE",
"346 783 CURVE SMOOTH",
"352 778 OFFCURVE",
"360 781 OFFCURVE",
"371 791 CURVE SMOOTH",
"548 963 LINE SMOOTH",
"566 981 OFFCURVE",
"562 990 OFFCURVE",
"539 990 CURVE SMOOTH"
);
},
{
closed = 1;
nodes = (
"343 730 OFFCURVE",
"340 725 OFFCURVE",
"336 712 CURVE SMOOTH",
"119 30 LINE",
"51 30 LINE SMOOTH",
"40 30 OFFCURVE",
"33 24 OFFCURVE",
"33 15 CURVE SMOOTH",
"33 6 OFFCURVE",
"40 0 OFFCURVE",
"51 0 CURVE SMOOTH",
"237 0 LINE SMOOTH",
"248 0 OFFCURVE",
"254 6 OFFCURVE",
"254 15 CURVE SMOOTH",
"254 24 OFFCURVE",
"248 30 OFFCURVE",
"237 30 CURVE SMOOTH",
"153 30 LINE",
"213 216 LINE",
"444 216 LINE",
"503 30 LINE",
"423 30 LINE SMOOTH",
"412 30 OFFCURVE",
"405 24 OFFCURVE",
"405 15 CURVE SMOOTH",
"405 6 OFFCURVE",
"412 0 OFFCURVE",
"423 0 CURVE SMOOTH",
"650 0 LINE SMOOTH",
"661 0 OFFCURVE",
"667 6 OFFCURVE",
"667 15 CURVE SMOOTH",
"667 24 OFFCURVE",
"661 30 OFFCURVE",
"650 30 CURVE SMOOTH",
"592 30 LINE",
"366 712 LINE SMOOTH",
"362 725 OFFCURVE",
"359 730 OFFCURVE",
"351 730 CURVE SMOOTH"
);
},
{
closed = 1;
nodes = (
"330 579 LINE",
"435 246 LINE",
"222 246 LINE"
);
}
);
width = 700;
},
{
layerId = "15A46FCC-DA81-4964-B403-68213F8F3DE4";
paths = (
{
closed = 1;
nodes = (
"518 1000 LINE SMOOTH",
"487 1000 OFFCURVE",
"473 1000 OFFCURVE",
"459 980 CURVE SMOOTH",
"335 806 LINE SMOOTH",
"329 797 OFFCURVE",
"328 783 OFFCURVE",
"339 776 CURVE SMOOTH",
"350 769 OFFCURVE",
"363 773 OFFCURVE",
"374 783 CURVE SMOOTH",
"551 953 LINE SMOOTH",
"581 982 OFFCURVE",
"576 1000 OFFCURVE",
"545 1000 CURVE SMOOTH"
);
},
{
closed = 1;
nodes = (
"328 730 OFFCURVE",
"316 718 OFFCURVE",
"310 699 CURVE SMOOTH",
"112 50 LINE",
"52 50 LINE SMOOTH",
"34 50 OFFCURVE",
"23 40 OFFCURVE",
"23 25 CURVE SMOOTH",
"23 10 OFFCURVE",
"34 0 OFFCURVE",
"52 0 CURVE SMOOTH",
"235 0 LINE SMOOTH",
"253 0 OFFCURVE",
"264 10 OFFCURVE",
"264 25 CURVE SMOOTH",
"264 40 OFFCURVE",
"253 50 OFFCURVE",
"235 50 CURVE SMOOTH",
"178 50 LINE",
"221 205 LINE",
"446 205 LINE",
"491 50 LINE",
"424 50 LINE SMOOTH",
"406 50 OFFCURVE",
"395 40 OFFCURVE",
"395 25 CURVE SMOOTH",
"395 10 OFFCURVE",
"406 0 OFFCURVE",
"424 0 CURVE SMOOTH",
"648 0 LINE SMOOTH",
"666 0 OFFCURVE",
"677 10 OFFCURVE",
"677 25 CURVE SMOOTH",
"677 40 OFFCURVE",
"666 50 OFFCURVE",
"648 50 CURVE SMOOTH",
"598 50 LINE",
"392 699 LINE SMOOTH",
"386 719 OFFCURVE",
"375 730 OFFCURVE",
"351 730 CURVE SMOOTH"
);
},
{
closed = 1;
nodes = (
"335 579 LINE",
"431 255 LINE",
"236 255 LINE"
);
}
);
width = 700;
},
{
layerId = "6A265716-979C-4B63-AB57-6A34FBA57EF3";
paths = (
{
closed = 1;
nodes = (
"510 1000 LINE SMOOTH",
"479 1000 OFFCURVE",
"465 1000 OFFCURVE",
"451 980 CURVE SMOOTH",
"331 812 LINE SMOOTH",
"319 796 OFFCURVE",
"321 772 OFFCURVE",
"342 767 CURVE SMOOTH",
"359 763 OFFCURVE",
"373 770 OFFCURVE",
"386 783 CURVE SMOOTH",
"563 953 LINE SMOOTH",
"593 982 OFFCURVE",
"588 1000 OFFCURVE",
"557 1000 CURVE SMOOTH"
);
},
{
closed = 1;
nodes = (
"330 731 OFFCURVE",
"316 720 OFFCURVE",
"310 699 CURVE SMOOTH",
"112 50 LINE",
"52 50 LINE SMOOTH",
"34 50 OFFCURVE",
"23 40 OFFCURVE",
"23 25 CURVE SMOOTH",
"23 10 OFFCURVE",
"34 0 OFFCURVE",
"52 0 CURVE SMOOTH",
"235 0 LINE SMOOTH",
"253 0 OFFCURVE",
"264 10 OFFCURVE",
"264 25 CURVE SMOOTH",
"264 40 OFFCURVE",
"253 50 OFFCURVE",
"235 50 CURVE SMOOTH",
"178 50 LINE",
"221 205 LINE",
"436 205 LINE",
"481 50 LINE",
"409 50 LINE SMOOTH",
"391 50 OFFCURVE",
"380 40 OFFCURVE",
"380 25 CURVE SMOOTH",
"380 10 OFFCURVE",
"391 0 OFFCURVE",
"409 0 CURVE SMOOTH",
"663 0 LINE SMOOTH",
"681 0 OFFCURVE",
"692 10 OFFCURVE",
"692 25 CURVE SMOOTH",
"692 40 OFFCURVE",
"681 50 OFFCURVE",
"663 50 CURVE SMOOTH",
"608 50 LINE",
"402 699 LINE SMOOTH",
"395 721 OFFCURVE",
"383 731 OFFCURVE",
"356 731 CURVE SMOOTH"
);
},
{
closed = 1;
nodes = (
"335 579 LINE",
"421 255 LINE",
"236 255 LINE"
);
}
);
width = 700;
}
);
unicode = 00C1;
},
{
glyphname = Acircumflex;
lastChange = "2021-04-06 14:04:13 +0000";
layers = (
{
layerId = "2C887366-8E1E-4334-B4A5-9B98F2C45AC5";
paths = (
{
closed = 1;
nodes = (
"161 781 OFFCURVE",
"167 781 OFFCURVE",
"191 781 CURVE SMOOTH",
"223 781 LINE SMOOTH",
"243 781 OFFCURVE",
"249 780 OFFCURVE",
"255 791 CURVE SMOOTH",
"351 960 LINE",
"448 791 LINE SMOOTH",
"454 780 OFFCURVE",
"460 781 OFFCURVE",
"480 781 CURVE SMOOTH",
"512 781 LINE SMOOTH",
"536 781 OFFCURVE",
"542 781 OFFCURVE",
"544 785 CURVE SMOOTH",
"546 789 OFFCURVE",
"546 792 OFFCURVE",
"533 806 CURVE SMOOTH",
"374 979 LINE SMOOTH",
"368 985 OFFCURVE",
"362 990 OFFCURVE",
"351 990 CURVE SMOOTH",
"341 990 OFFCURVE",
"335 985 OFFCURVE",
"329 979 CURVE SMOOTH",
"170 806 LINE SMOOTH",
"157 792 OFFCURVE",
"157 789 OFFCURVE",
"159 785 CURVE SMOOTH"
);
},
{
closed = 1;
nodes = (
"343 730 OFFCURVE",
"340 725 OFFCURVE",
"336 712 CURVE SMOOTH",
"119 30 LINE",
"51 30 LINE SMOOTH",
"40 30 OFFCURVE",
"33 24 OFFCURVE",
"33 15 CURVE SMOOTH",
"33 6 OFFCURVE",
"40 0 OFFCURVE",
"51 0 CURVE SMOOTH",
"237 0 LINE SMOOTH",
"248 0 OFFCURVE",
"254 6 OFFCURVE",
"254 15 CURVE SMOOTH",
"254 24 OFFCURVE",
"248 30 OFFCURVE",
"237 30 CURVE SMOOTH",
"153 30 LINE",
"213 216 LINE",
"444 216 LINE",
"503 30 LINE",
"423 30 LINE SMOOTH",
"412 30 OFFCURVE",
"405 24 OFFCURVE",
"405 15 CURVE SMOOTH",
"405 6 OFFCURVE",
"412 0 OFFCURVE",
"423 0 CURVE SMOOTH",
"650 0 LINE SMOOTH",
"661 0 OFFCURVE",
"667 6 OFFCURVE",
"667 15 CURVE SMOOTH",
"667 24 OFFCURVE",
"661 30 OFFCURVE",
"650 30 CURVE SMOOTH",
"592 30 LINE",
"366 712 LINE SMOOTH",
"362 725 OFFCURVE",
"359 730 OFFCURVE",
"351 730 CURVE SMOOTH"
);
},
{
closed = 1;
nodes = (
"330 579 LINE",
"435 246 LINE",
"222 246 LINE"
);
}
);
width = 700;
},
{
layerId = "15A46FCC-DA81-4964-B403-68213F8F3DE4";
paths = (
{
closed = 1;
nodes = (
"158 774 OFFCURVE",
"167 772 OFFCURVE",
"191 772 CURVE SMOOTH",
"226 772 LINE SMOOTH",
"246 772 OFFCURVE",
"254 772 OFFCURVE",
"263 786 CURVE SMOOTH",
"351 929 LINE",
"440 786 LINE SMOOTH",
"448 774 OFFCURVE",
"457 772 OFFCURVE",
"478 772 CURVE SMOOTH",
"513 772 LINE SMOOTH",
"536 772 OFFCURVE",
"546 773 OFFCURVE",
"549 781 CURVE SMOOTH",
"553 791 OFFCURVE",
"548 795 OFFCURVE",
"535 809 CURVE SMOOTH",
"374 989 LINE SMOOTH",
"370 993 OFFCURVE",
"362 1000 OFFCURVE",
"351 1000 CURVE SMOOTH",
"341 1000 OFFCURVE",
"334 995 OFFCURVE",
"329 989 CURVE SMOOTH",
"168 809 LINE SMOOTH",
"155 795 OFFCURVE",
"149 790 OFFCURVE",
"154 781 CURVE SMOOTH"
);
},
{
closed = 1;
nodes = (
"328 730 OFFCURVE",
"316 718 OFFCURVE",
"310 699 CURVE SMOOTH",
"112 50 LINE",
"52 50 LINE SMOOTH",
"34 50 OFFCURVE",
"23 40 OFFCURVE",
"23 25 CURVE SMOOTH",
"23 10 OFFCURVE",
"34 0 OFFCURVE",
"52 0 CURVE SMOOTH",
"235 0 LINE SMOOTH",
"253 0 OFFCURVE",
"264 10 OFFCURVE",
"264 25 CURVE SMOOTH",
"264 40 OFFCURVE",
"253 50 OFFCURVE",
"235 50 CURVE SMOOTH",
"178 50 LINE",
"221 205 LINE",
"446 205 LINE",
"491 50 LINE",
"424 50 LINE SMOOTH",
"406 50 OFFCURVE",
"395 40 OFFCURVE",
"395 25 CURVE SMOOTH",
"395 10 OFFCURVE",
"406 0 OFFCURVE",
"424 0 CURVE SMOOTH",
"648 0 LINE SMOOTH",
"666 0 OFFCURVE",
"677 10 OFFCURVE",
"677 25 CURVE SMOOTH",
"677 40 OFFCURVE",
"666 50 OFFCURVE",
"648 50 CURVE SMOOTH",
"598 50 LINE",
"392 699 LINE SMOOTH",
"386 719 OFFCURVE",
"375 730 OFFCURVE",
"351 730 CURVE SMOOTH"
);
},
{
closed = 1;
nodes = (
"335 579 LINE",
"431 255 LINE",
"236 255 LINE"
);
}
);
width = 700;
},
{
layerId = "6A265716-979C-4B63-AB57-6A34FBA57EF3";
paths = (
{
closed = 1;
nodes = (
"138 764 OFFCURVE",
"147 762 OFFCURVE",
"171 762 CURVE SMOOTH",
"241 762 LINE SMOOTH",
"261 762 OFFCURVE",
"271 762 OFFCURVE",
"278 776 CURVE SMOOTH",
"351 924 LINE",
"425 786 LINE SMOOTH",
"436 765 OFFCURVE",
"442 762 OFFCURVE",
"463 762 CURVE SMOOTH",
"533 762 LINE SMOOTH",
"556 762 OFFCURVE",
"566 763 OFFCURVE",
"569 771 CURVE SMOOTH",
"573 781 OFFCURVE",
"568 795 OFFCURVE",
"555 809 CURVE SMOOTH",
"384 989 LINE SMOOTH",
"380 993 OFFCURVE",
"372 1000 OFFCURVE",
"351 1000 CURVE SMOOTH",
"331 1000 OFFCURVE",
"324 995 OFFCURVE",
"319 989 CURVE",
"148 809 LINE SMOOTH",
"130 790 OFFCURVE",
"129 780 OFFCURVE",
"134 771 CURVE SMOOTH"
);
},
{
closed = 1;
nodes = (
"330 731 OFFCURVE",
"316 720 OFFCURVE",
"310 699 CURVE SMOOTH",
"112 50 LINE",
"52 50 LINE SMOOTH",
"34 50 OFFCURVE",
"23 40 OFFCURVE",
"23 25 CURVE SMOOTH",
"23 10 OFFCURVE",
"34 0 OFFCURVE",
"52 0 CURVE SMOOTH",
"235 0 LINE SMOOTH",
"253 0 OFFCURVE",
"264 10 OFFCURVE",
"264 25 CURVE SMOOTH",
"264 40 OFFCURVE",
"253 50 OFFCURVE",
"235 50 CURVE SMOOTH",
"178 50 LINE",
"221 205 LINE",
"436 205 LINE",
"481 50 LINE",
"409 50 LINE SMOOTH",
"391 50 OFFCURVE",
"380 40 OFFCURVE",
"380 25 CURVE SMOOTH",
"380 10 OFFCURVE",
"391 0 OFFCURVE",
"409 0 CURVE SMOOTH",
"663 0 LINE SMOOTH",
"681 0 OFFCURVE",
"692 10 OFFCURVE",
"692 25 CURVE SMOOTH",
"692 40 OFFCURVE",
"681 50 OFFCURVE",
"663 50 CURVE SMOOTH",
"608 50 LINE",
"402 699 LINE SMOOTH",
"395 721 OFFCURVE",
"383 731 OFFCURVE",
"356 731 CURVE SMOOTH"
);
},
{
closed = 1;
nodes = (
"335 579 LINE",
"421 255 LINE",
"236 255 LINE"
);
}
);
width = 700;
}
);
unicode = 00C2;
},
{
glyphname = Adieresis;
lastChange = "2020-09-06 15:53:16 +0000";
layers = (
{
layerId = "2C887366-8E1E-4334-B4A5-9B98F2C45AC5";
paths = (
{
closed = 1;
nodes = (
"264 817 OFFCURVE",
"288 839 OFFCURVE",
"288 867 CURVE SMOOTH",
"288 896 OFFCURVE",
"264 918 OFFCURVE",
"235 918 CURVE SMOOTH",
"207 918 OFFCURVE",
"183 896 OFFCURVE",
"183 867 CURVE SMOOTH",
"183 839 OFFCURVE",
"207 817 OFFCURVE",
"235 817 CURVE SMOOTH"
);
},
{
closed = 1;
nodes = (
"495 817 OFFCURVE",
"519 839 OFFCURVE",
"519 867 CURVE SMOOTH",
"519 896 OFFCURVE",
"495 918 OFFCURVE",
"466 918 CURVE SMOOTH",
"437 918 OFFCURVE",
"413 896 OFFCURVE",
"413 867 CURVE SMOOTH",
"413 839 OFFCURVE",
"437 817 OFFCURVE",
"466 817 CURVE SMOOTH"
);
},
{
closed = 1;
nodes = (
"343 730 OFFCURVE",
"340 725 OFFCURVE",
"336 712 CURVE SMOOTH",
"119 30 LINE",
"51 30 LINE SMOOTH",
"40 30 OFFCURVE",
"33 24 OFFCURVE",
"33 15 CURVE SMOOTH",
"33 6 OFFCURVE",
"40 0 OFFCURVE",
"51 0 CURVE SMOOTH",
"237 0 LINE SMOOTH",
"248 0 OFFCURVE",
"254 6 OFFCURVE",
"254 15 CURVE SMOOTH",
"254 24 OFFCURVE",
"248 30 OFFCURVE",
"237 30 CURVE SMOOTH",
"153 30 LINE",
"213 216 LINE",
"444 216 LINE",
"503 30 LINE",
"423 30 LINE SMOOTH",
"412 30 OFFCURVE",
"405 24 OFFCURVE",
"405 15 CURVE SMOOTH",
"405 6 OFFCURVE",
"412 0 OFFCURVE",
"423 0 CURVE SMOOTH",
"650 0 LINE SMOOTH",
"661 0 OFFCURVE",
"667 6 OFFCURVE",
"667 15 CURVE SMOOTH",
"667 24 OFFCURVE",
"661 30 OFFCURVE",
"650 30 CURVE SMOOTH",
"592 30 LINE",
"366 712 LINE SMOOTH",
"362 725 OFFCURVE",
"359 730 OFFCURVE",
"351 730 CURVE SMOOTH"
);
},
{
closed = 1;
nodes = (
"330 579 LINE",
"435 246 LINE",
"222 246 LINE"
);
}
);
width = 700;
},
{
layerId = "15A46FCC-DA81-4964-B403-68213F8F3DE4";
paths = (
{
closed = 1;
nodes = (
"269 809 OFFCURVE",
"297 834 OFFCURVE",
"297 868 CURVE SMOOTH",
"297 902 OFFCURVE",
"269 927 OFFCURVE",
"235 927 CURVE SMOOTH",
"201 927 OFFCURVE",
"173 902 OFFCURVE",
"173 868 CURVE SMOOTH",
"173 834 OFFCURVE",
"201 809 OFFCURVE",
"235 809 CURVE SMOOTH"
);
},
{
closed = 1;
nodes = (
"500 809 OFFCURVE",
"528 834 OFFCURVE",
"528 868 CURVE SMOOTH",
"528 902 OFFCURVE",
"500 927 OFFCURVE",
"466 927 CURVE SMOOTH",
"432 927 OFFCURVE",
"404 902 OFFCURVE",
"404 868 CURVE SMOOTH",
"404 834 OFFCURVE",
"432 809 OFFCURVE",
"466 809 CURVE SMOOTH"
);
},
{
closed = 1;
nodes = (
"328 730 OFFCURVE",
"316 718 OFFCURVE",
"310 699 CURVE SMOOTH",
"112 50 LINE",
"52 50 LINE SMOOTH",
"34 50 OFFCURVE",
"23 40 OFFCURVE",
"23 25 CURVE SMOOTH",
"23 10 OFFCURVE",
"34 0 OFFCURVE",
"52 0 CURVE SMOOTH",
"235 0 LINE SMOOTH",
"253 0 OFFCURVE",
"264 10 OFFCURVE",
"264 25 CURVE SMOOTH",
"264 40 OFFCURVE",
"253 50 OFFCURVE",
"235 50 CURVE SMOOTH",
"178 50 LINE",
"221 205 LINE",
"446 205 LINE",
"491 50 LINE",
"424 50 LINE SMOOTH",
"406 50 OFFCURVE",
"395 40 OFFCURVE",
"395 25 CURVE SMOOTH",
"395 10 OFFCURVE",
"406 0 OFFCURVE",
"424 0 CURVE SMOOTH",
"648 0 LINE SMOOTH",
"666 0 OFFCURVE",
"677 10 OFFCURVE",
"677 25 CURVE SMOOTH",
"677 40 OFFCURVE",
"666 50 OFFCURVE",
"648 50 CURVE SMOOTH",
"598 50 LINE",
"392 699 LINE SMOOTH",
"386 719 OFFCURVE",
"375 730 OFFCURVE",
"351 730 CURVE SMOOTH"
);
},
{
closed = 1;
nodes = (
"335 579 LINE",
"431 255 LINE",
"236 255 LINE"
);
}
);
width = 700;
},
{
layerId = "6A265716-979C-4B63-AB57-6A34FBA57EF3";
paths = (
{
closed = 1;
nodes = (
"273 803 OFFCURVE",
"303 831 OFFCURVE",
"303 868 CURVE SMOOTH",
"303 905 OFFCURVE",
"273 933 OFFCURVE",
"235 933 CURVE SMOOTH",
"198 933 OFFCURVE",
"167 905 OFFCURVE",
"167 868 CURVE SMOOTH",
"167 831 OFFCURVE",
"198 803 OFFCURVE",
"235 803 CURVE SMOOTH"
);
},
{
closed = 1;
nodes = (
"504 803 OFFCURVE",
"535 831 OFFCURVE",
"535 868 CURVE SMOOTH",
"535 905 OFFCURVE",
"504 933 OFFCURVE",
"466 933 CURVE SMOOTH",
"429 933 OFFCURVE",
"398 905 OFFCURVE",
"398 868 CURVE SMOOTH",
"398 831 OFFCURVE",
"429 803 OFFCURVE",
"466 803 CURVE SMOOTH"
);
},
{
closed = 1;
nodes = (
"330 731 OFFCURVE",
"317 720 OFFCURVE",
"310 699 CURVE SMOOTH",
"112 50 LINE",
"52 50 LINE SMOOTH",
"34 50 OFFCURVE",
"23 40 OFFCURVE",
"23 25 CURVE SMOOTH",
"23 10 OFFCURVE",
"34 0 OFFCURVE",
"52 0 CURVE SMOOTH",
"235 0 LINE SMOOTH",
"253 0 OFFCURVE",
"264 10 OFFCURVE",
"264 25 CURVE SMOOTH",
"264 40 OFFCURVE",
"253 50 OFFCURVE",
"235 50 CURVE SMOOTH",
"178 50 LINE",
"221 205 LINE",
"436 205 LINE",
"481 50 LINE",
"409 50 LINE SMOOTH",
"391 50 OFFCURVE",
"380 40 OFFCURVE",
"380 25 CURVE SMOOTH",
"380 10 OFFCURVE",
"391 0 OFFCURVE",
"409 0 CURVE SMOOTH",
"663 0 LINE SMOOTH",
"681 0 OFFCURVE",
"692 10 OFFCURVE",
"692 25 CURVE SMOOTH",
"692 40 OFFCURVE",
"681 50 OFFCURVE",
"663 50 CURVE SMOOTH",
"608 50 LINE",
"402 699 LINE SMOOTH",
"395 721 OFFCURVE",
"383 731 OFFCURVE",
"356 731 CURVE SMOOTH"
);
},
{
closed = 1;
nodes = (
"335 579 LINE",
"421 255 LINE",
"236 255 LINE"
);
}
);
width = 700;
}
);
unicode = 00C4;
},
{
glyphname = Agrave;
lastChange = "2020-09-06 15:53:22 +0000";
layers = (
{
layerId = "2C887366-8E1E-4334-B4A5-9B98F2C45AC5";
paths = (
{
closed = 1;
nodes = (
"149 990 OFFCURVE",
"145 981 OFFCURVE",
"163 963 CURVE SMOOTH",
"340 791 LINE SMOOTH",
"351 781 OFFCURVE",
"359 778 OFFCURVE",
"365 783 CURVE SMOOTH",
"373 789 OFFCURVE",
"367 800 OFFCURVE",
"361 809 CURVE SMOOTH",
"247 972 LINE SMOOTH",
"236 987 OFFCURVE",
"233 990 OFFCURVE",
"212 990 CURVE SMOOTH",
"172 990 LINE SMOOTH"
);
},
{
closed = 1;
nodes = (
"343 730 OFFCURVE",
"340 725 OFFCURVE",
"336 712 CURVE SMOOTH",
"119 30 LINE",
"51 30 LINE SMOOTH",
"40 30 OFFCURVE",
"33 24 OFFCURVE",
"33 15 CURVE SMOOTH",
"33 6 OFFCURVE",
"40 0 OFFCURVE",
"51 0 CURVE SMOOTH",
"237 0 LINE SMOOTH",
"248 0 OFFCURVE",
"254 6 OFFCURVE",
"254 15 CURVE SMOOTH",
"254 24 OFFCURVE",
"248 30 OFFCURVE",
"237 30 CURVE SMOOTH",
"153 30 LINE",
"213 216 LINE",
"444 216 LINE",
"503 30 LINE",
"423 30 LINE SMOOTH",
"412 30 OFFCURVE",
"405 24 OFFCURVE",
"405 15 CURVE SMOOTH",
"405 6 OFFCURVE",
"412 0 OFFCURVE",
"423 0 CURVE SMOOTH",
"650 0 LINE SMOOTH",
"661 0 OFFCURVE",
"667 6 OFFCURVE",
"667 15 CURVE SMOOTH",
"667 24 OFFCURVE",
"661 30 OFFCURVE",
"650 30 CURVE SMOOTH",
"592 30 LINE",
"366 712 LINE SMOOTH",
"362 725 OFFCURVE",
"359 730 OFFCURVE",
"351 730 CURVE SMOOTH"
);
},
{
closed = 1;
nodes = (
"330 579 LINE",
"435 246 LINE",
"222 246 LINE"
);
}
);
width = 700;
},
{
layerId = "15A46FCC-DA81-4964-B403-68213F8F3DE4";
paths = (
{
closed = 1;
nodes = (
"135 1000 OFFCURVE",
"130 982 OFFCURVE",
"160 953 CURVE SMOOTH",
"337 783 LINE SMOOTH",
"348 773 OFFCURVE",
"361 769 OFFCURVE",
"372 776 CURVE SMOOTH",
"383 783 OFFCURVE",
"382 797 OFFCURVE",
"376 806 CURVE SMOOTH",
"252 980 LINE SMOOTH",
"238 1000 OFFCURVE",
"224 1000 OFFCURVE",
"193 1000 CURVE SMOOTH",
"166 1000 LINE SMOOTH"
);
},
{
closed = 1;
nodes = (
"328 730 OFFCURVE",
"316 718 OFFCURVE",
"310 699 CURVE SMOOTH",
"112 50 LINE",
"52 50 LINE SMOOTH",
"34 50 OFFCURVE",
"23 40 OFFCURVE",
"23 25 CURVE SMOOTH",
"23 10 OFFCURVE",
"34 0 OFFCURVE",
"52 0 CURVE SMOOTH",
"235 0 LINE SMOOTH",
"253 0 OFFCURVE",
"264 10 OFFCURVE",
"264 25 CURVE SMOOTH",
"264 40 OFFCURVE",
"253 50 OFFCURVE",
"235 50 CURVE SMOOTH",
"178 50 LINE",
"221 205 LINE",
"446 205 LINE",
"491 50 LINE",
"424 50 LINE SMOOTH",
"406 50 OFFCURVE",
"395 40 OFFCURVE",
"395 25 CURVE SMOOTH",
"395 10 OFFCURVE",
"406 0 OFFCURVE",
"424 0 CURVE SMOOTH",
"648 0 LINE SMOOTH",
"666 0 OFFCURVE",
"677 10 OFFCURVE",
"677 25 CURVE SMOOTH",
"677 40 OFFCURVE",
"666 50 OFFCURVE",
"648 50 CURVE SMOOTH",
"598 50 LINE",
"392 699 LINE SMOOTH",
"386 719 OFFCURVE",
"375 730 OFFCURVE",
"351 730 CURVE SMOOTH"
);
},
{
closed = 1;
nodes = (
"335 579 LINE",
"431 255 LINE",
"236 255 LINE"
);
}
);
width = 700;
},
{
layerId = "6A265716-979C-4B63-AB57-6A34FBA57EF3";
paths = (
{
closed = 1;
nodes = (
"126 1000 OFFCURVE",
"121 982 OFFCURVE",
"151 953 CURVE SMOOTH",
"328 783 LINE SMOOTH",
"341 770 OFFCURVE",
"355 763 OFFCURVE",
"372 767 CURVE SMOOTH",
"393 772 OFFCURVE",
"395 796 OFFCURVE",
"383 812 CURVE SMOOTH",
"263 980 LINE SMOOTH",
"249 1000 OFFCURVE",
"235 1000 OFFCURVE",
"204 1000 CURVE SMOOTH",
"157 1000 LINE SMOOTH"
);
},
{
closed = 1;
nodes = (
"330 731 OFFCURVE",
"317 720 OFFCURVE",
"310 699 CURVE SMOOTH",
"112 50 LINE",
"52 50 LINE SMOOTH",
"34 50 OFFCURVE",
"23 40 OFFCURVE",
"23 25 CURVE SMOOTH",
"23 10 OFFCURVE",
"34 0 OFFCURVE",
"52 0 CURVE SMOOTH",
"235 0 LINE SMOOTH",
"253 0 OFFCURVE",
"264 10 OFFCURVE",
"264 25 CURVE SMOOTH",
"264 40 OFFCURVE",
"253 50 OFFCURVE",
"235 50 CURVE SMOOTH",
"178 50 LINE",
"221 205 LINE",
"436 205 LINE",
"481 50 LINE",
"409 50 LINE SMOOTH",
"391 50 OFFCURVE",
"380 40 OFFCURVE",
"380 25 CURVE SMOOTH",
"380 10 OFFCURVE",
"391 0 OFFCURVE",
"409 0 CURVE SMOOTH",
"663 0 LINE SMOOTH",
"681 0 OFFCURVE",
"692 10 OFFCURVE",
"692 25 CURVE SMOOTH",
"692 40 OFFCURVE",
"681 50 OFFCURVE",
"663 50 CURVE SMOOTH",
"608 50 LINE",
"402 699 LINE SMOOTH",
"395 721 OFFCURVE",
"383 731 OFFCURVE",
"356 731 CURVE SMOOTH"
);
},
{
closed = 1;
nodes = (
"335 579 LINE",
"421 255 LINE",
"236 255 LINE"
);
}
);
width = 700;
}
);
unicode = 00C0;
},
{
glyphname = Aring;
lastChange = "2021-04-06 13:50:24 +0000";
layers = (
{
layerId = "2C887366-8E1E-4334-B4A5-9B98F2C45AC5";
paths = (
{
closed = 1;
nodes = (
"411 776 OFFCURVE",
"459 824 OFFCURVE",
"459 884 CURVE SMOOTH",
"459 942 OFFCURVE",
"411 990 OFFCURVE",
"353 990 CURVE SMOOTH",
"293 990 OFFCURVE",
"244 942 OFFCURVE",
"244 884 CURVE SMOOTH",
"244 824 OFFCURVE",
"293 776 OFFCURVE",
"353 776 CURVE SMOOTH"
);
},
{
closed = 1;
nodes = (
"310 808 OFFCURVE",
"278 843 OFFCURVE",
"278 884 CURVE SMOOTH",
"278 924 OFFCURVE",
"310 958 OFFCURVE",
"352 958 CURVE SMOOTH",
"390 958 OFFCURVE",
"425 924 OFFCURVE",
"425 884 CURVE SMOOTH",
"425 842 OFFCURVE",
"390 808 OFFCURVE",
"352 808 CURVE SMOOTH"
);
},
{
closed = 1;
nodes = (
"343 730 OFFCURVE",
"340 725 OFFCURVE",
"336 712 CURVE SMOOTH",
"119 30 LINE",
"51 30 LINE SMOOTH",
"40 30 OFFCURVE",
"33 24 OFFCURVE",
"33 15 CURVE SMOOTH",
"33 6 OFFCURVE",
"40 0 OFFCURVE",
"51 0 CURVE SMOOTH",
"237 0 LINE SMOOTH",
"248 0 OFFCURVE",
"254 6 OFFCURVE",
"254 15 CURVE SMOOTH",
"254 24 OFFCURVE",
"248 30 OFFCURVE",
"237 30 CURVE SMOOTH",
"153 30 LINE",
"213 216 LINE",
"444 216 LINE",
"503 30 LINE",
"423 30 LINE SMOOTH",
"412 30 OFFCURVE",
"405 24 OFFCURVE",
"405 15 CURVE SMOOTH",
"405 6 OFFCURVE",
"412 0 OFFCURVE",
"423 0 CURVE SMOOTH",
"650 0 LINE SMOOTH",
"661 0 OFFCURVE",
"667 6 OFFCURVE",
"667 15 CURVE SMOOTH",
"667 24 OFFCURVE",
"661 30 OFFCURVE",
"650 30 CURVE SMOOTH",
"592 30 LINE",
"366 712 LINE SMOOTH",
"362 725 OFFCURVE",
"359 730 OFFCURVE",
"351 730 CURVE SMOOTH"
);
},
{
closed = 1;
nodes = (
"330 579 LINE",
"435 246 LINE",
"222 246 LINE"
);
}
);
width = 700;
},
{
layerId = "15A46FCC-DA81-4964-B403-68213F8F3DE4";
paths = (
{
closed = 1;
nodes = (
"410 776 OFFCURVE",
"457 824 OFFCURVE",
"457 883 CURVE SMOOTH",
"457 941 OFFCURVE",
"410 989 OFFCURVE",
"352 989 CURVE SMOOTH",
"292 989 OFFCURVE",
"243 941 OFFCURVE",
"243 883 CURVE SMOOTH",
"243 824 OFFCURVE",
"292 776 OFFCURVE",
"352 776 CURVE SMOOTH"
);
},
{
closed = 1;
nodes = (
"312 814 OFFCURVE",
"282 845 OFFCURVE",
"282 883 CURVE SMOOTH",
"282 919 OFFCURVE",
"312 951 OFFCURVE",
"350 951 CURVE SMOOTH",
"385 951 OFFCURVE",
"418 919 OFFCURVE",
"418 883 CURVE SMOOTH",
"418 844 OFFCURVE",
"385 814 OFFCURVE",
"350 814 CURVE SMOOTH"
);
},
{
closed = 1;
nodes = (
"328 730 OFFCURVE",
"316 718 OFFCURVE",
"310 699 CURVE SMOOTH",
"112 50 LINE",
"52 50 LINE SMOOTH",
"34 50 OFFCURVE",
"23 40 OFFCURVE",
"23 25 CURVE SMOOTH",
"23 10 OFFCURVE",
"34 0 OFFCURVE",
"52 0 CURVE SMOOTH",
"235 0 LINE SMOOTH",
"253 0 OFFCURVE",
"264 10 OFFCURVE",
"264 25 CURVE SMOOTH",
"264 40 OFFCURVE",
"253 50 OFFCURVE",
"235 50 CURVE SMOOTH",
"178 50 LINE",
"221 205 LINE",
"446 205 LINE",
"491 50 LINE",
"424 50 LINE SMOOTH",
"406 50 OFFCURVE",
"395 40 OFFCURVE",
"395 25 CURVE SMOOTH",
"395 10 OFFCURVE",
"406 0 OFFCURVE",
"424 0 CURVE SMOOTH",
"648 0 LINE SMOOTH",
"666 0 OFFCURVE",
"677 10 OFFCURVE",
"677 25 CURVE SMOOTH",
"677 40 OFFCURVE",
"666 50 OFFCURVE",
"648 50 CURVE SMOOTH",
"598 50 LINE",
"392 699 LINE SMOOTH",
"386 719 OFFCURVE",
"375 730 OFFCURVE",
"351 730 CURVE SMOOTH"
);
},
{
closed = 1;
nodes = (
"335 579 LINE",
"431 255 LINE",
"236 255 LINE"
);
}
);
width = 700;
},
{
layerId = "6A265716-979C-4B63-AB57-6A34FBA57EF3";
paths = (
{
closed = 1;
nodes = (
"419 761 OFFCURVE",
"473 816 OFFCURVE",
"473 884 CURVE SMOOTH",
"473 950 OFFCURVE",
"419 1005 OFFCURVE",
"352 1005 CURVE SMOOTH",
"283 1005 OFFCURVE",
"228 950 OFFCURVE",
"228 884 CURVE SMOOTH",
"228 816 OFFCURVE",
"283 761 OFFCURVE",
"352 761 CURVE SMOOTH"
);
},
{
closed = 1;
nodes = (
"312 812 OFFCURVE",
"282 844 OFFCURVE",
"282 885 CURVE SMOOTH",
"282 924 OFFCURVE",
"312 954 OFFCURVE",
"352 954 CURVE SMOOTH",
"389 954 OFFCURVE",
"422 924 OFFCURVE",
"422 885 CURVE SMOOTH",
"422 842 OFFCURVE",
"389 812 OFFCURVE",
"352 812 CURVE SMOOTH"
);
},
{
closed = 1;
nodes = (
"330 731 OFFCURVE",
"317 720 OFFCURVE",
"310 699 CURVE SMOOTH",
"112 50 LINE",
"52 50 LINE SMOOTH",
"34 50 OFFCURVE",
"23 40 OFFCURVE",
"23 25 CURVE SMOOTH",
"23 10 OFFCURVE",
"34 0 OFFCURVE",
"52 0 CURVE SMOOTH",
"235 0 LINE SMOOTH",
"253 0 OFFCURVE",
"264 10 OFFCURVE",
"264 25 CURVE SMOOTH",
"264 40 OFFCURVE",
"253 50 OFFCURVE",
"235 50 CURVE SMOOTH",
"178 50 LINE",
"221 205 LINE",
"436 205 LINE",
"481 50 LINE",
"409 50 LINE SMOOTH",
"391 50 OFFCURVE",
"380 40 OFFCURVE",
"380 25 CURVE SMOOTH",
"380 10 OFFCURVE",
"391 0 OFFCURVE",
"409 0 CURVE SMOOTH",
"663 0 LINE SMOOTH",
"681 0 OFFCURVE",
"692 10 OFFCURVE",
"692 25 CURVE SMOOTH",
"692 40 OFFCURVE",
"681 50 OFFCURVE",
"663 50 CURVE SMOOTH",
"608 50 LINE",
"402 699 LINE SMOOTH",
"395 721 OFFCURVE",
"383 731 OFFCURVE",
"356 731 CURVE SMOOTH"
);
},
{
closed = 1;
nodes = (
"335 579 LINE",
"421 255 LINE",
"236 255 LINE"
);
}
);
width = 700;
}
);
unicode = 00C5;
},
{
glyphname = Atilde;
lastChange = "2020-09-06 15:53:36 +0000";
layers = (
{
background = {
paths = (
{
closed = 1;
nodes = (
"359 730 OFFCURVE",
"362 725 OFFCURVE",
"366 712 CURVE SMOOTH",
"592 30 LINE",
"650 30 LINE SMOOTH",
"661 30 OFFCURVE",
"667 24 OFFCURVE",
"667 15 CURVE SMOOTH",
"667 6 OFFCURVE",
"661 0 OFFCURVE",
"650 0 CURVE SMOOTH",
"423 0 LINE SMOOTH",
"412 0 OFFCURVE",
"405 6 OFFCURVE",
"405 15 CURVE SMOOTH",
"405 24 OFFCURVE",
"412 30 OFFCURVE",
"423 30 CURVE SMOOTH",
"503 30 LINE",
"444 216 LINE",
"213 216 LINE",
"153 30 LINE",
"237 30 LINE SMOOTH",
"248 30 OFFCURVE",
"254 24 OFFCURVE",
"254 15 CURVE SMOOTH",
"254 6 OFFCURVE",
"248 0 OFFCURVE",
"237 0 CURVE SMOOTH",
"51 0 LINE SMOOTH",
"40 0 OFFCURVE",
"33 6 OFFCURVE",
"33 15 CURVE SMOOTH",
"33 24 OFFCURVE",
"40 30 OFFCURVE",
"51 30 CURVE SMOOTH",
"119 30 LINE",
"336 712 LINE SMOOTH",
"340 725 OFFCURVE",
"343 730 OFFCURVE",
"351 730 CURVE SMOOTH"
);
},
{
closed = 1;
nodes = (
"435 246 LINE",
"330 579 LINE",
"222 246 LINE"
);
}
);
};
layerId = "2C887366-8E1E-4334-B4A5-9B98F2C45AC5";
paths = (
{
closed = 1;
nodes = (
"344 865 OFFCURVE",
"378 798 OFFCURVE",
"438 798 CURVE SMOOTH",
"469 798 OFFCURVE",
"513 807 OFFCURVE",
"545 869 CURVE SMOOTH",
"558 894 OFFCURVE",
"533 909 OFFCURVE",
"518 885 CURVE SMOOTH",
"492 843 OFFCURVE",
"475 828 OFFCURVE",
"438 828 CURVE SMOOTH",
"391 828 OFFCURVE",
"353 897 OFFCURVE",
"286 895 CURVE SMOOTH",
"245 894 OFFCURVE",
"211 880 OFFCURVE",
"182 828 CURVE SMOOTH",
"167 801 OFFCURVE",
"195 787 OFFCURVE",
"207 807 CURVE SMOOTH",
"230 845 OFFCURVE",
"249 865 OFFCURVE",
"286 865 CURVE SMOOTH"
);
},
{
closed = 1;
nodes = (
"343 730 OFFCURVE",
"340 725 OFFCURVE",
"336 712 CURVE SMOOTH",
"119 30 LINE",
"51 30 LINE SMOOTH",
"40 30 OFFCURVE",
"33 24 OFFCURVE",
"33 15 CURVE SMOOTH",
"33 6 OFFCURVE",
"40 0 OFFCURVE",
"51 0 CURVE SMOOTH",
"237 0 LINE SMOOTH",
"248 0 OFFCURVE",
"254 6 OFFCURVE",
"254 15 CURVE SMOOTH",
"254 24 OFFCURVE",
"248 30 OFFCURVE",
"237 30 CURVE SMOOTH",
"153 30 LINE",
"213 216 LINE",
"444 216 LINE",
"503 30 LINE",
"423 30 LINE SMOOTH",
"412 30 OFFCURVE",
"405 24 OFFCURVE",
"405 15 CURVE SMOOTH",
"405 6 OFFCURVE",
"412 0 OFFCURVE",
"423 0 CURVE SMOOTH",
"650 0 LINE SMOOTH",
"661 0 OFFCURVE",
"667 6 OFFCURVE",
"667 15 CURVE SMOOTH",
"667 24 OFFCURVE",
"661 30 OFFCURVE",
"650 30 CURVE SMOOTH",
"592 30 LINE",
"366 712 LINE SMOOTH",
"362 725 OFFCURVE",
"359 730 OFFCURVE",
"351 730 CURVE SMOOTH"
);
},
{
closed = 1;
nodes = (
"330 579 LINE",
"435 246 LINE",
"222 246 LINE"
);
}
);
width = 700;
},
{
layerId = "15A46FCC-DA81-4964-B403-68213F8F3DE4";
paths = (
{
closed = 1;
nodes = (
"344 854 OFFCURVE",
"368 787 OFFCURVE",
"438 787 CURVE SMOOTH",
"478 787 OFFCURVE",
"524 803 OFFCURVE",
"555 866 CURVE SMOOTH",
"572 900 OFFCURVE",
"526 924 OFFCURVE",
"505 885 CURVE SMOOTH",
"487 851 OFFCURVE",
"465 838 OFFCURVE",
"438 838 CURVE SMOOTH",
"396 838 OFFCURVE",
"363 906 OFFCURVE",
"286 904 CURVE SMOOTH",
"245 903 OFFCURVE",
"200 890 OFFCURVE",
"170 827 CURVE SMOOTH",
"154 793 OFFCURVE",
"199 769 OFFCURVE",
"219 806 CURVE SMOOTH",
"238 841 OFFCURVE",
"259 854 OFFCURVE",
"286 854 CURVE SMOOTH"
);
},
{
closed = 1;
nodes = (
"328 730 OFFCURVE",
"316 718 OFFCURVE",
"310 699 CURVE SMOOTH",
"112 50 LINE",
"52 50 LINE SMOOTH",
"34 50 OFFCURVE",
"23 40 OFFCURVE",
"23 25 CURVE SMOOTH",
"23 10 OFFCURVE",
"34 0 OFFCURVE",
"52 0 CURVE SMOOTH",
"235 0 LINE SMOOTH",
"253 0 OFFCURVE",
"264 10 OFFCURVE",
"264 25 CURVE SMOOTH",
"264 40 OFFCURVE",
"253 50 OFFCURVE",
"235 50 CURVE SMOOTH",
"178 50 LINE",
"221 205 LINE",
"446 205 LINE",
"491 50 LINE",
"424 50 LINE SMOOTH",
"406 50 OFFCURVE",
"395 40 OFFCURVE",
"395 25 CURVE SMOOTH",
"395 10 OFFCURVE",
"406 0 OFFCURVE",
"424 0 CURVE SMOOTH",
"648 0 LINE SMOOTH",
"666 0 OFFCURVE",
"677 10 OFFCURVE",
"677 25 CURVE SMOOTH",
"677 40 OFFCURVE",
"666 50 OFFCURVE",
"648 50 CURVE SMOOTH",
"598 50 LINE",
"392 699 LINE SMOOTH",
"386 719 OFFCURVE",
"375 730 OFFCURVE",
"351 730 CURVE SMOOTH"
);
},
{
closed = 1;
nodes = (
"335 579 LINE",
"431 255 LINE",
"236 255 LINE"
);
}
);
width = 700;
},
{
layerId = "6A265716-979C-4B63-AB57-6A34FBA57EF3";
paths = (
{
closed = 1;
nodes = (
"344 844 OFFCURVE",
"368 777 OFFCURVE",
"438 777 CURVE SMOOTH",
"478 777 OFFCURVE",
"521 796 OFFCURVE",
"557 856 CURVE SMOOTH",
"584 901 OFFCURVE",
"532 935 OFFCURVE",
"505 895 CURVE",
"485 862 OFFCURVE",
"465 848 OFFCURVE",
"438 848 CURVE SMOOTH",
"397 848 OFFCURVE",
"364 914 OFFCURVE",
"289 914 CURVE SMOOTH",
"233 914 OFFCURVE",
"198 884 OFFCURVE",
"168 837 CURVE SMOOTH",
"140 793 OFFCURVE",
"192 758 OFFCURVE",
"221 796 CURVE SMOOTH",
"247 832 OFFCURVE",
"259 844 OFFCURVE",
"286 844 CURVE SMOOTH"
);
},
{
closed = 1;
nodes = (
"330 731 OFFCURVE",
"317 720 OFFCURVE",
"310 699 CURVE SMOOTH",
"112 50 LINE",
"52 50 LINE SMOOTH",
"34 50 OFFCURVE",
"23 40 OFFCURVE",
"23 25 CURVE SMOOTH",
"23 10 OFFCURVE",
"34 0 OFFCURVE",
"52 0 CURVE SMOOTH",
"235 0 LINE SMOOTH",
"253 0 OFFCURVE",
"264 10 OFFCURVE",
"264 25 CURVE SMOOTH",
"264 40 OFFCURVE",
"253 50 OFFCURVE",
"235 50 CURVE SMOOTH",
"178 50 LINE",
"221 205 LINE",
"436 205 LINE",
"481 50 LINE",
"409 50 LINE SMOOTH",
"391 50 OFFCURVE",
"380 40 OFFCURVE",
"380 25 CURVE SMOOTH",
"380 10 OFFCURVE",
"391 0 OFFCURVE",
"409 0 CURVE SMOOTH",
"663 0 LINE SMOOTH",
"681 0 OFFCURVE",
"692 10 OFFCURVE",
"692 25 CURVE SMOOTH",
"692 40 OFFCURVE",
"681 50 OFFCURVE",
"663 50 CURVE SMOOTH",
"608 50 LINE",
"402 699 LINE SMOOTH",
"395 721 OFFCURVE",
"383 731 OFFCURVE",
"356 731 CURVE SMOOTH"
);
},
{
closed = 1;
nodes = (
"335 579 LINE",
"421 255 LINE",
"236 255 LINE"
);
}
);
width = 700;
}
);
unicode = 00C3;
},
{
glyphname = AE;
lastChange = "2020-09-05 13:54:00 +0000";
layers = (
{
layerId = "2C887366-8E1E-4334-B4A5-9B98F2C45AC5";
paths = (
{
closed = 1;
nodes = (
"620 700 OFFCURVE",
"624 601 OFFCURVE",
"630 550 CURVE SMOOTH",
"637 492 LINE SMOOTH",
"639 474 OFFCURVE",
"644 469 OFFCURVE",
"654 470 CURVE SMOOTH",
"663 471 OFFCURVE",
"666 476 OFFCURVE",
"665 494 CURVE SMOOTH",
"649 709 LINE SMOOTH",
"648 726 OFFCURVE",
"645 730 OFFCURVE",
"632 730 CURVE SMOOTH",
"227 730 LINE SMOOTH",
"216 730 OFFCURVE",
"209 724 OFFCURVE",
"209 715 CURVE SMOOTH",
"209 706 OFFCURVE",
"216 700 OFFCURVE",
"227 700 CURVE SMOOTH",
"308 700 LINE",
"102 30 LINE",
"52 30 LINE SMOOTH",
"41 30 OFFCURVE",
"34 24 OFFCURVE",
"34 15 CURVE SMOOTH",
"34 6 OFFCURVE",
"41 0 OFFCURVE",
"52 0 CURVE SMOOTH",
"198 0 LINE SMOOTH",
"209 0 OFFCURVE",
"215 6 OFFCURVE",
"215 15 CURVE SMOOTH",
"215 24 OFFCURVE",
"209 30 OFFCURVE",
"198 30 CURVE SMOOTH",
"136 30 LINE",
"194 216 LINE",
"344 216 LINE",
"344 30 LINE",
"294 30 LINE SMOOTH",
"283 30 OFFCURVE",
"276 24 OFFCURVE",
"276 15 CURVE SMOOTH",
"276 6 OFFCURVE",
"283 0 OFFCURVE",
"294 0 CURVE SMOOTH",
"632 0 LINE SMOOTH",
"645 0 OFFCURVE",
"648 4 OFFCURVE",
"649 21 CURVE SMOOTH",
"665 236 LINE SMOOTH",
"666 254 OFFCURVE",
"663 259 OFFCURVE",
"654 260 CURVE SMOOTH",
"644 261 OFFCURVE",
"639 256 OFFCURVE",
"637 238 CURVE SMOOTH",
"630 180 LINE SMOOTH",
"624 129 OFFCURVE",
"620 30 OFFCURVE",
"513 30 CURVE SMOOTH",
"424 30 LINE",
"424 354 LINE",
"507 354 OFFCURVE",
"519 339 OFFCURVE",
"526 276 CURVE SMOOTH",
"528 258 LINE SMOOTH",
"530 241 OFFCURVE",
"528 229 OFFCURVE",
"539 228 CURVE SMOOTH",
"554 227 OFFCURVE",
"553 241 OFFCURVE",
"553 258 CURVE SMOOTH",
"553 480 LINE SMOOTH",
"553 497 OFFCURVE",
"554 511 OFFCURVE",
"539 510 CURVE SMOOTH",
"528 509 OFFCURVE",
"530 497 OFFCURVE",
"528 480 CURVE SMOOTH",
"526 462 LINE SMOOTH",
"519 396 OFFCURVE",
"507 384 OFFCURVE",
"424 384 CURVE",
"424 700 LINE",
"513 700 LINE SMOOTH"
);
},
{
closed = 1;
nodes = (
"344 699 LINE",
"344 246 LINE",
"203 246 LINE"
);
}
);
width = 700;
},
{
layerId = "15A46FCC-DA81-4964-B403-68213F8F3DE4";
paths = (
{
closed = 1;
nodes = (
"600 678 OFFCURVE",
"613 591 OFFCURVE",
"619 550 CURVE",
"623 494 LINE SMOOTH",
"624 476 OFFCURVE",
"631 464 OFFCURVE",
"649 464 CURVE SMOOTH",
"667 464 OFFCURVE",
"676 476 OFFCURVE",
"675 494 CURVE SMOOTH",
"659 699 LINE SMOOTH",
"658 716 OFFCURVE",
"650 730 OFFCURVE",
"632 730 CURVE SMOOTH",
"228 730 LINE SMOOTH",
"211 730 OFFCURVE",
"199 720 OFFCURVE",
"199 705 CURVE SMOOTH",
"199 692 OFFCURVE",
"209 681 OFFCURVE",
"228 679 CURVE SMOOTH",
"283 674 LINE",
"93 50 LINE",
"53 50 LINE SMOOTH",
"35 50 OFFCURVE",
"24 40 OFFCURVE",
"24 25 CURVE SMOOTH",
"24 10 OFFCURVE",
"35 0 OFFCURVE",
"53 0 CURVE SMOOTH",
"196 0 LINE SMOOTH",
"214 0 OFFCURVE",
"225 10 OFFCURVE",
"225 25 CURVE SMOOTH",
"225 40 OFFCURVE",
"214 50 OFFCURVE",
"196 50 CURVE SMOOTH",
"159 50 LINE",
"205 205 LINE",
"343 205 LINE",
"343 50 LINE",
"295 50 LINE SMOOTH",
"277 50 OFFCURVE",
"266 40 OFFCURVE",
"266 25 CURVE",
"266 10 OFFCURVE",
"277 0 OFFCURVE",
"295 0 CURVE SMOOTH",
"632 0 LINE SMOOTH",
"650 0 OFFCURVE",
"658 14 OFFCURVE",
"659 31 CURVE SMOOTH",
"675 236 LINE SMOOTH",
"676 254 OFFCURVE",
"667 266 OFFCURVE",
"649 266 CURVE SMOOTH",
"631 266 OFFCURVE",
"624 254 OFFCURVE",
"623 236 CURVE SMOOTH",
"619 180 LINE",
"613 139 OFFCURVE",
"600 52 OFFCURVE",
"503 50 CURVE",
"443 50 LINE",
"443 344 LINE",
"490 341 OFFCURVE",
"502 313 OFFCURVE",
"509 276 CURVE SMOOTH",
"514 247 LINE SMOOTH",
"517 230 OFFCURVE",
"522 218 OFFCURVE",
"539 218 CURVE SMOOTH",
"556 218 OFFCURVE",
"564 230 OFFCURVE",
"564 247 CURVE SMOOTH",
"564 491 LINE SMOOTH",
"564 508 OFFCURVE",
"556 520 OFFCURVE",
"539 520 CURVE SMOOTH",
"522 520 OFFCURVE",
"517 508 OFFCURVE",
"514 491 CURVE SMOOTH",
"509 462 LINE SMOOTH",
"502 425 OFFCURVE",
"490 397 OFFCURVE",
"443 394 CURVE",
"443 680 LINE",
"503 680 LINE SMOOTH"
);
},
{
closed = 1;
nodes = (
"343 667 LINE",
"343 255 LINE",
"220 255 LINE"
);
}
);
width = 700;
},
{
layerId = "6A265716-979C-4B63-AB57-6A34FBA57EF3";
paths = (
{
closed = 1;
nodes = (
"600 678 OFFCURVE",
"613 591 OFFCURVE",
"619 550 CURVE",
"623 494 LINE SMOOTH",
"624 476 OFFCURVE",
"631 464 OFFCURVE",
"649 464 CURVE SMOOTH",
"667 464 OFFCURVE",
"676 476 OFFCURVE",
"675 494 CURVE SMOOTH",
"659 699 LINE SMOOTH",
"658 716 OFFCURVE",
"650 730 OFFCURVE",
"632 730 CURVE SMOOTH",
"218 730 LINE SMOOTH",
"201 730 OFFCURVE",
"189 720 OFFCURVE",
"189 705 CURVE SMOOTH",
"189 692 OFFCURVE",
"199 681 OFFCURVE",
"218 679 CURVE SMOOTH",
"283 674 LINE",
"93 50 LINE",
"53 50 LINE SMOOTH",
"35 50 OFFCURVE",
"24 40 OFFCURVE",
"24 25 CURVE SMOOTH",
"24 10 OFFCURVE",
"35 0 OFFCURVE",
"53 0 CURVE SMOOTH",
"196 0 LINE SMOOTH",
"214 0 OFFCURVE",
"225 10 OFFCURVE",
"225 25 CURVE SMOOTH",
"225 40 OFFCURVE",
"214 50 OFFCURVE",
"196 50 CURVE SMOOTH",
"159 50 LINE",
"205 205 LINE",
"333 205 LINE",
"333 50 LINE",
"285 50 LINE SMOOTH",
"267 50 OFFCURVE",
"256 40 OFFCURVE",
"256 25 CURVE SMOOTH",
"256 10 OFFCURVE",
"267 0 OFFCURVE",
"285 0 CURVE SMOOTH",
"632 0 LINE SMOOTH",
"650 0 OFFCURVE",
"658 14 OFFCURVE",
"659 31 CURVE SMOOTH",
"675 236 LINE SMOOTH",
"676 254 OFFCURVE",
"667 266 OFFCURVE",
"649 266 CURVE SMOOTH",
"631 266 OFFCURVE",
"624 254 OFFCURVE",
"623 236 CURVE SMOOTH",
"619 180 LINE",
"613 139 OFFCURVE",
"600 52 OFFCURVE",
"503 50 CURVE SMOOTH",
"453 50 LINE",
"453 343 LINE",
"490 337 OFFCURVE",
"502 313 OFFCURVE",
"509 276 CURVE SMOOTH",
"514 247 LINE SMOOTH",
"517 230 OFFCURVE",
"522 218 OFFCURVE",
"539 218 CURVE SMOOTH",
"556 218 OFFCURVE",
"564 230 OFFCURVE",
"564 247 CURVE SMOOTH",
"564 491 LINE SMOOTH",
"564 508 OFFCURVE",
"556 520 OFFCURVE",
"539 520 CURVE SMOOTH",
"522 520 OFFCURVE",
"517 508 OFFCURVE",
"514 491 CURVE SMOOTH",
"509 462 LINE SMOOTH",
"502 425 OFFCURVE",
"489 401 OFFCURVE",
"453 395 CURVE",
"453 680 LINE",
"503 680 LINE SMOOTH"
);
},
{
closed = 1;
nodes = (
"333 634 LINE",
"333 255 LINE",
"220 255 LINE"
);
}
);
width = 700;
}
);
unicode = 00C6;
},
{
glyphname = B;
lastChange = "2020-08-31 11:28:10 +0000";
layers = (
{
layerId = "2C887366-8E1E-4334-B4A5-9B98F2C45AC5";
paths = (
{
closed = 1;
nodes = (
"434 0 LINE SMOOTH",
"547 0 OFFCURVE",
"638 86 OFFCURVE",
"638 205 CURVE SMOOTH",
"638 330 OFFCURVE",
"545 374 OFFCURVE",
"516 381 CURVE SMOOTH",
"488 388 LINE",
"516 399 LINE SMOOTH",
"544 410 OFFCURVE",
"604 449 OFFCURVE",
"604 555 CURVE SMOOTH",
"604 667 OFFCURVE",
"514 730 OFFCURVE",
"394 730 CURVE SMOOTH",
"88 730 LINE SMOOTH",
"77 730 OFFCURVE",
"70 724 OFFCURVE",
"70 715 CURVE SMOOTH",
"70 706 OFFCURVE",
"77 700 OFFCURVE",
"88 700 CURVE SMOOTH",
"170 700 LINE",
"170 30 LINE",
"88 30 LINE SMOOTH",
"77 30 OFFCURVE",
"70 24 OFFCURVE",
"70 15 CURVE SMOOTH",
"70 6 OFFCURVE",
"77 0 OFFCURVE",
"88 0 CURVE SMOOTH"
);
},
{
closed = 1;
nodes = (
"250 700 LINE",
"413 700 LINE SMOOTH",
"463 700 OFFCURVE",
"524 659 OFFCURVE",
"524 555 CURVE SMOOTH",
"524 448 OFFCURVE",
"461 400 OFFCURVE",
"413 400 CURVE SMOOTH",
"250 400 LINE"
);
},
{
closed = 1;
nodes = (
"250 370 LINE",
"413 370 LINE SMOOTH",
"494 370 OFFCURVE",
"558 306 OFFCURVE",
"558 205 CURVE SMOOTH",
"558 126 OFFCURVE",
"518 30 OFFCURVE",
"413 30 CURVE SMOOTH",
"250 30 LINE"
);
}
);
width = 700;
},
{
layerId = "6A265716-979C-4B63-AB57-6A34FBA57EF3";
paths = (
{
closed = 1;
nodes = (
"434 0 LINE SMOOTH",
"557 0 OFFCURVE",
"658 86 OFFCURVE",
"658 205 CURVE SMOOTH",
"658 330 OFFCURVE",
"554 371 OFFCURVE",
"516 381 CURVE SMOOTH",
"488 388 LINE",
"516 399 LINE SMOOTH",
"553 413 OFFCURVE",
"624 449 OFFCURVE",
"624 555 CURVE SMOOTH",
"624 667 OFFCURVE",
"524 730 OFFCURVE",
"394 730 CURVE SMOOTH",
"79 730 LINE SMOOTH",
"62 730 OFFCURVE",
"50 720 OFFCURVE",
"50 705 CURVE SMOOTH",
"50 692 OFFCURVE",
"61 681 OFFCURVE",
"79 679 CURVE SMOOTH",
"150 671 LINE",
"150 50 LINE",
"79 50 LINE SMOOTH",
"61 50 OFFCURVE",
"50 40 OFFCURVE",
"50 25 CURVE SMOOTH",
"50 10 OFFCURVE",
"61 0 OFFCURVE",
"79 0 CURVE SMOOTH"
);
},
{
closed = 1;
nodes = (
"270 680 LINE",
"393 680 LINE SMOOTH",
"433 680 OFFCURVE",
"504 649 OFFCURVE",
"504 555 CURVE SMOOTH",
"504 458 OFFCURVE",
"431 410 OFFCURVE",
"393 410 CURVE SMOOTH",
"270 410 LINE"
);
},
{
closed = 1;
nodes = (
"270 360 LINE",
"393 360 LINE SMOOTH",
"474 360 OFFCURVE",
"538 306 OFFCURVE",
"538 205 CURVE SMOOTH",
"538 126 OFFCURVE",
"498 50 OFFCURVE",
"393 50 CURVE SMOOTH",
"270 50 LINE"
);
}
);
width = 700;
},
{
layerId = "15A46FCC-DA81-4964-B403-68213F8F3DE4";
paths = (
{
closed = 1;
nodes = (
"434 0 LINE SMOOTH",
"547 0 OFFCURVE",
"648 86 OFFCURVE",
"648 205 CURVE SMOOTH",
"648 330 OFFCURVE",
"545 374 OFFCURVE",
"516 381 CURVE SMOOTH",
"488 388 LINE",
"516 399 LINE SMOOTH",
"544 410 OFFCURVE",
"614 449 OFFCURVE",
"614 555 CURVE SMOOTH",
"614 667 OFFCURVE",
"514 730 OFFCURVE",
"394 730 CURVE SMOOTH",
"89 730 LINE SMOOTH",
"72 730 OFFCURVE",
"60 720 OFFCURVE",
"60 705 CURVE SMOOTH",
"60 692 OFFCURVE",
"71 681 OFFCURVE",
"89 679 CURVE",
"160 671 LINE",
"160 50 LINE",
"89 50 LINE SMOOTH",
"71 50 OFFCURVE",
"60 40 OFFCURVE",
"60 25 CURVE SMOOTH",
"60 10 OFFCURVE",
"71 0 OFFCURVE",
"89 0 CURVE SMOOTH"
);
},
{
closed = 1;
nodes = (
"260 680 LINE",
"403 680 LINE SMOOTH",
"443 680 OFFCURVE",
"514 649 OFFCURVE",
"514 555 CURVE SMOOTH",
"514 458 OFFCURVE",
"441 410 OFFCURVE",
"403 410 CURVE SMOOTH",
"260 410 LINE"
);
},
{
closed = 1;
nodes = (
"260 360 LINE",
"403 360 LINE SMOOTH",
"484 360 OFFCURVE",
"548 306 OFFCURVE",
"548 205 CURVE SMOOTH",
"548 126 OFFCURVE",
"508 50 OFFCURVE",
"403 50 CURVE SMOOTH",
"260 50 LINE"
);
}
);
width = 700;
}
);
unicode = 0042;
},
{
glyphname = C;
lastChange = "2020-08-31 11:28:10 +0000";
layers = (
{
layerId = "2C887366-8E1E-4334-B4A5-9B98F2C45AC5";
paths = (
{
closed = 1;
nodes = (
"220 730 OFFCURVE",
"101 617 OFFCURVE",
"101 365 CURVE SMOOTH",
"101 113 OFFCURVE",
"220 0 OFFCURVE",
"369 0 CURVE SMOOTH",
"491 0 OFFCURVE",
"546 98 OFFCURVE",
"585 222 CURVE SMOOTH",
"595 254 OFFCURVE",
"596 267 OFFCURVE",
"580 269 CURVE SMOOTH",
"567 271 OFFCURVE",
"561 250 OFFCURVE",
"555 233 CURVE SMOOTH",
"542 198 LINE SMOOTH",
"505 99 OFFCURVE",
"450 30 OFFCURVE",
"371 30 CURVE SMOOTH",
"251 30 OFFCURVE",
"181 192 OFFCURVE",
"181 365 CURVE SMOOTH",
"181 537 OFFCURVE",
"249 700 OFFCURVE",
"359 700 CURVE SMOOTH",
"473 700 OFFCURVE",
"520 572 OFFCURVE",
"544 500 CURVE SMOOTH",
"549 485 OFFCURVE",
"554 459 OFFCURVE",
"570 459 CURVE SMOOTH",
"578 459 OFFCURVE",
"585 465 OFFCURVE",
"585 476 CURVE SMOOTH",
"585 712 LINE SMOOTH",
"585 723 OFFCURVE",
"578 730 OFFCURVE",
"570 730 CURVE SMOOTH",
"562 730 OFFCURVE",
"555 724 OFFCURVE",
"555 712 CURVE SMOOTH",
"555 562 LINE",
"527 636 OFFCURVE",
"476 730 OFFCURVE",
"359 730 CURVE SMOOTH"
);
}
);
width = 700;
},
{
layerId = "15A46FCC-DA81-4964-B403-68213F8F3DE4";
paths = (
{
closed = 1;
nodes = (
"220 730 OFFCURVE",
"86 617 OFFCURVE",
"86 365 CURVE SMOOTH",
"86 113 OFFCURVE",
"220 0 OFFCURVE",
"369 0 CURVE SMOOTH",
"502 0 OFFCURVE",
"569 108 OFFCURVE",
"604 232 CURVE SMOOTH",
"613 264 OFFCURVE",
"599 276 OFFCURVE",
"582 279 CURVE SMOOTH",
"562 283 OFFCURVE",
"553 265 OFFCURVE",
"546 249 CURVE SMOOTH",
"526 201 LINE SMOOTH",
"489 111 OFFCURVE",
"438 50 OFFCURVE",
"369 50 CURVE SMOOTH",
"249 50 OFFCURVE",
"196 192 OFFCURVE",
"196 365 CURVE SMOOTH",
"196 537 OFFCURVE",
"249 680 OFFCURVE",
"359 680 CURVE SMOOTH",
"467 680 OFFCURVE",
"499 595 OFFCURVE",
"536 478 CURVE SMOOTH",
"541 462 OFFCURVE",
"546 449 OFFCURVE",
"566 449 CURVE SMOOTH",
"582 449 OFFCURVE",
"595 460 OFFCURVE",
"595 478 CURVE",
"595 701 LINE SMOOTH",
"595 718 OFFCURVE",
"585 730 OFFCURVE",
"570 730 CURVE SMOOTH",
"557 730 OFFCURVE",
"546 720 OFFCURVE",
"544 701 CURVE SMOOTH",
"540 649 LINE",
"501 690 OFFCURVE",
"447 730 OFFCURVE",
"369 730 CURVE SMOOTH"
);
}
);
width = 700;
},
{
layerId = "6A265716-979C-4B63-AB57-6A34FBA57EF3";
paths = (
{
closed = 1;
nodes = (
"210 730 OFFCURVE",
"76 617 OFFCURVE",
"76 365 CURVE SMOOTH",
"76 113 OFFCURVE",
"210 0 OFFCURVE",
"369 0 CURVE SMOOTH",
"502 0 OFFCURVE",
"569 108 OFFCURVE",
"604 232 CURVE SMOOTH",
"612 261 OFFCURVE",
"601 280 OFFCURVE",
"577 280 CURVE SMOOTH",
"560 280 OFFCURVE",
"552 263 OFFCURVE",
"546 249 CURVE SMOOTH",
"526 201 LINE SMOOTH",
"489 111 OFFCURVE",
"438 50 OFFCURVE",
"369 50 CURVE SMOOTH",
"259 50 OFFCURVE",
"206 192 OFFCURVE",
"206 365 CURVE SMOOTH",
"206 537 OFFCURVE",
"259 680 OFFCURVE",
"359 680 CURVE SMOOTH",
"467 680 OFFCURVE",
"499 595 OFFCURVE",
"536 478 CURVE SMOOTH",
"541 462 OFFCURVE",
"546 449 OFFCURVE",
"566 449 CURVE SMOOTH",
"587 449 OFFCURVE",
"600 460 OFFCURVE",
"600 478 CURVE SMOOTH",
"600 701 LINE SMOOTH",
"600 718 OFFCURVE",
"590 730 OFFCURVE",
"570 730 CURVE SMOOTH",
"557 730 OFFCURVE",
"545 720 OFFCURVE",
"544 701 CURVE SMOOTH",
"540 644 LINE",
"508 685 OFFCURVE",
"447 730 OFFCURVE",
"369 730 CURVE SMOOTH"
);
}
);
width = 700;
}
);
unicode = 0043;
},
{
glyphname = Ccedilla;
lastChange = "2021-05-04 10:20:42 +0000";
layers = (
{
layerId = "2C887366-8E1E-4334-B4A5-9B98F2C45AC5";
paths = (
{
closed = 1;
nodes = (
"473 700 OFFCURVE",
"520 572 OFFCURVE",
"544 500 CURVE SMOOTH",
"549 485 OFFCURVE",
"554 459 OFFCURVE",
"570 459 CURVE SMOOTH",
"578 459 OFFCURVE",
"585 465 OFFCURVE",
"585 476 CURVE SMOOTH",
"585 712 LINE SMOOTH",
"585 723 OFFCURVE",
"578 730 OFFCURVE",
"570 730 CURVE",
"562 730 OFFCURVE",
"555 724 OFFCURVE",
"555 712 CURVE SMOOTH",
"555 562 LINE",
"527 636 OFFCURVE",
"476 730 OFFCURVE",
"359 730 CURVE SMOOTH",
"220 730 OFFCURVE",
"101 617 OFFCURVE",
"101 365 CURVE SMOOTH",
"101 113 OFFCURVE",
"220 0 OFFCURVE",
"369 0 CURVE SMOOTH",
"491 0 OFFCURVE",
"546 98 OFFCURVE",
"585 222 CURVE SMOOTH",
"595 254 OFFCURVE",
"596 267 OFFCURVE",
"580 269 CURVE SMOOTH",
"567 271 OFFCURVE",
"561 250 OFFCURVE",
"555 233 CURVE SMOOTH",
"542 198 LINE SMOOTH",
"505 99 OFFCURVE",
"450 30 OFFCURVE",
"371 30 CURVE SMOOTH",
"251 30 OFFCURVE",
"181 192 OFFCURVE",
"181 365 CURVE SMOOTH",
"181 537 OFFCURVE",
"249 700 OFFCURVE",
"359 700 CURVE SMOOTH"
);
},
{
closed = 1;
nodes = (
"397 -159 OFFCURVE",
"436 -132 OFFCURVE",
"443 -106 CURVE SMOOTH",
"458 -50 OFFCURVE",
"406 -33 OFFCURVE",
"362 -33 CURVE",
"362 22 LINE",
"334 22 LINE",
"334 -44 LINE",
"334 -60 OFFCURVE",
"347 -56 OFFCURVE",
"366 -57 CURVE SMOOTH",
"392 -58 OFFCURVE",
"401 -74 OFFCURVE",
"400 -84 CURVE SMOOTH",
"399 -99 OFFCURVE",
"387 -124 OFFCURVE",
"336 -111 CURVE SMOOTH",
"313 -105 OFFCURVE",
"303 -100 OFFCURVE",
"290 -93 CURVE SMOOTH",
"281 -88 OFFCURVE",
"274 -91 OFFCURVE",
"272 -99 CURVE SMOOTH",
"270 -108 OFFCURVE",
"277 -117 OFFCURVE",
"326 -134 CURVE SMOOTH"
);
}
);
width = 700;
},
{
layerId = "15A46FCC-DA81-4964-B403-68213F8F3DE4";
paths = (
{
closed = 1;
nodes = (
"467 680 OFFCURVE",
"499 595 OFFCURVE",
"536 478 CURVE SMOOTH",
"541 462 OFFCURVE",
"546 449 OFFCURVE",
"566 449 CURVE SMOOTH",
"582 449 OFFCURVE",
"595 460 OFFCURVE",
"595 478 CURVE",
"595 701 LINE SMOOTH",
"595 718 OFFCURVE",
"585 730 OFFCURVE",
"570 730 CURVE SMOOTH",
"557 730 OFFCURVE",
"546 720 OFFCURVE",
"544 701 CURVE SMOOTH",
"540 649 LINE",
"501 690 OFFCURVE",
"447 730 OFFCURVE",
"369 730 CURVE SMOOTH",
"220 730 OFFCURVE",
"86 617 OFFCURVE",
"86 365 CURVE SMOOTH",
"86 113 OFFCURVE",
"225 0 OFFCURVE",
"374 0 CURVE SMOOTH",
"507 0 OFFCURVE",
"569 108 OFFCURVE",
"604 232 CURVE SMOOTH",
"613 264 OFFCURVE",
"599 276 OFFCURVE",
"582 279 CURVE SMOOTH",
"562 283 OFFCURVE",
"553 265 OFFCURVE",
"546 249 CURVE SMOOTH",
"526 201 LINE SMOOTH",
"489 111 OFFCURVE",
"438 50 OFFCURVE",
"369 50 CURVE SMOOTH",
"249 50 OFFCURVE",
"196 192 OFFCURVE",
"196 365 CURVE SMOOTH",
"196 537 OFFCURVE",
"249 680 OFFCURVE",
"359 680 CURVE"
);
},
{
closed = 1;
nodes = (
"392 -161 OFFCURVE",
"443 -137 OFFCURVE",
"453 -106 CURVE SMOOTH",
"470 -52 OFFCURVE",
"416 -28 OFFCURVE",
"372 -28 CURVE",
"372 22 LINE",
"324 22 LINE",
"324 -49 LINE",
"324 -65 OFFCURVE",
"337 -61 OFFCURVE",
"366 -62 CURVE SMOOTH",
"392 -63 OFFCURVE",
"401 -74 OFFCURVE",
"400 -84 CURVE SMOOTH",
"399 -99 OFFCURVE",
"387 -118 OFFCURVE",
"336 -105 CURVE SMOOTH",
"313 -99 OFFCURVE",
"302 -92 OFFCURVE",
"290 -87 CURVE SMOOTH",
"281 -83 OFFCURVE",
"270 -88 OFFCURVE",
"270 -100 CURVE SMOOTH",
"270 -111 OFFCURVE",
"272 -119 OFFCURVE",
"321 -136 CURVE SMOOTH"
);
}
);
width = 700;
},
{
layerId = "6A265716-979C-4B63-AB57-6A34FBA57EF3";
paths = (
{
closed = 1;
nodes = (
"467 680 OFFCURVE",
"499 595 OFFCURVE",
"536 478 CURVE SMOOTH",
"541 462 OFFCURVE",
"546 449 OFFCURVE",
"566 449 CURVE SMOOTH",
"582 449 OFFCURVE",
"595 460 OFFCURVE",
"595 478 CURVE",
"595 701 LINE SMOOTH",
"595 718 OFFCURVE",
"585 730 OFFCURVE",
"570 730 CURVE SMOOTH",
"557 730 OFFCURVE",
"546 720 OFFCURVE",
"544 701 CURVE SMOOTH",
"540 649 LINE",
"501 690 OFFCURVE",
"447 730 OFFCURVE",
"369 730 CURVE SMOOTH",
"220 730 OFFCURVE",
"86 617 OFFCURVE",
"86 365 CURVE SMOOTH",
"86 113 OFFCURVE",
"225 0 OFFCURVE",
"374 0 CURVE SMOOTH",
"507 0 OFFCURVE",
"569 108 OFFCURVE",
"604 232 CURVE SMOOTH",
"613 264 OFFCURVE",
"599 276 OFFCURVE",
"582 279 CURVE SMOOTH",
"562 283 OFFCURVE",
"553 265 OFFCURVE",
"546 249 CURVE SMOOTH",
"526 201 LINE SMOOTH",
"489 111 OFFCURVE",
"438 50 OFFCURVE",
"369 50 CURVE SMOOTH",
"249 50 OFFCURVE",
"196 192 OFFCURVE",
"196 365 CURVE SMOOTH",
"196 537 OFFCURVE",
"249 680 OFFCURVE",
"359 680 CURVE"
);
},
{
closed = 1;
nodes = (
"392 -165 OFFCURVE",
"447 -144 OFFCURVE",
"457 -107 CURVE SMOOTH",
"472 -52 OFFCURVE",
"421 -25 OFFCURVE",
"377 -25 CURVE",
"377 22 LINE",
"319 22 LINE",
"319 -49 LINE",
"319 -65 OFFCURVE",
"332 -61 OFFCURVE",
"366 -62 CURVE SMOOTH",
"392 -63 OFFCURVE",
"401 -74 OFFCURVE",
"400 -84 CURVE SMOOTH",
"399 -99 OFFCURVE",
"387 -114 OFFCURVE",
"336 -101 CURVE SMOOTH",
"313 -95 OFFCURVE",
"302 -86 OFFCURVE",
"290 -81 CURVE SMOOTH",
"281 -77 OFFCURVE",
"266 -83 OFFCURVE",
"266 -100 CURVE SMOOTH",
"266 -114 OFFCURVE",
"272 -123 OFFCURVE",
"321 -140 CURVE SMOOTH"
);
}
);
width = 700;
}
);
unicode = 00C7;
},
{
glyphname = D;
lastChange = "2020-08-31 11:28:10 +0000";
layers = (
{
layerId = "2C887366-8E1E-4334-B4A5-9B98F2C45AC5";
paths = (
{
closed = 1;
nodes = (
"386 30 LINE SMOOTH",
"488 30 OFFCURVE",
"568 165 OFFCURVE",
"568 362 CURVE SMOOTH",
"568 554 OFFCURVE",
"492 700 OFFCURVE",
"385 700 CURVE SMOOTH",
"248 700 LINE",
"247 30 LINE"
);
},
{
closed = 1;
nodes = (
"385 730 LINE SMOOTH",
"495 730 OFFCURVE",
"648 628 OFFCURVE",
"648 362 CURVE SMOOTH",
"648 70 OFFCURVE",
"492 0 OFFCURVE",
"386 0 CURVE SMOOTH",
"66 0 LINE SMOOTH",
"55 0 OFFCURVE",
"48 6 OFFCURVE",
"48 15 CURVE SMOOTH",
"48 24 OFFCURVE",
"55 30 OFFCURVE",
"66 30 CURVE SMOOTH",
"167 30 LINE",
"167 700 LINE",
"66 700 LINE SMOOTH",
"55 700 OFFCURVE",
"48 706 OFFCURVE",
"48 715 CURVE SMOOTH",
"48 724 OFFCURVE",
"55 730 OFFCURVE",
"66 730 CURVE SMOOTH"
);
}
);
width = 700;
},
{
layerId = "15A46FCC-DA81-4964-B403-68213F8F3DE4";
paths = (
{
closed = 1;
nodes = (
"386 50 LINE SMOOTH",
"488 50 OFFCURVE",
"558 185 OFFCURVE",
"558 362 CURVE SMOOTH",
"558 534 OFFCURVE",
"492 680 OFFCURVE",
"385 680 CURVE SMOOTH",
"258 680 LINE",
"257 50 LINE"
);
},
{
closed = 1;
nodes = (
"385 730 LINE SMOOTH",
"495 730 OFFCURVE",
"658 628 OFFCURVE",
"658 362 CURVE SMOOTH",
"658 70 OFFCURVE",
"492 0 OFFCURVE",
"386 0 CURVE SMOOTH",
"67 0 LINE SMOOTH",
"49 0 OFFCURVE",
"38 10 OFFCURVE",
"38 25 CURVE SMOOTH",
"38 40 OFFCURVE",
"49 50 OFFCURVE",
"67 50 CURVE SMOOTH",
"157 50 LINE",
"157 680 LINE",
"67 680 LINE SMOOTH",
"49 680 OFFCURVE",
"38 690 OFFCURVE",
"38 705 CURVE SMOOTH",
"38 720 OFFCURVE",
"49 730 OFFCURVE",
"67 730 CURVE SMOOTH"
);
}
);
width = 700;
},
{
layerId = "6A265716-979C-4B63-AB57-6A34FBA57EF3";
paths = (
{
closed = 1;
nodes = (
"376 50 LINE SMOOTH",
"478 50 OFFCURVE",
"548 185 OFFCURVE",
"548 362 CURVE SMOOTH",
"548 534 OFFCURVE",
"482 680 OFFCURVE",
"375 680 CURVE SMOOTH",
"268 680 LINE",
"267 50 LINE"
);
},
{
closed = 1;
nodes = (
"385 730 LINE SMOOTH",
"505 730 OFFCURVE",
"668 628 OFFCURVE",
"668 362 CURVE SMOOTH",
"668 70 OFFCURVE",
"502 0 OFFCURVE",
"386 0 CURVE SMOOTH",
"52 0 LINE SMOOTH",
"34 0 OFFCURVE",
"23 10 OFFCURVE",
"23 25 CURVE SMOOTH",
"23 40 OFFCURVE",
"34 50 OFFCURVE",
"52 50 CURVE SMOOTH",
"147 50 LINE",
"147 680 LINE",
"52 680 LINE SMOOTH",
"34 680 OFFCURVE",
"23 690 OFFCURVE",
"23 705 CURVE SMOOTH",
"23 720 OFFCURVE",
"34 730 OFFCURVE",
"52 730 CURVE SMOOTH"
);
}
);
width = 700;
}
);
unicode = 0044;
},
{
glyphname = Eth;
lastChange = "2020-09-05 13:53:10 +0000";
layers = (
{
layerId = "2C887366-8E1E-4334-B4A5-9B98F2C45AC5";
paths = (
{
closed = 1;
nodes = (
"386 30 LINE SMOOTH",
"488 30 OFFCURVE",
"568 165 OFFCURVE",
"568 362 CURVE SMOOTH",
"568 554 OFFCURVE",
"492 700 OFFCURVE",
"385 700 CURVE",
"248 700 LINE",
"247 30 LINE"
);
},
{
closed = 1;
nodes = (
"66 700 LINE SMOOTH",
"55 700 OFFCURVE",
"48 706 OFFCURVE",
"48 715 CURVE SMOOTH",
"48 724 OFFCURVE",
"55 730 OFFCURVE",
"66 730 CURVE SMOOTH",
"385 730 LINE SMOOTH",
"495 730 OFFCURVE",
"648 628 OFFCURVE",
"648 362 CURVE SMOOTH",
"648 70 OFFCURVE",
"492 0 OFFCURVE",
"386 0 CURVE SMOOTH",
"66 0 LINE SMOOTH",
"55 0 OFFCURVE",
"48 6 OFFCURVE",
"48 15 CURVE SMOOTH",
"48 24 OFFCURVE",
"55 30 OFFCURVE",
"66 30 CURVE SMOOTH",
"167 30 LINE",
"167 700 LINE"
);
},
{
closed = 1;
nodes = (
"55 354 OFFCURVE",
"48 360 OFFCURVE",
"48 369 CURVE SMOOTH",
"48 378 OFFCURVE",
"55 384 OFFCURVE",
"66 384 CURVE SMOOTH",
"351 384 LINE SMOOTH",
"362 384 OFFCURVE",
"369 378 OFFCURVE",
"369 369 CURVE SMOOTH",
"369 360 OFFCURVE",
"362 354 OFFCURVE",
"351 354 CURVE SMOOTH",
"66 354 LINE"
);
}
);
width = 700;
},
{
layerId = "15A46FCC-DA81-4964-B403-68213F8F3DE4";
paths = (
{
closed = 1;
nodes = (
"386 50 LINE SMOOTH",
"488 50 OFFCURVE",
"558 185 OFFCURVE",
"558 362 CURVE SMOOTH",
"558 534 OFFCURVE",
"492 680 OFFCURVE",
"385 680 CURVE",
"258 680 LINE",
"257 50 LINE"
);
},
{
closed = 1;
nodes = (
"67 680 LINE SMOOTH",
"49 680 OFFCURVE",
"38 690 OFFCURVE",
"38 705 CURVE SMOOTH",
"38 720 OFFCURVE",
"49 730 OFFCURVE",
"67 730 CURVE SMOOTH",
"385 730 LINE SMOOTH",
"495 730 OFFCURVE",
"658 628 OFFCURVE",
"658 362 CURVE SMOOTH",
"658 70 OFFCURVE",
"492 0 OFFCURVE",
"386 0 CURVE SMOOTH",
"67 0 LINE SMOOTH",
"49 0 OFFCURVE",
"38 10 OFFCURVE",
"38 25 CURVE SMOOTH",
"38 40 OFFCURVE",
"49 50 OFFCURVE",
"67 50 CURVE SMOOTH",
"157 50 LINE",
"157 680 LINE"
);
},
{
closed = 1;
nodes = (
"50 344 OFFCURVE",
"38 354 OFFCURVE",
"38 369 CURVE SMOOTH",
"38 384 OFFCURVE",
"50 394 OFFCURVE",
"65 394 CURVE SMOOTH",
"352 394 LINE SMOOTH",
"367 394 OFFCURVE",
"379 384 OFFCURVE",
"379 369 CURVE SMOOTH",
"379 354 OFFCURVE",
"367 344 OFFCURVE",
"352 344 CURVE SMOOTH",
"65 344 LINE SMOOTH"
);
}
);
width = 700;
},
{
layerId = "6A265716-979C-4B63-AB57-6A34FBA57EF3";
paths = (
{
closed = 1;
nodes = (
"376 50 LINE SMOOTH",
"478 50 OFFCURVE",
"548 185 OFFCURVE",
"548 362 CURVE SMOOTH",
"548 534 OFFCURVE",
"482 680 OFFCURVE",
"375 680 CURVE SMOOTH",
"268 680 LINE",
"267 50 LINE"
);
},
{
closed = 1;
nodes = (
"52 680 LINE SMOOTH",
"34 680 OFFCURVE",
"23 690 OFFCURVE",
"23 705 CURVE SMOOTH",
"23 720 OFFCURVE",
"34 730 OFFCURVE",
"52 730 CURVE SMOOTH",
"385 730 LINE SMOOTH",
"505 730 OFFCURVE",
"668 628 OFFCURVE",
"668 362 CURVE SMOOTH",
"668 70 OFFCURVE",
"502 0 OFFCURVE",
"386 0 CURVE SMOOTH",
"52 0 LINE SMOOTH",
"34 0 OFFCURVE",
"23 10 OFFCURVE",
"23 25 CURVE SMOOTH",
"23 40 OFFCURVE",
"34 50 OFFCURVE",
"52 50 CURVE SMOOTH",
"147 50 LINE",
"147 680 LINE"
);
},
{
closed = 1;
nodes = (
"50 344 OFFCURVE",
"38 354 OFFCURVE",
"38 369 CURVE SMOOTH",
"38 384 OFFCURVE",
"50 394 OFFCURVE",
"65 394 CURVE SMOOTH",
"352 394 LINE SMOOTH",
"367 394 OFFCURVE",
"379 384 OFFCURVE",
"379 369 CURVE SMOOTH",
"379 354 OFFCURVE",
"367 344 OFFCURVE",
"352 344 CURVE SMOOTH",
"65 344 LINE SMOOTH"
);
}
);
width = 700;
}
);
unicode = 00D0;
},
{
glyphname = E;
lastChange = "2020-09-05 13:55:28 +0000";
layers = (
{
layerId = "2C887366-8E1E-4334-B4A5-9B98F2C45AC5";
paths = (
{
closed = 1;
nodes = (
"263 354 LINE",
"366 354 LINE SMOOTH",
"432 354 OFFCURVE",
"443 315 OFFCURVE",
"447 276 CURVE SMOOTH",
"449 258 LINE SMOOTH",
"451 241 OFFCURVE",
"449 229 OFFCURVE",
"460 228 CURVE SMOOTH",
"475 227 OFFCURVE",
"474 241 OFFCURVE",
"474 258 CURVE SMOOTH",
"474 490 LINE SMOOTH",
"474 507 OFFCURVE",
"475 521 OFFCURVE",
"460 520 CURVE SMOOTH",
"449 519 OFFCURVE",
"451 507 OFFCURVE",
"449 490 CURVE SMOOTH",
"447 472 LINE SMOOTH",
"443 433 OFFCURVE",
"432 384 OFFCURVE",
"366 384 CURVE SMOOTH",
"263 384 LINE",
"263 700 LINE",
"472 700 LINE SMOOTH",
"579 700 OFFCURVE",
"583 601 OFFCURVE",
"589 550 CURVE SMOOTH",
"596 492 LINE SMOOTH",
"598 474 OFFCURVE",
"603 469 OFFCURVE",
"613 470 CURVE SMOOTH",
"622 471 OFFCURVE",
"625 476 OFFCURVE",
"624 494 CURVE SMOOTH",
"608 709 LINE SMOOTH",
"607 726 OFFCURVE",
"604 730 OFFCURVE",
"591 730 CURVE SMOOTH",
"93 730 LINE SMOOTH",
"82 730 OFFCURVE",
"75 724 OFFCURVE",
"75 715 CURVE SMOOTH",
"75 706 OFFCURVE",
"82 700 OFFCURVE",
"93 700 CURVE SMOOTH",
"183 700 LINE",
"183 30 LINE",
"93 30 LINE SMOOTH",
"82 30 OFFCURVE",
"75 24 OFFCURVE",
"75 15 CURVE SMOOTH",
"75 6 OFFCURVE",
"82 0 OFFCURVE",
"93 0 CURVE SMOOTH",
"591 0 LINE SMOOTH",
"604 0 OFFCURVE",
"607 4 OFFCURVE",
"608 21 CURVE SMOOTH",
"624 236 LINE SMOOTH",
"625 254 OFFCURVE",
"622 259 OFFCURVE",
"613 260 CURVE SMOOTH",
"603 261 OFFCURVE",
"598 256 OFFCURVE",
"596 238 CURVE SMOOTH",
"589 180 LINE SMOOTH",
"583 129 OFFCURVE",
"579 30 OFFCURVE",
"472 30 CURVE SMOOTH",
"263 30 LINE"
);
}
);
width = 700;
},
{
layerId = "15A46FCC-DA81-4964-B403-68213F8F3DE4";
paths = (
{
closed = 1;
nodes = (
"273 354 LINE",
"356 354 LINE SMOOTH",
"409 354 OFFCURVE",
"422 325 OFFCURVE",
"429 286 CURVE SMOOTH",
"434 257 LINE SMOOTH",
"437 240 OFFCURVE",
"442 228 OFFCURVE",
"459 228 CURVE SMOOTH",
"476 228 OFFCURVE",
"484 240 OFFCURVE",
"484 257 CURVE SMOOTH",
"484 491 LINE SMOOTH",
"484 508 OFFCURVE",
"476 520 OFFCURVE",
"459 520 CURVE SMOOTH",
"442 520 OFFCURVE",
"437 508 OFFCURVE",
"434 491 CURVE SMOOTH",
"429 462 LINE SMOOTH",
"422 423 OFFCURVE",
"409 404 OFFCURVE",
"356 404 CURVE SMOOTH",
"273 404 LINE",
"273 680 LINE",
"463 680 LINE SMOOTH",
"560 680 OFFCURVE",
"573 591 OFFCURVE",
"579 550 CURVE",
"583 494 LINE SMOOTH",
"584 476 OFFCURVE",
"591 464 OFFCURVE",
"609 464 CURVE SMOOTH",
"627 464 OFFCURVE",
"636 476 OFFCURVE",
"635 494 CURVE SMOOTH",
"619 699 LINE SMOOTH",
"618 716 OFFCURVE",
"610 730 OFFCURVE",
"592 730 CURVE SMOOTH",
"85 730 LINE SMOOTH",
"68 730 OFFCURVE",
"56 720 OFFCURVE",
"56 705 CURVE SMOOTH",
"56 692 OFFCURVE",
"66 681 OFFCURVE",
"85 679 CURVE SMOOTH",
"173 671 LINE",
"173 50 LINE",
"85 50 LINE SMOOTH",
"67 50 OFFCURVE",
"56 40 OFFCURVE",
"56 25 CURVE SMOOTH",
"56 10 OFFCURVE",
"67 0 OFFCURVE",
"85 0 CURVE",
"592 0 LINE",
"610 0 OFFCURVE",
"618 14 OFFCURVE",
"619 31 CURVE SMOOTH",
"635 236 LINE SMOOTH",
"636 254 OFFCURVE",
"627 266 OFFCURVE",
"609 266 CURVE SMOOTH",
"591 266 OFFCURVE",
"584 254 OFFCURVE",
"583 236 CURVE SMOOTH",
"579 180 LINE",
"573 139 OFFCURVE",
"560 52 OFFCURVE",
"463 50 CURVE",
"273 50 LINE"
);
}
);
width = 700;
},
{
layerId = "6A265716-979C-4B63-AB57-6A34FBA57EF3";
paths = (
{
closed = 1;
nodes = (
"283 344 LINE",
"356 344 LINE SMOOTH",
"409 344 OFFCURVE",
"422 315 OFFCURVE",
"429 276 CURVE SMOOTH",
"434 247 LINE SMOOTH",
"437 230 OFFCURVE",
"442 218 OFFCURVE",
"459 218 CURVE SMOOTH",
"476 218 OFFCURVE",
"484 230 OFFCURVE",
"484 247 CURVE SMOOTH",
"484 501 LINE SMOOTH",
"484 518 OFFCURVE",
"476 530 OFFCURVE",
"459 530 CURVE SMOOTH",
"442 530 OFFCURVE",
"437 518 OFFCURVE",
"434 501 CURVE SMOOTH",
"429 472 LINE SMOOTH",
"422 433 OFFCURVE",
"409 394 OFFCURVE",
"356 394 CURVE SMOOTH",
"283 394 LINE",
"283 680 LINE",
"463 680 LINE SMOOTH",
"560 678 OFFCURVE",
"573 591 OFFCURVE",
"579 550 CURVE",
"583 494 LINE SMOOTH",
"584 476 OFFCURVE",
"591 464 OFFCURVE",
"609 464 CURVE SMOOTH",
"627 464 OFFCURVE",
"636 476 OFFCURVE",
"635 494 CURVE SMOOTH",
"619 699 LINE SMOOTH",
"618 716 OFFCURVE",
"610 730 OFFCURVE",
"592 730 CURVE SMOOTH",
"70 730 LINE SMOOTH",
"53 730 OFFCURVE",
"41 720 OFFCURVE",
"41 705 CURVE SMOOTH",
"41 692 OFFCURVE",
"51 681 OFFCURVE",
"70 679 CURVE SMOOTH",
"163 671 LINE",
"163 50 LINE",
"70 50 LINE SMOOTH",
"52 50 OFFCURVE",
"41 40 OFFCURVE",
"41 25 CURVE SMOOTH",
"41 10 OFFCURVE",
"52 0 OFFCURVE",
"70 0 CURVE SMOOTH",
"592 0 LINE SMOOTH",
"610 0 OFFCURVE",
"618 14 OFFCURVE",
"619 31 CURVE SMOOTH",
"635 236 LINE SMOOTH",
"636 254 OFFCURVE",
"627 266 OFFCURVE",
"609 266 CURVE SMOOTH",
"591 266 OFFCURVE",
"584 254 OFFCURVE",
"583 236 CURVE SMOOTH",
"579 180 LINE",
"573 139 OFFCURVE",
"560 52 OFFCURVE",
"463 50 CURVE SMOOTH",
"283 50 LINE"
);
}
);
width = 700;
}
);
unicode = 0045;
},
{
glyphname = Eacute;
lastChange = "2020-09-05 13:55:45 +0000";
layers = (
{
layerId = "2C887366-8E1E-4334-B4A5-9B98F2C45AC5";
paths = (
{
closed = 1;
nodes = (
"263 354 LINE",
"366 354 LINE SMOOTH",
"432 354 OFFCURVE",
"443 315 OFFCURVE",
"447 276 CURVE SMOOTH",
"449 258 LINE SMOOTH",
"451 241 OFFCURVE",
"449 229 OFFCURVE",
"460 228 CURVE SMOOTH",
"475 227 OFFCURVE",
"474 241 OFFCURVE",
"474 258 CURVE SMOOTH",
"474 480 LINE SMOOTH",
"474 497 OFFCURVE",
"475 511 OFFCURVE",
"460 510 CURVE SMOOTH",
"449 509 OFFCURVE",
"451 497 OFFCURVE",
"449 480 CURVE SMOOTH",
"447 462 LINE SMOOTH",
"443 423 OFFCURVE",
"432 384 OFFCURVE",
"366 384 CURVE SMOOTH",
"263 384 LINE",
"263 700 LINE",
"472 700 LINE SMOOTH",
"579 700 OFFCURVE",
"583 601 OFFCURVE",
"589 550 CURVE SMOOTH",
"596 492 LINE SMOOTH",
"598 474 OFFCURVE",
"603 469 OFFCURVE",
"613 470 CURVE SMOOTH",
"622 471 OFFCURVE",
"625 476 OFFCURVE",
"624 494 CURVE SMOOTH",
"608 709 LINE SMOOTH",
"607 726 OFFCURVE",
"604 730 OFFCURVE",
"591 730 CURVE SMOOTH",
"93 730 LINE SMOOTH",
"82 730 OFFCURVE",
"75 724 OFFCURVE",
"75 715 CURVE SMOOTH",
"75 706 OFFCURVE",
"82 700 OFFCURVE",
"93 700 CURVE SMOOTH",
"183 700 LINE",
"183 30 LINE",
"93 30 LINE SMOOTH",
"82 30 OFFCURVE",
"75 24 OFFCURVE",
"75 15 CURVE SMOOTH",
"75 6 OFFCURVE",
"82 0 OFFCURVE",
"93 0 CURVE SMOOTH",
"591 0 LINE SMOOTH",
"604 0 OFFCURVE",
"607 4 OFFCURVE",
"608 21 CURVE SMOOTH",
"624 236 LINE SMOOTH",
"625 254 OFFCURVE",
"622 259 OFFCURVE",
"613 260 CURVE SMOOTH",
"603 261 OFFCURVE",
"598 256 OFFCURVE",
"596 238 CURVE SMOOTH",
"589 180 LINE SMOOTH",
"583 129 OFFCURVE",
"579 30 OFFCURVE",
"472 30 CURVE SMOOTH",
"263 30 LINE"
);
},
{
closed = 1;
nodes = (
"542 990 OFFCURVE",
"546 981 OFFCURVE",
"528 963 CURVE SMOOTH",
"351 791 LINE SMOOTH",
"340 781 OFFCURVE",
"332 778 OFFCURVE",
"326 783 CURVE SMOOTH",
"318 789 OFFCURVE",
"324 800 OFFCURVE",
"330 809 CURVE SMOOTH",
"444 972 LINE SMOOTH",
"455 987 OFFCURVE",
"458 990 OFFCURVE",
"479 990 CURVE SMOOTH",
"519 990 LINE SMOOTH"
);
}
);
width = 700;
},
{
layerId = "15A46FCC-DA81-4964-B403-68213F8F3DE4";
paths = (
{
closed = 1;
nodes = (
"273 344 LINE",
"356 344 LINE SMOOTH",
"409 344 OFFCURVE",
"422 315 OFFCURVE",
"429 276 CURVE SMOOTH",
"434 247 LINE SMOOTH",
"437 230 OFFCURVE",
"442 218 OFFCURVE",
"459 218 CURVE SMOOTH",
"476 218 OFFCURVE",
"484 230 OFFCURVE",
"484 247 CURVE SMOOTH",
"484 491 LINE SMOOTH",
"484 508 OFFCURVE",
"476 520 OFFCURVE",
"459 520 CURVE SMOOTH",
"442 520 OFFCURVE",
"437 508 OFFCURVE",
"434 491 CURVE SMOOTH",
"429 462 LINE SMOOTH",
"422 423 OFFCURVE",
"409 394 OFFCURVE",
"356 394 CURVE SMOOTH",
"273 394 LINE",
"273 680 LINE",
"463 680 LINE SMOOTH",
"560 678 OFFCURVE",
"573 591 OFFCURVE",
"579 550 CURVE",
"583 494 LINE SMOOTH",
"584 476 OFFCURVE",
"591 464 OFFCURVE",
"609 464 CURVE SMOOTH",
"627 464 OFFCURVE",
"636 476 OFFCURVE",
"635 494 CURVE SMOOTH",
"619 699 LINE SMOOTH",
"618 716 OFFCURVE",
"610 730 OFFCURVE",
"592 730 CURVE SMOOTH",
"85 730 LINE SMOOTH",
"68 730 OFFCURVE",
"56 720 OFFCURVE",
"56 705 CURVE SMOOTH",
"56 692 OFFCURVE",
"66 681 OFFCURVE",
"85 679 CURVE SMOOTH",
"173 671 LINE",
"173 40 LINE",
"85 40 LINE SMOOTH",
"67 40 OFFCURVE",
"56 30 OFFCURVE",
"56 15 CURVE SMOOTH",
"56 0 OFFCURVE",
"67 -10 OFFCURVE",
"85 -10 CURVE",
"592 -10 LINE",
"610 -10 OFFCURVE",
"618 4 OFFCURVE",
"619 21 CURVE SMOOTH",
"635 226 LINE SMOOTH",
"636 244 OFFCURVE",
"627 256 OFFCURVE",
"609 256 CURVE SMOOTH",
"591 256 OFFCURVE",
"584 244 OFFCURVE",
"583 226 CURVE SMOOTH",
"579 170 LINE",
"573 129 OFFCURVE",
"560 42 OFFCURVE",
"463 40 CURVE",
"273 40 LINE"
);
},
{
closed = 1;
nodes = (
"556 1000 OFFCURVE",
"561 982 OFFCURVE",
"531 953 CURVE SMOOTH",
"354 783 LINE SMOOTH",
"343 773 OFFCURVE",
"330 769 OFFCURVE",
"319 776 CURVE SMOOTH",
"308 783 OFFCURVE",
"309 797 OFFCURVE",
"315 806 CURVE SMOOTH",
"439 980 LINE SMOOTH",
"453 1000 OFFCURVE",
"467 1000 OFFCURVE",
"498 1000 CURVE SMOOTH",
"525 1000 LINE SMOOTH"
);
}
);
width = 700;
},
{
layerId = "6A265716-979C-4B63-AB57-6A34FBA57EF3";
paths = (
{
closed = 1;
nodes = (
"283 344 LINE",
"356 344 LINE SMOOTH",
"409 344 OFFCURVE",
"422 315 OFFCURVE",
"429 276 CURVE SMOOTH",
"434 247 LINE SMOOTH",
"437 230 OFFCURVE",
"442 218 OFFCURVE",
"459 218 CURVE SMOOTH",
"476 218 OFFCURVE",
"484 230 OFFCURVE",
"484 247 CURVE SMOOTH",
"484 501 LINE SMOOTH",
"484 518 OFFCURVE",
"476 530 OFFCURVE",
"459 530 CURVE SMOOTH",
"442 530 OFFCURVE",
"437 518 OFFCURVE",
"434 501 CURVE SMOOTH",
"429 472 LINE SMOOTH",
"422 433 OFFCURVE",
"409 394 OFFCURVE",
"356 394 CURVE SMOOTH",
"283 394 LINE",
"283 680 LINE",
"463 680 LINE SMOOTH",
"560 678 OFFCURVE",
"573 591 OFFCURVE",
"579 550 CURVE",
"583 494 LINE SMOOTH",
"584 476 OFFCURVE",
"591 464 OFFCURVE",
"609 464 CURVE SMOOTH",
"627 464 OFFCURVE",
"636 476 OFFCURVE",
"635 494 CURVE SMOOTH",
"619 699 LINE SMOOTH",
"618 716 OFFCURVE",
"610 730 OFFCURVE",
"592 730 CURVE SMOOTH",
"70 730 LINE SMOOTH",
"53 730 OFFCURVE",
"41 720 OFFCURVE",
"41 705 CURVE SMOOTH",
"41 692 OFFCURVE",
"51 681 OFFCURVE",
"70 679 CURVE SMOOTH",
"163 671 LINE",
"163 50 LINE",
"70 50 LINE SMOOTH",
"52 50 OFFCURVE",
"41 40 OFFCURVE",
"41 25 CURVE SMOOTH",
"41 10 OFFCURVE",
"52 0 OFFCURVE",
"70 0 CURVE SMOOTH",
"592 0 LINE SMOOTH",
"610 0 OFFCURVE",
"618 14 OFFCURVE",
"619 31 CURVE SMOOTH",
"635 236 LINE SMOOTH",
"636 254 OFFCURVE",
"627 266 OFFCURVE",
"609 266 CURVE SMOOTH",
"591 266 OFFCURVE",
"584 254 OFFCURVE",
"583 236 CURVE SMOOTH",
"579 180 LINE",
"573 139 OFFCURVE",
"560 52 OFFCURVE",
"463 50 CURVE SMOOTH",
"283 50 LINE"
);
},
{
closed = 1;
nodes = (
"566 1000 OFFCURVE",
"571 982 OFFCURVE",
"541 953 CURVE SMOOTH",
"364 783 LINE SMOOTH",
"351 770 OFFCURVE",
"337 763 OFFCURVE",
"320 767 CURVE SMOOTH",
"299 772 OFFCURVE",
"297 796 OFFCURVE",
"309 812 CURVE SMOOTH",
"429 980 LINE SMOOTH",
"443 1000 OFFCURVE",
"457 1000 OFFCURVE",
"488 1000 CURVE SMOOTH",
"535 1000 LINE SMOOTH"
);
}
);
width = 700;
}
);
unicode = 00C9;
},
{
glyphname = Ecircumflex;
lastChange = "2021-04-06 14:02:29 +0000";
layers = (
{
layerId = "2C887366-8E1E-4334-B4A5-9B98F2C45AC5";
paths = (
{
closed = 1;
nodes = (
"263 354 LINE",
"366 354 LINE SMOOTH",
"432 354 OFFCURVE",
"443 315 OFFCURVE",
"447 276 CURVE SMOOTH",
"449 258 LINE SMOOTH",
"451 241 OFFCURVE",
"449 229 OFFCURVE",
"460 228 CURVE SMOOTH",
"475 227 OFFCURVE",
"474 241 OFFCURVE",
"474 258 CURVE SMOOTH",
"474 480 LINE SMOOTH",
"474 497 OFFCURVE",
"475 511 OFFCURVE",
"460 510 CURVE SMOOTH",
"449 509 OFFCURVE",
"451 497 OFFCURVE",
"449 480 CURVE SMOOTH",
"447 462 LINE SMOOTH",
"443 423 OFFCURVE",
"432 384 OFFCURVE",
"366 384 CURVE SMOOTH",
"263 384 LINE",
"263 700 LINE",
"472 700 LINE SMOOTH",
"579 700 OFFCURVE",
"583 601 OFFCURVE",
"589 550 CURVE SMOOTH",
"596 492 LINE SMOOTH",
"598 474 OFFCURVE",
"603 469 OFFCURVE",
"613 470 CURVE SMOOTH",
"622 471 OFFCURVE",
"625 476 OFFCURVE",
"624 494 CURVE SMOOTH",
"608 709 LINE SMOOTH",
"607 726 OFFCURVE",
"604 730 OFFCURVE",
"591 730 CURVE SMOOTH",
"93 730 LINE SMOOTH",
"82 730 OFFCURVE",
"75 724 OFFCURVE",
"75 715 CURVE SMOOTH",
"75 706 OFFCURVE",
"82 700 OFFCURVE",
"93 700 CURVE SMOOTH",
"183 700 LINE",
"183 30 LINE",
"93 30 LINE SMOOTH",
"82 30 OFFCURVE",
"75 24 OFFCURVE",
"75 15 CURVE SMOOTH",
"75 6 OFFCURVE",
"82 0 OFFCURVE",
"93 0 CURVE SMOOTH",
"591 0 LINE SMOOTH",
"604 0 OFFCURVE",
"607 4 OFFCURVE",
"608 21 CURVE SMOOTH",
"624 236 LINE SMOOTH",
"625 254 OFFCURVE",
"622 259 OFFCURVE",
"613 260 CURVE SMOOTH",
"603 261 OFFCURVE",
"598 256 OFFCURVE",
"596 238 CURVE SMOOTH",
"589 180 LINE SMOOTH",
"583 129 OFFCURVE",
"579 30 OFFCURVE",
"472 30 CURVE SMOOTH",
"263 30 LINE"
);
},
{
closed = 1;
nodes = (
"346 990 OFFCURVE",
"340 985 OFFCURVE",
"334 979 CURVE SMOOTH",
"175 806 LINE SMOOTH",
"162 792 OFFCURVE",
"162 789 OFFCURVE",
"164 785 CURVE SMOOTH",
"166 781 OFFCURVE",
"172 781 OFFCURVE",
"196 781 CURVE SMOOTH",
"228 781 LINE SMOOTH",
"248 781 OFFCURVE",
"254 780 OFFCURVE",
"260 791 CURVE SMOOTH",
"356 960 LINE",
"453 791 LINE SMOOTH",
"459 780 OFFCURVE",
"465 781 OFFCURVE",
"485 781 CURVE SMOOTH",
"517 781 LINE SMOOTH",
"541 781 OFFCURVE",
"547 781 OFFCURVE",
"549 785 CURVE SMOOTH",
"551 789 OFFCURVE",
"551 792 OFFCURVE",
"538 806 CURVE SMOOTH",
"379 979 LINE SMOOTH",
"373 985 OFFCURVE",
"367 990 OFFCURVE",
"356 990 CURVE SMOOTH"
);
}
);
width = 700;
},
{
layerId = "15A46FCC-DA81-4964-B403-68213F8F3DE4";
paths = (
{
closed = 1;
nodes = (
"273 344 LINE",
"356 344 LINE SMOOTH",
"409 344 OFFCURVE",
"422 315 OFFCURVE",
"429 276 CURVE SMOOTH",
"434 247 LINE SMOOTH",
"437 230 OFFCURVE",
"442 218 OFFCURVE",
"459 218 CURVE SMOOTH",
"476 218 OFFCURVE",
"484 230 OFFCURVE",
"484 247 CURVE SMOOTH",
"484 491 LINE SMOOTH",
"484 508 OFFCURVE",
"476 520 OFFCURVE",
"459 520 CURVE SMOOTH",
"442 520 OFFCURVE",
"437 508 OFFCURVE",
"434 491 CURVE SMOOTH",
"429 462 LINE SMOOTH",
"422 423 OFFCURVE",
"409 394 OFFCURVE",
"356 394 CURVE SMOOTH",
"273 394 LINE",
"273 680 LINE",
"463 680 LINE SMOOTH",
"560 678 OFFCURVE",
"573 591 OFFCURVE",
"579 550 CURVE",
"583 494 LINE SMOOTH",
"584 476 OFFCURVE",
"591 464 OFFCURVE",
"609 464 CURVE SMOOTH",
"627 464 OFFCURVE",
"636 476 OFFCURVE",
"635 494 CURVE SMOOTH",
"619 699 LINE SMOOTH",
"618 716 OFFCURVE",
"610 730 OFFCURVE",
"592 730 CURVE SMOOTH",
"85 730 LINE SMOOTH",
"68 730 OFFCURVE",
"56 720 OFFCURVE",
"56 705 CURVE SMOOTH",
"56 692 OFFCURVE",
"66 681 OFFCURVE",
"85 679 CURVE SMOOTH",
"173 671 LINE",
"173 40 LINE",
"85 40 LINE SMOOTH",
"67 40 OFFCURVE",
"56 30 OFFCURVE",
"56 15 CURVE SMOOTH",
"56 0 OFFCURVE",
"67 -10 OFFCURVE",
"85 -10 CURVE",
"592 -10 LINE",
"610 -10 OFFCURVE",
"618 4 OFFCURVE",
"619 21 CURVE SMOOTH",
"635 226 LINE SMOOTH",
"636 244 OFFCURVE",
"627 256 OFFCURVE",
"609 256 CURVE SMOOTH",
"591 256 OFFCURVE",
"584 244 OFFCURVE",
"583 226 CURVE SMOOTH",
"579 170 LINE",
"573 129 OFFCURVE",
"560 42 OFFCURVE",
"463 40 CURVE",
"273 40 LINE"
);
},
{
closed = 1;
nodes = (
"346 1000 OFFCURVE",
"339 995 OFFCURVE",
"334 989 CURVE SMOOTH",
"173 809 LINE SMOOTH",
"160 795 OFFCURVE",
"154 790 OFFCURVE",
"159 781 CURVE SMOOTH",
"163 774 OFFCURVE",
"172 772 OFFCURVE",
"196 772 CURVE SMOOTH",
"231 772 LINE SMOOTH",
"251 772 OFFCURVE",
"259 772 OFFCURVE",
"268 786 CURVE SMOOTH",
"356 929 LINE",
"445 786 LINE SMOOTH",
"453 774 OFFCURVE",
"462 772 OFFCURVE",
"483 772 CURVE SMOOTH",
"518 772 LINE SMOOTH",
"541 772 OFFCURVE",
"551 773 OFFCURVE",
"554 781 CURVE SMOOTH",
"558 791 OFFCURVE",
"553 795 OFFCURVE",
"540 809 CURVE SMOOTH",
"379 989 LINE SMOOTH",
"375 993 OFFCURVE",
"367 1000 OFFCURVE",
"356 1000 CURVE SMOOTH"
);
}
);
width = 700;
},
{
layerId = "6A265716-979C-4B63-AB57-6A34FBA57EF3";
paths = (
{
closed = 1;
nodes = (
"283 344 LINE",
"356 344 LINE SMOOTH",
"409 344 OFFCURVE",
"422 315 OFFCURVE",
"429 276 CURVE SMOOTH",
"434 247 LINE SMOOTH",
"437 230 OFFCURVE",
"442 218 OFFCURVE",
"459 218 CURVE SMOOTH",
"476 218 OFFCURVE",
"484 230 OFFCURVE",
"484 247 CURVE SMOOTH",
"484 501 LINE SMOOTH",
"484 518 OFFCURVE",
"476 530 OFFCURVE",
"459 530 CURVE SMOOTH",
"442 530 OFFCURVE",
"437 518 OFFCURVE",
"434 501 CURVE SMOOTH",
"429 472 LINE SMOOTH",
"422 433 OFFCURVE",
"409 394 OFFCURVE",
"356 394 CURVE SMOOTH",
"283 394 LINE",
"283 680 LINE",
"463 680 LINE SMOOTH",
"560 678 OFFCURVE",
"573 591 OFFCURVE",
"579 550 CURVE",
"583 494 LINE SMOOTH",
"584 476 OFFCURVE",
"591 464 OFFCURVE",
"609 464 CURVE SMOOTH",
"627 464 OFFCURVE",
"636 476 OFFCURVE",
"635 494 CURVE SMOOTH",
"619 699 LINE SMOOTH",
"618 716 OFFCURVE",
"610 730 OFFCURVE",
"592 730 CURVE SMOOTH",
"70 730 LINE SMOOTH",
"53 730 OFFCURVE",
"41 720 OFFCURVE",
"41 705 CURVE SMOOTH",
"41 692 OFFCURVE",
"51 681 OFFCURVE",
"70 679 CURVE SMOOTH",
"163 671 LINE",
"163 50 LINE",
"70 50 LINE SMOOTH",
"52 50 OFFCURVE",
"41 40 OFFCURVE",
"41 25 CURVE SMOOTH",
"41 10 OFFCURVE",
"52 0 OFFCURVE",
"70 0 CURVE SMOOTH",
"592 0 LINE SMOOTH",
"610 0 OFFCURVE",
"618 14 OFFCURVE",
"619 31 CURVE SMOOTH",
"635 236 LINE SMOOTH",
"636 254 OFFCURVE",
"627 266 OFFCURVE",
"609 266 CURVE SMOOTH",
"591 266 OFFCURVE",
"584 254 OFFCURVE",
"583 236 CURVE SMOOTH",
"579 180 LINE",
"573 139 OFFCURVE",
"560 52 OFFCURVE",
"463 50 CURVE SMOOTH",
"283 50 LINE"
);
},
{
closed = 1;
nodes = (
"335 1000 OFFCURVE",
"328 995 OFFCURVE",
"323 989 CURVE",
"152 809 LINE SMOOTH",
"134 790 OFFCURVE",
"133 780 OFFCURVE",
"138 771 CURVE SMOOTH",
"142 764 OFFCURVE",
"151 762 OFFCURVE",
"175 762 CURVE SMOOTH",
"245 762 LINE SMOOTH",
"265 762 OFFCURVE",
"275 762 OFFCURVE",
"282 776 CURVE SMOOTH",
"355 924 LINE",
"429 786 LINE SMOOTH",
"440 765 OFFCURVE",
"446 762 OFFCURVE",
"467 762 CURVE SMOOTH",
"537 762 LINE SMOOTH",
"560 762 OFFCURVE",
"570 763 OFFCURVE",
"573 771 CURVE SMOOTH",
"577 781 OFFCURVE",
"572 795 OFFCURVE",
"559 809 CURVE SMOOTH",
"388 989 LINE SMOOTH",
"384 993 OFFCURVE",
"376 1000 OFFCURVE",
"355 1000 CURVE SMOOTH"
);
}
);
width = 700;
}
);
unicode = 00CA;
},
{
glyphname = Edieresis;
lastChange = "2020-09-05 13:58:01 +0000";
layers = (
{
layerId = "2C887366-8E1E-4334-B4A5-9B98F2C45AC5";
paths = (
{
closed = 1;
nodes = (
"263 354 LINE",
"366 354 LINE SMOOTH",
"432 354 OFFCURVE",
"443 315 OFFCURVE",
"447 276 CURVE SMOOTH",
"449 258 LINE SMOOTH",
"451 241 OFFCURVE",
"449 229 OFFCURVE",
"460 228 CURVE SMOOTH",
"475 227 OFFCURVE",
"474 241 OFFCURVE",
"474 258 CURVE SMOOTH",
"474 480 LINE SMOOTH",
"474 497 OFFCURVE",
"475 511 OFFCURVE",
"460 510 CURVE SMOOTH",
"449 509 OFFCURVE",
"451 497 OFFCURVE",
"449 480 CURVE SMOOTH",
"447 462 LINE SMOOTH",
"443 423 OFFCURVE",
"432 384 OFFCURVE",
"366 384 CURVE SMOOTH",
"263 384 LINE",
"263 700 LINE",
"472 700 LINE SMOOTH",
"579 700 OFFCURVE",
"583 601 OFFCURVE",
"589 550 CURVE SMOOTH",
"596 492 LINE SMOOTH",
"598 474 OFFCURVE",
"603 469 OFFCURVE",
"613 470 CURVE SMOOTH",
"622 471 OFFCURVE",
"625 476 OFFCURVE",
"624 494 CURVE SMOOTH",
"608 709 LINE SMOOTH",
"607 726 OFFCURVE",
"604 730 OFFCURVE",
"591 730 CURVE SMOOTH",
"93 730 LINE SMOOTH",
"82 730 OFFCURVE",
"75 724 OFFCURVE",
"75 715 CURVE SMOOTH",
"75 706 OFFCURVE",
"82 700 OFFCURVE",
"93 700 CURVE SMOOTH",
"183 700 LINE",
"183 30 LINE",
"93 30 LINE SMOOTH",
"82 30 OFFCURVE",
"75 24 OFFCURVE",
"75 15 CURVE SMOOTH",
"75 6 OFFCURVE",
"82 0 OFFCURVE",
"93 0 CURVE SMOOTH",
"591 0 LINE SMOOTH",
"604 0 OFFCURVE",
"607 4 OFFCURVE",
"608 21 CURVE SMOOTH",
"624 236 LINE SMOOTH",
"625 254 OFFCURVE",
"622 259 OFFCURVE",
"613 260 CURVE SMOOTH",
"603 261 OFFCURVE",
"598 256 OFFCURVE",
"596 238 CURVE SMOOTH",
"589 180 LINE SMOOTH",
"583 129 OFFCURVE",
"579 30 OFFCURVE",
"472 30 CURVE SMOOTH",
"263 30 LINE"
);
},
{
closed = 1;
nodes = (
"264 817 OFFCURVE",
"288 839 OFFCURVE",
"288 867 CURVE SMOOTH",
"288 896 OFFCURVE",
"264 918 OFFCURVE",
"235 918 CURVE SMOOTH",
"207 918 OFFCURVE",
"183 896 OFFCURVE",
"183 867 CURVE SMOOTH",
"183 839 OFFCURVE",
"207 817 OFFCURVE",
"235 817 CURVE SMOOTH"
);
},
{
closed = 1;
nodes = (
"495 817 OFFCURVE",
"519 839 OFFCURVE",
"519 867 CURVE SMOOTH",
"519 896 OFFCURVE",
"495 918 OFFCURVE",
"466 918 CURVE SMOOTH",
"437 918 OFFCURVE",
"413 896 OFFCURVE",
"413 867 CURVE SMOOTH",
"413 839 OFFCURVE",
"437 817 OFFCURVE",
"466 817 CURVE SMOOTH"
);
}
);
width = 700;
},
{
layerId = "15A46FCC-DA81-4964-B403-68213F8F3DE4";
paths = (
{
closed = 1;
nodes = (
"273 344 LINE",
"356 344 LINE SMOOTH",
"409 344 OFFCURVE",
"422 315 OFFCURVE",
"429 276 CURVE SMOOTH",
"434 247 LINE SMOOTH",
"437 230 OFFCURVE",
"442 218 OFFCURVE",
"459 218 CURVE SMOOTH",
"476 218 OFFCURVE",
"484 230 OFFCURVE",
"484 247 CURVE SMOOTH",
"484 491 LINE SMOOTH",
"484 508 OFFCURVE",
"476 520 OFFCURVE",
"459 520 CURVE SMOOTH",
"442 520 OFFCURVE",
"437 508 OFFCURVE",
"434 491 CURVE SMOOTH",
"429 462 LINE SMOOTH",
"422 423 OFFCURVE",
"409 394 OFFCURVE",
"356 394 CURVE SMOOTH",
"273 394 LINE",
"273 680 LINE",
"463 680 LINE SMOOTH",
"560 678 OFFCURVE",
"573 591 OFFCURVE",
"579 550 CURVE",
"583 494 LINE SMOOTH",
"584 476 OFFCURVE",
"591 464 OFFCURVE",
"609 464 CURVE SMOOTH",
"627 464 OFFCURVE",
"636 476 OFFCURVE",
"635 494 CURVE SMOOTH",
"619 699 LINE SMOOTH",
"618 716 OFFCURVE",
"610 730 OFFCURVE",
"592 730 CURVE SMOOTH",
"85 730 LINE SMOOTH",
"68 730 OFFCURVE",
"56 720 OFFCURVE",
"56 705 CURVE SMOOTH",
"56 692 OFFCURVE",
"66 681 OFFCURVE",
"85 679 CURVE SMOOTH",
"173 671 LINE",
"173 40 LINE",
"85 40 LINE SMOOTH",
"67 40 OFFCURVE",
"56 30 OFFCURVE",
"56 15 CURVE SMOOTH",
"56 0 OFFCURVE",
"67 -10 OFFCURVE",
"85 -10 CURVE",
"592 -10 LINE",
"610 -10 OFFCURVE",
"618 4 OFFCURVE",
"619 21 CURVE SMOOTH",
"635 226 LINE SMOOTH",
"636 244 OFFCURVE",
"627 256 OFFCURVE",
"609 256 CURVE SMOOTH",
"591 256 OFFCURVE",
"584 244 OFFCURVE",
"583 226 CURVE SMOOTH",
"579 170 LINE",
"573 129 OFFCURVE",
"560 42 OFFCURVE",
"463 40 CURVE",
"273 40 LINE"
);
},
{
closed = 1;
nodes = (
"269 809 OFFCURVE",
"297 834 OFFCURVE",
"297 868 CURVE SMOOTH",
"297 902 OFFCURVE",
"269 927 OFFCURVE",
"235 927 CURVE SMOOTH",
"201 927 OFFCURVE",
"173 902 OFFCURVE",
"173 868 CURVE SMOOTH",
"173 834 OFFCURVE",
"201 809 OFFCURVE",
"235 809 CURVE SMOOTH"
);
},
{
closed = 1;
nodes = (
"500 809 OFFCURVE",
"528 834 OFFCURVE",
"528 868 CURVE SMOOTH",
"528 902 OFFCURVE",
"500 927 OFFCURVE",
"466 927 CURVE SMOOTH",
"432 927 OFFCURVE",
"404 902 OFFCURVE",
"404 868 CURVE SMOOTH",
"404 834 OFFCURVE",
"432 809 OFFCURVE",
"466 809 CURVE SMOOTH"
);
}
);
width = 700;
},
{
layerId = "6A265716-979C-4B63-AB57-6A34FBA57EF3";
paths = (
{
closed = 1;
nodes = (
"283 344 LINE",
"356 344 LINE SMOOTH",
"409 344 OFFCURVE",
"422 315 OFFCURVE",
"429 276 CURVE SMOOTH",
"434 247 LINE SMOOTH",
"437 230 OFFCURVE",
"442 218 OFFCURVE",
"459 218 CURVE SMOOTH",
"476 218 OFFCURVE",
"484 230 OFFCURVE",
"484 247 CURVE SMOOTH",
"484 501 LINE SMOOTH",
"484 518 OFFCURVE",
"476 530 OFFCURVE",
"459 530 CURVE SMOOTH",
"442 530 OFFCURVE",
"437 518 OFFCURVE",
"434 501 CURVE SMOOTH",
"429 472 LINE SMOOTH",
"422 433 OFFCURVE",
"409 394 OFFCURVE",
"356 394 CURVE SMOOTH",
"283 394 LINE",
"283 680 LINE",
"463 680 LINE SMOOTH",
"560 678 OFFCURVE",
"573 591 OFFCURVE",
"579 550 CURVE",
"583 494 LINE SMOOTH",
"584 476 OFFCURVE",
"591 464 OFFCURVE",
"609 464 CURVE SMOOTH",
"627 464 OFFCURVE",
"636 476 OFFCURVE",
"635 494 CURVE SMOOTH",
"619 699 LINE SMOOTH",
"618 716 OFFCURVE",
"610 730 OFFCURVE",
"592 730 CURVE SMOOTH",
"70 730 LINE SMOOTH",
"53 730 OFFCURVE",
"41 720 OFFCURVE",
"41 705 CURVE SMOOTH",
"41 692 OFFCURVE",
"51 681 OFFCURVE",
"70 679 CURVE SMOOTH",
"163 671 LINE",
"163 50 LINE",
"70 50 LINE SMOOTH",
"52 50 OFFCURVE",
"41 40 OFFCURVE",
"41 25 CURVE SMOOTH",
"41 10 OFFCURVE",
"52 0 OFFCURVE",
"70 0 CURVE SMOOTH",
"592 0 LINE SMOOTH",
"610 0 OFFCURVE",
"618 14 OFFCURVE",
"619 31 CURVE SMOOTH",
"635 236 LINE SMOOTH",
"636 254 OFFCURVE",
"627 266 OFFCURVE",
"609 266 CURVE SMOOTH",
"591 266 OFFCURVE",
"584 254 OFFCURVE",
"583 236 CURVE SMOOTH",
"579 180 LINE",
"573 139 OFFCURVE",
"560 52 OFFCURVE",
"463 50 CURVE SMOOTH",
"283 50 LINE"
);
},
{
closed = 1;
nodes = (
"273 803 OFFCURVE",
"303 831 OFFCURVE",
"303 868 CURVE SMOOTH",
"303 905 OFFCURVE",
"273 933 OFFCURVE",
"235 933 CURVE SMOOTH",
"198 933 OFFCURVE",
"167 905 OFFCURVE",
"167 868 CURVE SMOOTH",
"167 831 OFFCURVE",
"198 803 OFFCURVE",
"235 803 CURVE SMOOTH"
);
},
{
closed = 1;
nodes = (
"504 803 OFFCURVE",
"535 831 OFFCURVE",
"535 868 CURVE SMOOTH",
"535 905 OFFCURVE",
"504 933 OFFCURVE",
"466 933 CURVE SMOOTH",
"429 933 OFFCURVE",
"398 905 OFFCURVE",
"398 868 CURVE SMOOTH",
"398 831 OFFCURVE",
"429 803 OFFCURVE",
"466 803 CURVE SMOOTH"
);
}
);
width = 700;
}
);
unicode = 00CB;
},
{
glyphname = Egrave;
lastChange = "2020-09-05 13:57:30 +0000";
layers = (
{
layerId = "2C887366-8E1E-4334-B4A5-9B98F2C45AC5";
paths = (
{
closed = 1;
nodes = (
"263 354 LINE",
"366 354 LINE SMOOTH",
"432 354 OFFCURVE",
"443 315 OFFCURVE",
"447 276 CURVE SMOOTH",
"449 258 LINE SMOOTH",
"451 241 OFFCURVE",
"449 229 OFFCURVE",
"460 228 CURVE SMOOTH",
"475 227 OFFCURVE",
"474 241 OFFCURVE",
"474 258 CURVE SMOOTH",
"474 480 LINE SMOOTH",
"474 497 OFFCURVE",
"475 511 OFFCURVE",
"460 510 CURVE SMOOTH",
"449 509 OFFCURVE",
"451 497 OFFCURVE",
"449 480 CURVE SMOOTH",
"447 462 LINE SMOOTH",
"443 423 OFFCURVE",
"432 384 OFFCURVE",
"366 384 CURVE SMOOTH",
"263 384 LINE",
"263 700 LINE",
"472 700 LINE SMOOTH",
"579 700 OFFCURVE",
"583 601 OFFCURVE",
"589 550 CURVE SMOOTH",
"596 492 LINE SMOOTH",
"598 474 OFFCURVE",
"603 469 OFFCURVE",
"613 470 CURVE SMOOTH",
"622 471 OFFCURVE",
"625 476 OFFCURVE",
"624 494 CURVE SMOOTH",
"608 709 LINE SMOOTH",
"607 726 OFFCURVE",
"604 730 OFFCURVE",
"591 730 CURVE SMOOTH",
"93 730 LINE SMOOTH",
"82 730 OFFCURVE",
"75 724 OFFCURVE",
"75 715 CURVE SMOOTH",
"75 706 OFFCURVE",
"82 700 OFFCURVE",
"93 700 CURVE SMOOTH",
"183 700 LINE",
"183 30 LINE",
"93 30 LINE SMOOTH",
"82 30 OFFCURVE",
"75 24 OFFCURVE",
"75 15 CURVE SMOOTH",
"75 6 OFFCURVE",
"82 0 OFFCURVE",
"93 0 CURVE SMOOTH",
"591 0 LINE SMOOTH",
"604 0 OFFCURVE",
"607 4 OFFCURVE",
"608 21 CURVE SMOOTH",
"624 236 LINE SMOOTH",
"625 254 OFFCURVE",
"622 259 OFFCURVE",
"613 260 CURVE SMOOTH",
"603 261 OFFCURVE",
"598 256 OFFCURVE",
"596 238 CURVE SMOOTH",
"589 180 LINE SMOOTH",
"583 129 OFFCURVE",
"579 30 OFFCURVE",
"472 30 CURVE SMOOTH",
"263 30 LINE"
);
},
{
closed = 1;
nodes = (
"253 990 LINE SMOOTH",
"274 990 OFFCURVE",
"277 987 OFFCURVE",
"288 972 CURVE SMOOTH",
"402 809 LINE SMOOTH",
"408 800 OFFCURVE",
"414 789 OFFCURVE",
"406 783 CURVE SMOOTH",
"400 778 OFFCURVE",
"392 781 OFFCURVE",
"381 791 CURVE SMOOTH",
"204 963 LINE SMOOTH",
"186 981 OFFCURVE",
"190 990 OFFCURVE",
"213 990 CURVE SMOOTH"
);
}
);
width = 700;
},
{
layerId = "15A46FCC-DA81-4964-B403-68213F8F3DE4";
paths = (
{
closed = 1;
nodes = (
"273 344 LINE",
"356 344 LINE SMOOTH",
"409 344 OFFCURVE",
"422 315 OFFCURVE",
"429 276 CURVE SMOOTH",
"434 247 LINE SMOOTH",
"437 230 OFFCURVE",
"442 218 OFFCURVE",
"459 218 CURVE SMOOTH",
"476 218 OFFCURVE",
"484 230 OFFCURVE",
"484 247 CURVE SMOOTH",
"484 491 LINE SMOOTH",
"484 508 OFFCURVE",
"476 520 OFFCURVE",
"459 520 CURVE SMOOTH",
"442 520 OFFCURVE",
"437 508 OFFCURVE",
"434 491 CURVE SMOOTH",
"429 462 LINE SMOOTH",
"422 423 OFFCURVE",
"409 394 OFFCURVE",
"356 394 CURVE SMOOTH",
"273 394 LINE",
"273 680 LINE",
"463 680 LINE SMOOTH",
"560 678 OFFCURVE",
"573 591 OFFCURVE",
"579 550 CURVE",
"583 494 LINE SMOOTH",
"584 476 OFFCURVE",
"591 464 OFFCURVE",
"609 464 CURVE SMOOTH",
"627 464 OFFCURVE",
"636 476 OFFCURVE",
"635 494 CURVE SMOOTH",
"619 699 LINE SMOOTH",
"618 716 OFFCURVE",
"610 730 OFFCURVE",
"592 730 CURVE SMOOTH",
"85 730 LINE SMOOTH",
"68 730 OFFCURVE",
"56 720 OFFCURVE",
"56 705 CURVE SMOOTH",
"56 692 OFFCURVE",
"66 681 OFFCURVE",
"85 679 CURVE SMOOTH",
"173 671 LINE",
"173 40 LINE",
"85 40 LINE SMOOTH",
"67 40 OFFCURVE",
"56 30 OFFCURVE",
"56 15 CURVE SMOOTH",
"56 0 OFFCURVE",
"67 -10 OFFCURVE",
"85 -10 CURVE",
"592 -10 LINE",
"610 -10 OFFCURVE",
"618 4 OFFCURVE",
"619 21 CURVE SMOOTH",
"635 226 LINE SMOOTH",
"636 244 OFFCURVE",
"627 256 OFFCURVE",
"609 256 CURVE SMOOTH",
"591 256 OFFCURVE",
"584 244 OFFCURVE",
"583 226 CURVE SMOOTH",
"579 170 LINE",
"573 129 OFFCURVE",
"560 42 OFFCURVE",
"463 40 CURVE",
"273 40 LINE"
);
},
{
closed = 1;
nodes = (
"233 1000 LINE SMOOTH",
"264 1000 OFFCURVE",
"278 1000 OFFCURVE",
"292 980 CURVE SMOOTH",
"416 806 LINE SMOOTH",
"422 797 OFFCURVE",
"423 783 OFFCURVE",
"412 776 CURVE SMOOTH",
"401 769 OFFCURVE",
"388 773 OFFCURVE",
"377 783 CURVE SMOOTH",
"200 953 LINE SMOOTH",
"170 982 OFFCURVE",
"175 1000 OFFCURVE",
"206 1000 CURVE SMOOTH"
);
}
);
width = 700;
},
{
layerId = "6A265716-979C-4B63-AB57-6A34FBA57EF3";
paths = (
{
closed = 1;
nodes = (
"283 344 LINE",
"356 344 LINE SMOOTH",
"409 344 OFFCURVE",
"422 315 OFFCURVE",
"429 276 CURVE SMOOTH",
"434 247 LINE SMOOTH",
"437 230 OFFCURVE",
"442 218 OFFCURVE",
"459 218 CURVE SMOOTH",
"476 218 OFFCURVE",
"484 230 OFFCURVE",
"484 247 CURVE SMOOTH",
"484 501 LINE SMOOTH",
"484 518 OFFCURVE",
"476 530 OFFCURVE",
"459 530 CURVE SMOOTH",
"442 530 OFFCURVE",
"437 518 OFFCURVE",
"434 501 CURVE SMOOTH",
"429 472 LINE SMOOTH",
"422 433 OFFCURVE",
"409 394 OFFCURVE",
"356 394 CURVE SMOOTH",
"283 394 LINE",
"283 680 LINE",
"463 680 LINE SMOOTH",
"560 678 OFFCURVE",
"573 591 OFFCURVE",
"579 550 CURVE",
"583 494 LINE SMOOTH",
"584 476 OFFCURVE",
"591 464 OFFCURVE",
"609 464 CURVE SMOOTH",
"627 464 OFFCURVE",
"636 476 OFFCURVE",
"635 494 CURVE SMOOTH",
"619 699 LINE SMOOTH",
"618 716 OFFCURVE",
"610 730 OFFCURVE",
"592 730 CURVE SMOOTH",
"70 730 LINE SMOOTH",
"53 730 OFFCURVE",
"41 720 OFFCURVE",
"41 705 CURVE SMOOTH",
"41 692 OFFCURVE",
"51 681 OFFCURVE",
"70 679 CURVE SMOOTH",
"163 671 LINE",
"163 50 LINE",
"70 50 LINE SMOOTH",
"52 50 OFFCURVE",
"41 40 OFFCURVE",
"41 25 CURVE SMOOTH",
"41 10 OFFCURVE",
"52 0 OFFCURVE",
"70 0 CURVE SMOOTH",
"592 0 LINE SMOOTH",
"610 0 OFFCURVE",
"618 14 OFFCURVE",
"619 31 CURVE SMOOTH",
"635 236 LINE SMOOTH",
"636 254 OFFCURVE",
"627 266 OFFCURVE",
"609 266 CURVE SMOOTH",
"591 266 OFFCURVE",
"584 254 OFFCURVE",
"583 236 CURVE SMOOTH",
"579 180 LINE",
"573 139 OFFCURVE",
"560 52 OFFCURVE",
"463 50 CURVE SMOOTH",
"283 50 LINE"
);
},
{
closed = 1;
nodes = (
"242 1000 LINE SMOOTH",
"273 1000 OFFCURVE",
"287 1000 OFFCURVE",
"301 980 CURVE SMOOTH",
"421 812 LINE SMOOTH",
"433 796 OFFCURVE",
"431 772 OFFCURVE",
"410 767 CURVE SMOOTH",
"393 763 OFFCURVE",
"379 770 OFFCURVE",
"366 783 CURVE SMOOTH",
"189 953 LINE SMOOTH",
"159 982 OFFCURVE",
"164 1000 OFFCURVE",
"195 1000 CURVE SMOOTH"
);
}
);
width = 700;
}
);
unicode = 00C8;
},
{
glyphname = F;
lastChange = "2020-08-31 11:28:10 +0000";
layers = (
{
layerId = "2C887366-8E1E-4334-B4A5-9B98F2C45AC5";
paths = (
{
closed = 1;
nodes = (
"280 700 LINE",
"472 700 LINE SMOOTH",
"550 700 OFFCURVE",
"571 670 OFFCURVE",
"589 546 CURVE SMOOTH",
"592 527 OFFCURVE",
"594 506 OFFCURVE",
"597 483 CURVE",
"599 465 OFFCURVE",
"604 460 OFFCURVE",
"614 461 CURVE SMOOTH",
"623 462 OFFCURVE",
"626 467 OFFCURVE",
"625 485 CURVE SMOOTH",
"608 709 LINE SMOOTH",
"607 726 OFFCURVE",
"604 730 OFFCURVE",
"591 730 CURVE SMOOTH",
"93 730 LINE SMOOTH",
"82 730 OFFCURVE",
"75 724 OFFCURVE",
"75 715 CURVE SMOOTH",
"75 706 OFFCURVE",
"82 700 OFFCURVE",
"93 700 CURVE SMOOTH",
"200 700 LINE",
"200 30 LINE",
"95 30 LINE SMOOTH",
"84 30 OFFCURVE",
"77 24 OFFCURVE",
"77 15 CURVE SMOOTH",
"77 6 OFFCURVE",
"84 0 OFFCURVE",
"95 0 CURVE SMOOTH",
"385 0 LINE SMOOTH",
"396 0 OFFCURVE",
"402 6 OFFCURVE",
"402 15 CURVE SMOOTH",
"402 24 OFFCURVE",
"396 30 OFFCURVE",
"385 30 CURVE SMOOTH",
"280 30 LINE",
"280 381 LINE",
"385 381 LINE SMOOTH",
"451 381 OFFCURVE",
"462 342 OFFCURVE",
"466 303 CURVE SMOOTH",
"468 285 LINE SMOOTH",
"470 268 OFFCURVE",
"468 256 OFFCURVE",
"479 255 CURVE SMOOTH",
"494 254 OFFCURVE",
"493 268 OFFCURVE",
"493 285 CURVE SMOOTH",
"493 507 LINE SMOOTH",
"493 524 OFFCURVE",
"494 538 OFFCURVE",
"479 537 CURVE SMOOTH",
"468 536 OFFCURVE",
"470 524 OFFCURVE",
"468 507 CURVE SMOOTH",
"466 489 LINE SMOOTH",
"462 450 OFFCURVE",
"451 411 OFFCURVE",
"385 411 CURVE SMOOTH",
"280 411 LINE"
);
}
);
width = 700;
},
{
layerId = "15A46FCC-DA81-4964-B403-68213F8F3DE4";
paths = (
{
closed = 1;
nodes = (
"290 680 LINE",
"487 680 LINE SMOOTH",
"535 680 OFFCURVE",
"559 629 OFFCURVE",
"572 579 CURVE",
"584 533 OFFCURVE",
"586 487 OFFCURVE",
"587 479 CURVE",
"588 463 OFFCURVE",
"599 451 OFFCURVE",
"614 452 CURVE SMOOTH",
"627 453 OFFCURVE",
"638 465 OFFCURVE",
"637 483 CURVE",
"625 691 LINE",
"624 728 OFFCURVE",
"602 730 OFFCURVE",
"581 730 CURVE SMOOTH",
"98 730 LINE SMOOTH",
"81 730 OFFCURVE",
"69 720 OFFCURVE",
"69 705 CURVE SMOOTH",
"69 692 OFFCURVE",
"80 681 OFFCURVE",
"98 679 CURVE SMOOTH",
"190 669 LINE",
"190 50 LINE",
"96 50 LINE SMOOTH",
"78 50 OFFCURVE",
"67 40 OFFCURVE",
"67 25 CURVE SMOOTH",
"67 10 OFFCURVE",
"78 0 OFFCURVE",
"96 0 CURVE SMOOTH",
"383 0 LINE SMOOTH",
"401 0 OFFCURVE",
"412 10 OFFCURVE",
"412 25 CURVE SMOOTH",
"412 40 OFFCURVE",
"401 50 OFFCURVE",
"383 50 CURVE SMOOTH",
"290 50 LINE",
"290 371 LINE",
"379 371 LINE SMOOTH",
"432 371 OFFCURVE",
"445 342 OFFCURVE",
"452 303 CURVE SMOOTH",
"457 274 LINE SMOOTH",
"460 257 OFFCURVE",
"465 245 OFFCURVE",
"482 245 CURVE SMOOTH",
"499 245 OFFCURVE",
"507 257 OFFCURVE",
"507 274 CURVE SMOOTH",
"507 518 LINE SMOOTH",
"507 535 OFFCURVE",
"499 547 OFFCURVE",
"482 547 CURVE SMOOTH",
"465 547 OFFCURVE",
"460 535 OFFCURVE",
"457 518 CURVE SMOOTH",
"452 489 LINE SMOOTH",
"445 450 OFFCURVE",
"432 421 OFFCURVE",
"379 421 CURVE SMOOTH",
"290 421 LINE"
);
}
);
width = 700;
},
{
layerId = "6A265716-979C-4B63-AB57-6A34FBA57EF3";
paths = (
{
closed = 1;
nodes = (
"300 680 LINE",
"487 680 LINE SMOOTH",
"537 680 OFFCURVE",
"562 622 OFFCURVE",
"574 568 CURVE SMOOTH",
"584 524 OFFCURVE",
"586 483 OFFCURVE",
"586 475 CURVE SMOOTH",
"587 459 OFFCURVE",
"599 446 OFFCURVE",
"614 447 CURVE SMOOTH",
"628 448 OFFCURVE",
"639 461 OFFCURVE",
"638 479 CURVE SMOOTH",
"626 690 LINE SMOOTH",
"625 728 OFFCURVE",
"602 730 OFFCURVE",
"580 730 CURVE SMOOTH",
"83 730 LINE SMOOTH",
"66 730 OFFCURVE",
"54 720 OFFCURVE",
"54 705 CURVE SMOOTH",
"54 692 OFFCURVE",
"65 681 OFFCURVE",
"83 679 CURVE SMOOTH",
"180 669 LINE",
"180 50 LINE",
"81 50 LINE SMOOTH",
"63 50 OFFCURVE",
"52 40 OFFCURVE",
"52 25 CURVE SMOOTH",
"52 10 OFFCURVE",
"63 0 OFFCURVE",
"81 0 CURVE SMOOTH",
"398 0 LINE SMOOTH",
"416 0 OFFCURVE",
"427 10 OFFCURVE",
"427 25 CURVE SMOOTH",
"427 40 OFFCURVE",
"416 50 OFFCURVE",
"398 50 CURVE SMOOTH",
"300 50 LINE",
"300 371 LINE",
"379 371 LINE SMOOTH",
"432 371 OFFCURVE",
"444 339 OFFCURVE",
"451 300 CURVE SMOOTH",
"456 270 LINE SMOOTH",
"459 252 OFFCURVE",
"465 240 OFFCURVE",
"482 240 CURVE SMOOTH",
"500 240 OFFCURVE",
"508 252 OFFCURVE",
"508 270 CURVE SMOOTH",
"508 522 LINE SMOOTH",
"508 540 OFFCURVE",
"500 552 OFFCURVE",
"482 552 CURVE SMOOTH",
"465 552 OFFCURVE",
"459 540 OFFCURVE",
"456 522 CURVE SMOOTH",
"451 492 LINE SMOOTH",
"444 453 OFFCURVE",
"432 421 OFFCURVE",
"379 421 CURVE SMOOTH",
"300 421 LINE"
);
}
);
width = 700;
}
);
unicode = 0046;
},
{
glyphname = G;
lastChange = "2020-08-31 11:28:10 +0000";
layers = (
{
layerId = "2C887366-8E1E-4334-B4A5-9B98F2C45AC5";
paths = (
{
closed = 1;
nodes = (
"83 113 OFFCURVE",
"197 0 OFFCURVE",
"346 0 CURVE SMOOTH",
"442 0 OFFCURVE",
"512 67 OFFCURVE",
"545 162 CURVE",
"545 17 LINE SMOOTH",
"545 6 OFFCURVE",
"551 0 OFFCURVE",
"560 0 CURVE SMOOTH",
"569 0 OFFCURVE",
"575 6 OFFCURVE",
"575 17 CURVE SMOOTH",
"575 308 LINE",
"651 308 LINE SMOOTH",
"662 308 OFFCURVE",
"669 314 OFFCURVE",
"669 323 CURVE SMOOTH",
"669 332 OFFCURVE",
"662 338 OFFCURVE",
"651 338 CURVE SMOOTH",
"435 338 LINE SMOOTH",
"424 338 OFFCURVE",
"417 332 OFFCURVE",
"417 323 CURVE SMOOTH",
"417 314 OFFCURVE",
"424 308 OFFCURVE",
"435 308 CURVE SMOOTH",
"536 308 LINE",
"526 141 OFFCURVE",
"455 30 OFFCURVE",
"348 30 CURVE SMOOTH",
"228 30 OFFCURVE",
"163 192 OFFCURVE",
"163 365 CURVE SMOOTH",
"163 537 OFFCURVE",
"231 700 OFFCURVE",
"341 700 CURVE SMOOTH",
"455 700 OFFCURVE",
"502 572 OFFCURVE",
"526 500 CURVE SMOOTH",
"531 485 OFFCURVE",
"536 459 OFFCURVE",
"552 459 CURVE SMOOTH",
"560 459 OFFCURVE",
"567 465 OFFCURVE",
"567 476 CURVE SMOOTH",
"567 712 LINE SMOOTH",
"567 723 OFFCURVE",
"560 730 OFFCURVE",
"552 730 CURVE SMOOTH",
"544 730 OFFCURVE",
"537 724 OFFCURVE",
"537 712 CURVE SMOOTH",
"537 562 LINE",
"509 636 OFFCURVE",
"458 730 OFFCURVE",
"341 730 CURVE SMOOTH",
"202 730 OFFCURVE",
"83 617 OFFCURVE",
"83 365 CURVE SMOOTH"
);
}
);
width = 700;
},
{
layerId = "15A46FCC-DA81-4964-B403-68213F8F3DE4";
paths = (
{
closed = 1;
nodes = (
"68 113 OFFCURVE",
"192 0 OFFCURVE",
"341 0 CURVE SMOOTH",
"427 0 OFFCURVE",
"496 45 OFFCURVE",
"532 106 CURVE",
"531 30 LINE SMOOTH",
"531 13 OFFCURVE",
"540 -1 OFFCURVE",
"558 -1 CURVE SMOOTH",
"576 -1 OFFCURVE",
"585 13 OFFCURVE",
"585 30 CURVE SMOOTH",
"583 298 LINE",
"645 298 LINE SMOOTH",
"663 298 OFFCURVE",
"674 308 OFFCURVE",
"674 323 CURVE SMOOTH",
"674 336 OFFCURVE",
"663 348 OFFCURVE",
"645 348 CURVE SMOOTH",
"441 348 LINE SMOOTH",
"423 348 OFFCURVE",
"412 340 OFFCURVE",
"412 323 CURVE SMOOTH",
"412 306 OFFCURVE",
"423 298 OFFCURVE",
"441 298 CURVE SMOOTH",
"513 298 LINE",
"511 154 OFFCURVE",
"436 50 OFFCURVE",
"341 50 CURVE SMOOTH",
"228 50 OFFCURVE",
"178 192 OFFCURVE",
"178 365 CURVE SMOOTH",
"178 537 OFFCURVE",
"228 680 OFFCURVE",
"341 680 CURVE SMOOTH",
"439 680 OFFCURVE",
"481 595 OFFCURVE",
"518 478 CURVE SMOOTH",
"523 462 OFFCURVE",
"528 449 OFFCURVE",
"548 449 CURVE SMOOTH",
"564 449 OFFCURVE",
"577 460 OFFCURVE",
"577 478 CURVE SMOOTH",
"577 701 LINE SMOOTH",
"577 718 OFFCURVE",
"567 730 OFFCURVE",
"552 730 CURVE SMOOTH",
"539 730 OFFCURVE",
"527 720 OFFCURVE",
"526 701 CURVE SMOOTH",
"522 649 LINE",
"483 690 OFFCURVE",
"419 730 OFFCURVE",
"351 730 CURVE SMOOTH",
"192 730 OFFCURVE",
"68 617 OFFCURVE",
"68 365 CURVE SMOOTH"
);
}
);
width = 700;
},
{
layerId = "6A265716-979C-4B63-AB57-6A34FBA57EF3";
paths = (
{
closed = 1;
nodes = (
"58 113 OFFCURVE",
"182 0 OFFCURVE",
"341 0 CURVE SMOOTH",
"427 0 OFFCURVE",
"496 55 OFFCURVE",
"532 116 CURVE",
"531 30 LINE SMOOTH",
"531 13 OFFCURVE",
"540 -1 OFFCURVE",
"558 -1 CURVE SMOOTH",
"576 -1 OFFCURVE",
"585 13 OFFCURVE",
"585 30 CURVE",
"583 298 LINE",
"645 298 LINE SMOOTH",
"663 298 OFFCURVE",
"674 308 OFFCURVE",
"674 323 CURVE SMOOTH",
"674 336 OFFCURVE",
"663 348 OFFCURVE",
"645 348 CURVE SMOOTH",
"431 348 LINE SMOOTH",
"413 348 OFFCURVE",
"402 340 OFFCURVE",
"402 323 CURVE SMOOTH",
"402 306 OFFCURVE",
"413 298 OFFCURVE",
"431 298 CURVE SMOOTH",
"503 298 LINE",
"501 154 OFFCURVE",
"426 50 OFFCURVE",
"341 50 CURVE SMOOTH",
"238 50 OFFCURVE",
"188 192 OFFCURVE",
"188 365 CURVE SMOOTH",
"188 537 OFFCURVE",
"238 680 OFFCURVE",
"341 680 CURVE SMOOTH",
"429 680 OFFCURVE",
"471 595 OFFCURVE",
"508 478 CURVE SMOOTH",
"513 462 OFFCURVE",
"518 444 OFFCURVE",
"548 444 CURVE SMOOTH",
"564 444 OFFCURVE",
"577 460 OFFCURVE",
"577 478 CURVE SMOOTH",
"577 701 LINE SMOOTH",
"577 718 OFFCURVE",
"567 730 OFFCURVE",
"552 730 CURVE SMOOTH",
"539 730 OFFCURVE",
"527 720 OFFCURVE",
"526 701 CURVE SMOOTH",
"522 639 LINE",
"483 680 OFFCURVE",
"419 730 OFFCURVE",
"351 730 CURVE SMOOTH",
"182 730 OFFCURVE",
"58 617 OFFCURVE",
"58 365 CURVE SMOOTH"
);
}
);
width = 700;
}
);
unicode = 0047;
},
{
glyphname = H;
lastChange = "2020-08-31 11:28:10 +0000";
layers = (
{
layerId = "2C887366-8E1E-4334-B4A5-9B98F2C45AC5";
paths = (
{
closed = 1;
nodes = (
"209 700 LINE",
"272 700 LINE",
"283 700 OFFCURVE",
"290 706 OFFCURVE",
"290 715 CURVE SMOOTH",
"290 724 OFFCURVE",
"283 730 OFFCURVE",
"272 730 CURVE",
"70 730 LINE",
"59 730 OFFCURVE",
"52 724 OFFCURVE",
"52 715 CURVE SMOOTH",
"52 706 OFFCURVE",
"59 700 OFFCURVE",
"70 700 CURVE SMOOTH",
"129 700 LINE",
"129 30 LINE",
"70 30 LINE SMOOTH",
"59 30 OFFCURVE",
"52 24 OFFCURVE",
"52 15 CURVE SMOOTH",
"52 6 OFFCURVE",
"59 0 OFFCURVE",
"70 0 CURVE SMOOTH",
"272 0 LINE SMOOTH",
"283 0 OFFCURVE",
"290 6 OFFCURVE",
"290 15 CURVE SMOOTH",
"290 24 OFFCURVE",
"283 30 OFFCURVE",
"272 30 CURVE SMOOTH",
"209 30 LINE",
"209 368 LINE",
"489 368 LINE",
"489 30 LINE",
"426 30 LINE SMOOTH",
"415 30 OFFCURVE",
"408 24 OFFCURVE",
"408 15 CURVE SMOOTH",
"408 6 OFFCURVE",
"415 0 OFFCURVE",
"426 0 CURVE SMOOTH",
"628 0 LINE SMOOTH",
"639 0 OFFCURVE",
"646 6 OFFCURVE",
"646 15 CURVE SMOOTH",
"646 24 OFFCURVE",
"639 30 OFFCURVE",
"628 30 CURVE SMOOTH",
"569 30 LINE",
"569 700 LINE",
"628 700 LINE SMOOTH",
"639 700 OFFCURVE",
"646 706 OFFCURVE",
"646 715 CURVE SMOOTH",
"646 724 OFFCURVE",
"639 730 OFFCURVE",
"628 730 CURVE",
"426 730 LINE",
"415 730 OFFCURVE",
"408 724 OFFCURVE",
"408 715 CURVE SMOOTH",
"408 706 OFFCURVE",
"415 700 OFFCURVE",
"426 700 CURVE",
"489 700 LINE",
"489 398 LINE",
"209 398 LINE"
);
}
);
width = 700;
},
{
layerId = "15A46FCC-DA81-4964-B403-68213F8F3DE4";
paths = (
{
closed = 1;
nodes = (
"219 680 LINE",
"271 680 LINE SMOOTH",
"289 680 OFFCURVE",
"300 690 OFFCURVE",
"300 705 CURVE SMOOTH",
"300 720 OFFCURVE",
"289 730 OFFCURVE",
"271 730 CURVE SMOOTH",
"72 730 LINE SMOOTH",
"54 730 OFFCURVE",
"43 720 OFFCURVE",
"43 705 CURVE SMOOTH",
"43 690 OFFCURVE",
"54 680 OFFCURVE",
"72 680 CURVE SMOOTH",
"119 680 LINE",
"119 50 LINE",
"72 50 LINE SMOOTH",
"54 50 OFFCURVE",
"43 40 OFFCURVE",
"43 25 CURVE SMOOTH",
"43 10 OFFCURVE",
"54 0 OFFCURVE",
"72 0 CURVE SMOOTH",
"271 0 LINE SMOOTH",
"289 0 OFFCURVE",
"300 10 OFFCURVE",
"300 25 CURVE SMOOTH",
"300 40 OFFCURVE",
"289 50 OFFCURVE",
"271 50 CURVE SMOOTH",
"219 50 LINE",
"219 358 LINE",
"480 358 LINE",
"480 50 LINE",
"428 50 LINE SMOOTH",
"410 50 OFFCURVE",
"399 40 OFFCURVE",
"399 25 CURVE SMOOTH",
"399 10 OFFCURVE",
"410 0 OFFCURVE",
"428 0 CURVE SMOOTH",
"628 0 LINE SMOOTH",
"646 0 OFFCURVE",
"657 8 OFFCURVE",
"657 25 CURVE SMOOTH",
"657 42 OFFCURVE",
"646 50 OFFCURVE",
"628 50 CURVE SMOOTH",
"580 50 LINE",
"580 680 LINE",
"627 680 LINE SMOOTH",
"645 680 OFFCURVE",
"656 688 OFFCURVE",
"656 705 CURVE SMOOTH",
"656 722 OFFCURVE",
"645 730 OFFCURVE",
"627 730 CURVE SMOOTH",
"428 730 LINE SMOOTH",
"410 730 OFFCURVE",
"399 720 OFFCURVE",
"399 705 CURVE SMOOTH",
"399 690 OFFCURVE",
"410 680 OFFCURVE",
"428 680 CURVE SMOOTH",
"480 680 LINE",
"480 408 LINE",
"219 408 LINE"
);
}
);
width = 700;
},
{
layerId = "6A265716-979C-4B63-AB57-6A34FBA57EF3";
paths = (
{
closed = 1;
nodes = (
"229 680 LINE",
"281 680 LINE SMOOTH",
"299 680 OFFCURVE",
"310 690 OFFCURVE",
"310 705 CURVE SMOOTH",
"310 720 OFFCURVE",
"299 730 OFFCURVE",
"281 730 CURVE SMOOTH",
"62 730 LINE SMOOTH",
"44 730 OFFCURVE",
"33 720 OFFCURVE",
"33 705 CURVE SMOOTH",
"33 690 OFFCURVE",
"44 680 OFFCURVE",
"62 680 CURVE SMOOTH",
"109 680 LINE",
"109 50 LINE",
"62 50 LINE SMOOTH",
"44 50 OFFCURVE",
"33 40 OFFCURVE",
"33 25 CURVE SMOOTH",
"33 10 OFFCURVE",
"44 0 OFFCURVE",
"62 0 CURVE SMOOTH",
"281 0 LINE SMOOTH",
"299 0 OFFCURVE",
"310 10 OFFCURVE",
"310 25 CURVE SMOOTH",
"310 40 OFFCURVE",
"299 50 OFFCURVE",
"281 50 CURVE SMOOTH",
"229 50 LINE",
"229 358 LINE",
"470 358 LINE",
"470 50 LINE",
"418 50 LINE SMOOTH",
"400 50 OFFCURVE",
"389 40 OFFCURVE",
"389 25 CURVE SMOOTH",
"389 10 OFFCURVE",
"400 0 OFFCURVE",
"418 0 CURVE SMOOTH",
"638 0 LINE SMOOTH",
"656 0 OFFCURVE",
"667 8 OFFCURVE",
"667 25 CURVE SMOOTH",
"667 42 OFFCURVE",
"656 50 OFFCURVE",
"638 50 CURVE SMOOTH",
"590 50 LINE",
"590 680 LINE",
"637 680 LINE SMOOTH",
"655 680 OFFCURVE",
"666 688 OFFCURVE",
"666 705 CURVE SMOOTH",
"666 722 OFFCURVE",
"655 730 OFFCURVE",
"637 730 CURVE SMOOTH",
"418 730 LINE SMOOTH",
"400 730 OFFCURVE",
"389 720 OFFCURVE",
"389 705 CURVE SMOOTH",
"389 690 OFFCURVE",
"400 680 OFFCURVE",
"418 680 CURVE SMOOTH",
"470 680 LINE",
"470 408 LINE",
"229 408 LINE"
);
}
);
width = 700;
}
);
unicode = 0048;
},
{
glyphname = I;
lastChange = "2020-08-31 11:28:10 +0000";
layers = (
{
layerId = "2C887366-8E1E-4334-B4A5-9B98F2C45AC5";
paths = (
{
closed = 1;
nodes = (
"392 700 LINE",
"546 700 LINE",
"557 700 OFFCURVE",
"564 706 OFFCURVE",
"564 715 CURVE SMOOTH",
"564 724 OFFCURVE",
"557 730 OFFCURVE",
"546 730 CURVE",
"154 730 LINE",
"143 730 OFFCURVE",
"136 724 OFFCURVE",
"136 715 CURVE SMOOTH",
"136 706 OFFCURVE",
"143 700 OFFCURVE",
"154 700 CURVE",
"312 700 LINE",
"312 30 LINE",
"159 30 LINE",
"148 30 OFFCURVE",
"141 24 OFFCURVE",
"141 15 CURVE SMOOTH",
"141 6 OFFCURVE",
"148 0 OFFCURVE",
"159 0 CURVE",
"543 0 LINE SMOOTH",
"554 0 OFFCURVE",
"561 6 OFFCURVE",
"561 15 CURVE SMOOTH",
"561 24 OFFCURVE",
"554 30 OFFCURVE",
"543 30 CURVE",
"392 30 LINE"
);
}
);
width = 700;
},
{
layerId = "15A46FCC-DA81-4964-B403-68213F8F3DE4";
paths = (
{
closed = 1;
nodes = (
"402 680 LINE",
"540 680 LINE SMOOTH",
"558 680 OFFCURVE",
"569 690 OFFCURVE",
"569 705 CURVE SMOOTH",
"569 720 OFFCURVE",
"558 730 OFFCURVE",
"540 730 CURVE SMOOTH",
"160 730 LINE SMOOTH",
"142 730 OFFCURVE",
"131 720 OFFCURVE",
"131 705 CURVE SMOOTH",
"131 690 OFFCURVE",
"142 680 OFFCURVE",
"160 680 CURVE SMOOTH",
"302 680 LINE",
"302 50 LINE",
"161 50 LINE SMOOTH",
"142 50 OFFCURVE",
"131 40 OFFCURVE",
"131 25 CURVE SMOOTH",
"131 10 OFFCURVE",
"142 0 OFFCURVE",
"161 0 CURVE",
"541 0 LINE",
"560 0 OFFCURVE",
"571 10 OFFCURVE",
"571 25 CURVE SMOOTH",
"571 40 OFFCURVE",
"560 50 OFFCURVE",
"541 50 CURVE SMOOTH",
"402 50 LINE"
);
}
);
width = 700;
},
{
layerId = "6A265716-979C-4B63-AB57-6A34FBA57EF3";
paths = (
{
closed = 1;
nodes = (
"412 680 LINE",
"550 680 LINE SMOOTH",
"568 680 OFFCURVE",
"579 690 OFFCURVE",
"579 705 CURVE SMOOTH",
"579 720 OFFCURVE",
"568 730 OFFCURVE",
"550 730 CURVE SMOOTH",
"150 730 LINE SMOOTH",
"132 730 OFFCURVE",
"121 720 OFFCURVE",
"121 705 CURVE SMOOTH",
"121 690 OFFCURVE",
"132 680 OFFCURVE",
"150 680 CURVE SMOOTH",
"292 680 LINE",
"292 50 LINE",
"151 50 LINE SMOOTH",
"132 50 OFFCURVE",
"121 40 OFFCURVE",
"121 25 CURVE SMOOTH",
"121 10 OFFCURVE",
"132 0 OFFCURVE",
"151 0 CURVE SMOOTH",
"551 0 LINE SMOOTH",
"570 0 OFFCURVE",
"581 10 OFFCURVE",
"581 25 CURVE SMOOTH",
"581 40 OFFCURVE",
"570 50 OFFCURVE",
"551 50 CURVE SMOOTH",
"412 50 LINE"
);
}
);
width = 700;
}
);
unicode = 0049;
},
{
glyphname = Iacute;
lastChange = "2020-09-05 14:28:22 +0000";
layers = (
{
layerId = "2C887366-8E1E-4334-B4A5-9B98F2C45AC5";
paths = (
{
closed = 1;
nodes = (
"392 700 LINE",
"546 700 LINE",
"557 700 OFFCURVE",
"564 706 OFFCURVE",
"564 715 CURVE SMOOTH",
"564 724 OFFCURVE",
"557 730 OFFCURVE",
"546 730 CURVE",
"154 730 LINE",
"143 730 OFFCURVE",
"136 724 OFFCURVE",
"136 715 CURVE SMOOTH",
"136 706 OFFCURVE",
"143 700 OFFCURVE",
"154 700 CURVE",
"312 700 LINE",
"312 30 LINE",
"159 30 LINE",
"148 30 OFFCURVE",
"141 24 OFFCURVE",
"141 15 CURVE SMOOTH",
"141 6 OFFCURVE",
"148 0 OFFCURVE",
"159 0 CURVE",
"543 0 LINE SMOOTH",
"554 0 OFFCURVE",
"561 6 OFFCURVE",
"561 15 CURVE SMOOTH",
"561 24 OFFCURVE",
"554 30 OFFCURVE",
"543 30 CURVE",
"392 30 LINE"
);
},
{
closed = 1;
nodes = (
"504 990 OFFCURVE",
"508 981 OFFCURVE",
"490 963 CURVE SMOOTH",
"313 791 LINE SMOOTH",
"302 781 OFFCURVE",
"294 778 OFFCURVE",
"288 783 CURVE SMOOTH",
"280 789 OFFCURVE",
"286 800 OFFCURVE",
"292 809 CURVE SMOOTH",
"406 972 LINE SMOOTH",
"417 987 OFFCURVE",
"420 990 OFFCURVE",
"441 990 CURVE SMOOTH",
"481 990 LINE SMOOTH"
);
}
);
width = 700;
},
{
layerId = "15A46FCC-DA81-4964-B403-68213F8F3DE4";
paths = (
{
closed = 1;
nodes = (
"402 680 LINE",
"540 680 LINE SMOOTH",
"558 680 OFFCURVE",
"569 690 OFFCURVE",
"569 705 CURVE SMOOTH",
"569 720 OFFCURVE",
"558 730 OFFCURVE",
"540 730 CURVE SMOOTH",
"160 730 LINE SMOOTH",
"142 730 OFFCURVE",
"131 720 OFFCURVE",
"131 705 CURVE SMOOTH",
"131 690 OFFCURVE",
"142 680 OFFCURVE",
"160 680 CURVE SMOOTH",
"302 680 LINE",
"302 50 LINE",
"161 50 LINE SMOOTH",
"142 50 OFFCURVE",
"131 40 OFFCURVE",
"131 25 CURVE SMOOTH",
"131 10 OFFCURVE",
"142 0 OFFCURVE",
"161 0 CURVE",
"541 0 LINE",
"560 0 OFFCURVE",
"571 10 OFFCURVE",
"571 25 CURVE SMOOTH",
"571 40 OFFCURVE",
"560 50 OFFCURVE",
"541 50 CURVE SMOOTH",
"402 50 LINE"
);
},
{
closed = 1;
nodes = (
"518 1000 OFFCURVE",
"523 982 OFFCURVE",
"493 953 CURVE SMOOTH",
"316 783 LINE SMOOTH",
"305 773 OFFCURVE",
"292 769 OFFCURVE",
"281 776 CURVE SMOOTH",
"270 783 OFFCURVE",
"271 797 OFFCURVE",
"277 806 CURVE SMOOTH",
"401 980 LINE SMOOTH",
"415 1000 OFFCURVE",
"429 1000 OFFCURVE",
"460 1000 CURVE SMOOTH",
"487 1000 LINE SMOOTH"
);
}
);
width = 700;
},
{
layerId = "6A265716-979C-4B63-AB57-6A34FBA57EF3";
paths = (
{
closed = 1;
nodes = (
"412 680 LINE",
"550 680 LINE SMOOTH",
"568 680 OFFCURVE",
"579 690 OFFCURVE",
"579 705 CURVE SMOOTH",
"579 720 OFFCURVE",
"568 730 OFFCURVE",
"550 730 CURVE SMOOTH",
"150 730 LINE SMOOTH",
"132 730 OFFCURVE",
"121 720 OFFCURVE",
"121 705 CURVE SMOOTH",
"121 690 OFFCURVE",
"132 680 OFFCURVE",
"150 680 CURVE SMOOTH",
"292 680 LINE",
"292 50 LINE",
"151 50 LINE SMOOTH",
"132 50 OFFCURVE",
"121 40 OFFCURVE",
"121 25 CURVE SMOOTH",
"121 10 OFFCURVE",
"132 0 OFFCURVE",
"151 0 CURVE SMOOTH",
"551 0 LINE SMOOTH",
"570 0 OFFCURVE",
"581 10 OFFCURVE",
"581 25 CURVE SMOOTH",
"581 40 OFFCURVE",
"570 50 OFFCURVE",
"551 50 CURVE SMOOTH",
"412 50 LINE"
);
},
{
closed = 1;
nodes = (
"528 1000 OFFCURVE",
"533 982 OFFCURVE",
"503 953 CURVE SMOOTH",
"326 783 LINE SMOOTH",
"313 770 OFFCURVE",
"299 763 OFFCURVE",
"282 767 CURVE SMOOTH",
"261 772 OFFCURVE",
"259 796 OFFCURVE",
"271 812 CURVE SMOOTH",
"391 980 LINE SMOOTH",
"405 1000 OFFCURVE",
"419 1000 OFFCURVE",
"450 1000 CURVE SMOOTH",
"497 1000 LINE SMOOTH"
);
}
);
width = 700;
}
);
unicode = 00CD;
},
{
glyphname = Icircumflex;
lastChange = "2021-04-06 14:01:59 +0000";
layers = (
{
layerId = "2C887366-8E1E-4334-B4A5-9B98F2C45AC5";
paths = (
{
closed = 1;
nodes = (
"392 700 LINE",
"546 700 LINE",
"557 700 OFFCURVE",
"564 706 OFFCURVE",
"564 715 CURVE SMOOTH",
"564 724 OFFCURVE",
"557 730 OFFCURVE",
"546 730 CURVE",
"154 730 LINE",
"143 730 OFFCURVE",
"136 724 OFFCURVE",
"136 715 CURVE SMOOTH",
"136 706 OFFCURVE",
"143 700 OFFCURVE",
"154 700 CURVE",
"312 700 LINE",
"312 30 LINE",
"159 30 LINE",
"148 30 OFFCURVE",
"141 24 OFFCURVE",
"141 15 CURVE SMOOTH",
"141 6 OFFCURVE",
"148 0 OFFCURVE",
"159 0 CURVE",
"543 0 LINE SMOOTH",
"554 0 OFFCURVE",
"561 6 OFFCURVE",
"561 15 CURVE SMOOTH",
"561 24 OFFCURVE",
"554 30 OFFCURVE",
"543 30 CURVE",
"392 30 LINE"
);
},
{
closed = 1;
nodes = (
"339 990 OFFCURVE",
"333 985 OFFCURVE",
"327 979 CURVE SMOOTH",
"168 806 LINE SMOOTH",
"155 792 OFFCURVE",
"155 789 OFFCURVE",
"157 785 CURVE SMOOTH",
"159 781 OFFCURVE",
"165 781 OFFCURVE",
"189 781 CURVE SMOOTH",
"221 781 LINE SMOOTH",
"241 781 OFFCURVE",
"247 780 OFFCURVE",
"253 791 CURVE SMOOTH",
"349 960 LINE",
"446 791 LINE SMOOTH",
"452 780 OFFCURVE",
"458 781 OFFCURVE",
"478 781 CURVE SMOOTH",
"510 781 LINE SMOOTH",
"534 781 OFFCURVE",
"540 781 OFFCURVE",
"542 785 CURVE SMOOTH",
"544 789 OFFCURVE",
"544 792 OFFCURVE",
"531 806 CURVE SMOOTH",
"372 979 LINE SMOOTH",
"366 985 OFFCURVE",
"360 990 OFFCURVE",
"349 990 CURVE SMOOTH"
);
}
);
width = 700;
},
{
layerId = "15A46FCC-DA81-4964-B403-68213F8F3DE4";
paths = (
{
closed = 1;
nodes = (
"402 680 LINE",
"540 680 LINE SMOOTH",
"558 680 OFFCURVE",
"569 690 OFFCURVE",
"569 705 CURVE SMOOTH",
"569 720 OFFCURVE",
"558 730 OFFCURVE",
"540 730 CURVE SMOOTH",
"160 730 LINE SMOOTH",
"142 730 OFFCURVE",
"131 720 OFFCURVE",
"131 705 CURVE SMOOTH",
"131 690 OFFCURVE",
"142 680 OFFCURVE",
"160 680 CURVE SMOOTH",
"302 680 LINE",
"302 50 LINE",
"161 50 LINE SMOOTH",
"142 50 OFFCURVE",
"131 40 OFFCURVE",
"131 25 CURVE SMOOTH",
"131 10 OFFCURVE",
"142 0 OFFCURVE",
"161 0 CURVE",
"541 0 LINE",
"560 0 OFFCURVE",
"571 10 OFFCURVE",
"571 25 CURVE SMOOTH",
"571 40 OFFCURVE",
"560 50 OFFCURVE",
"541 50 CURVE SMOOTH",
"402 50 LINE"
);
},
{
closed = 1;
nodes = (
"339 1000 OFFCURVE",
"332 995 OFFCURVE",
"327 989 CURVE SMOOTH",
"166 809 LINE SMOOTH",
"153 795 OFFCURVE",
"147 790 OFFCURVE",
"152 781 CURVE SMOOTH",
"156 774 OFFCURVE",
"165 772 OFFCURVE",
"189 772 CURVE SMOOTH",
"224 772 LINE SMOOTH",
"244 772 OFFCURVE",
"252 772 OFFCURVE",
"261 786 CURVE SMOOTH",
"349 929 LINE",
"438 786 LINE SMOOTH",
"446 774 OFFCURVE",
"455 772 OFFCURVE",
"476 772 CURVE SMOOTH",
"511 772 LINE SMOOTH",
"534 772 OFFCURVE",
"544 773 OFFCURVE",
"547 781 CURVE SMOOTH",
"551 791 OFFCURVE",
"546 795 OFFCURVE",
"533 809 CURVE SMOOTH",
"372 989 LINE SMOOTH",
"368 993 OFFCURVE",
"360 1000 OFFCURVE",
"349 1000 CURVE SMOOTH"
);
}
);
width = 700;
},
{
layerId = "6A265716-979C-4B63-AB57-6A34FBA57EF3";
paths = (
{
closed = 1;
nodes = (
"412 680 LINE",
"550 680 LINE SMOOTH",
"568 680 OFFCURVE",
"579 690 OFFCURVE",
"579 705 CURVE SMOOTH",
"579 720 OFFCURVE",
"568 730 OFFCURVE",
"550 730 CURVE SMOOTH",
"150 730 LINE SMOOTH",
"132 730 OFFCURVE",
"121 720 OFFCURVE",
"121 705 CURVE SMOOTH",
"121 690 OFFCURVE",
"132 680 OFFCURVE",
"150 680 CURVE SMOOTH",
"292 680 LINE",
"292 50 LINE",
"151 50 LINE SMOOTH",
"132 50 OFFCURVE",
"121 40 OFFCURVE",
"121 25 CURVE SMOOTH",
"121 10 OFFCURVE",
"132 0 OFFCURVE",
"151 0 CURVE SMOOTH",
"551 0 LINE SMOOTH",
"570 0 OFFCURVE",
"581 10 OFFCURVE",
"581 25 CURVE SMOOTH",
"581 40 OFFCURVE",
"570 50 OFFCURVE",
"551 50 CURVE SMOOTH",
"412 50 LINE"
);
},
{
closed = 1;
nodes = (
"329 1000 OFFCURVE",
"322 995 OFFCURVE",
"317 989 CURVE",
"146 809 LINE SMOOTH",
"128 790 OFFCURVE",
"127 780 OFFCURVE",
"132 771 CURVE SMOOTH",
"136 764 OFFCURVE",
"145 762 OFFCURVE",
"169 762 CURVE SMOOTH",
"239 762 LINE SMOOTH",
"259 762 OFFCURVE",
"269 762 OFFCURVE",
"276 776 CURVE SMOOTH",
"349 924 LINE",
"423 786 LINE SMOOTH",
"434 765 OFFCURVE",
"440 762 OFFCURVE",
"461 762 CURVE SMOOTH",
"531 762 LINE SMOOTH",
"554 762 OFFCURVE",
"564 763 OFFCURVE",
"567 771 CURVE SMOOTH",
"571 781 OFFCURVE",
"566 795 OFFCURVE",
"553 809 CURVE SMOOTH",
"382 989 LINE SMOOTH",
"378 993 OFFCURVE",
"370 1000 OFFCURVE",
"349 1000 CURVE SMOOTH"
);
}
);
width = 700;
}
);
unicode = 00CE;
},
{
glyphname = Idieresis;
lastChange = "2020-09-05 14:24:20 +0000";
layers = (
{
layerId = "2C887366-8E1E-4334-B4A5-9B98F2C45AC5";
paths = (
{
closed = 1;
nodes = (
"392 700 LINE",
"546 700 LINE",
"557 700 OFFCURVE",
"564 706 OFFCURVE",
"564 715 CURVE SMOOTH",
"564 724 OFFCURVE",
"557 730 OFFCURVE",
"546 730 CURVE",
"154 730 LINE",
"143 730 OFFCURVE",
"136 724 OFFCURVE",
"136 715 CURVE SMOOTH",
"136 706 OFFCURVE",
"143 700 OFFCURVE",
"154 700 CURVE",
"312 700 LINE",
"312 30 LINE",
"159 30 LINE",
"148 30 OFFCURVE",
"141 24 OFFCURVE",
"141 15 CURVE SMOOTH",
"141 6 OFFCURVE",
"148 0 OFFCURVE",
"159 0 CURVE",
"543 0 LINE SMOOTH",
"554 0 OFFCURVE",
"561 6 OFFCURVE",
"561 15 CURVE SMOOTH",
"561 24 OFFCURVE",
"554 30 OFFCURVE",
"543 30 CURVE",
"392 30 LINE"
);
},
{
closed = 1;
nodes = (
"264 817 OFFCURVE",
"288 839 OFFCURVE",
"288 867 CURVE SMOOTH",
"288 896 OFFCURVE",
"264 918 OFFCURVE",
"235 918 CURVE SMOOTH",
"207 918 OFFCURVE",
"183 896 OFFCURVE",
"183 867 CURVE SMOOTH",
"183 839 OFFCURVE",
"207 817 OFFCURVE",
"235 817 CURVE SMOOTH"
);
},
{
closed = 1;
nodes = (
"495 817 OFFCURVE",
"519 839 OFFCURVE",
"519 867 CURVE SMOOTH",
"519 896 OFFCURVE",
"495 918 OFFCURVE",
"466 918 CURVE SMOOTH",
"437 918 OFFCURVE",
"413 896 OFFCURVE",
"413 867 CURVE SMOOTH",
"413 839 OFFCURVE",
"437 817 OFFCURVE",
"466 817 CURVE SMOOTH"
);
}
);
width = 700;
},
{
layerId = "15A46FCC-DA81-4964-B403-68213F8F3DE4";
paths = (
{
closed = 1;
nodes = (
"402 680 LINE",
"540 680 LINE SMOOTH",
"558 680 OFFCURVE",
"569 690 OFFCURVE",
"569 705 CURVE SMOOTH",
"569 720 OFFCURVE",
"558 730 OFFCURVE",
"540 730 CURVE SMOOTH",
"160 730 LINE SMOOTH",
"142 730 OFFCURVE",
"131 720 OFFCURVE",
"131 705 CURVE SMOOTH",
"131 690 OFFCURVE",
"142 680 OFFCURVE",
"160 680 CURVE SMOOTH",
"302 680 LINE",
"302 50 LINE",
"161 50 LINE SMOOTH",
"142 50 OFFCURVE",
"131 40 OFFCURVE",
"131 25 CURVE SMOOTH",
"131 10 OFFCURVE",
"142 0 OFFCURVE",
"161 0 CURVE",
"541 0 LINE",
"560 0 OFFCURVE",
"571 10 OFFCURVE",
"571 25 CURVE SMOOTH",
"571 40 OFFCURVE",
"560 50 OFFCURVE",
"541 50 CURVE SMOOTH",
"402 50 LINE"
);
},
{
closed = 1;
nodes = (
"269 809 OFFCURVE",
"297 834 OFFCURVE",
"297 868 CURVE SMOOTH",
"297 902 OFFCURVE",
"269 927 OFFCURVE",
"235 927 CURVE SMOOTH",
"201 927 OFFCURVE",
"173 902 OFFCURVE",
"173 868 CURVE SMOOTH",
"173 834 OFFCURVE",
"201 809 OFFCURVE",
"235 809 CURVE SMOOTH"
);
},
{
closed = 1;
nodes = (
"500 809 OFFCURVE",
"528 834 OFFCURVE",
"528 868 CURVE SMOOTH",
"528 902 OFFCURVE",
"500 927 OFFCURVE",
"466 927 CURVE SMOOTH",
"432 927 OFFCURVE",
"404 902 OFFCURVE",
"404 868 CURVE SMOOTH",
"404 834 OFFCURVE",
"432 809 OFFCURVE",
"466 809 CURVE SMOOTH"
);
}
);
width = 700;
},
{
layerId = "6A265716-979C-4B63-AB57-6A34FBA57EF3";
paths = (
{
closed = 1;
nodes = (
"412 680 LINE",
"550 680 LINE SMOOTH",
"568 680 OFFCURVE",
"579 690 OFFCURVE",
"579 705 CURVE SMOOTH",
"579 720 OFFCURVE",
"568 730 OFFCURVE",
"550 730 CURVE SMOOTH",
"150 730 LINE SMOOTH",
"132 730 OFFCURVE",
"121 720 OFFCURVE",
"121 705 CURVE SMOOTH",
"121 690 OFFCURVE",
"132 680 OFFCURVE",
"150 680 CURVE SMOOTH",
"292 680 LINE",
"292 50 LINE",
"151 50 LINE SMOOTH",
"132 50 OFFCURVE",
"121 40 OFFCURVE",
"121 25 CURVE SMOOTH",
"121 10 OFFCURVE",
"132 0 OFFCURVE",
"151 0 CURVE SMOOTH",
"551 0 LINE SMOOTH",
"570 0 OFFCURVE",
"581 10 OFFCURVE",
"581 25 CURVE SMOOTH",
"581 40 OFFCURVE",
"570 50 OFFCURVE",
"551 50 CURVE SMOOTH",
"412 50 LINE"
);
},
{
closed = 1;
nodes = (
"273 803 OFFCURVE",
"303 831 OFFCURVE",
"303 868 CURVE SMOOTH",
"303 905 OFFCURVE",
"273 933 OFFCURVE",
"235 933 CURVE SMOOTH",
"198 933 OFFCURVE",
"167 905 OFFCURVE",
"167 868 CURVE SMOOTH",
"167 831 OFFCURVE",
"198 803 OFFCURVE",
"235 803 CURVE SMOOTH"
);
},
{
closed = 1;
nodes = (
"504 803 OFFCURVE",
"535 831 OFFCURVE",
"535 868 CURVE SMOOTH",
"535 905 OFFCURVE",
"504 933 OFFCURVE",
"466 933 CURVE SMOOTH",
"429 933 OFFCURVE",
"398 905 OFFCURVE",
"398 868 CURVE SMOOTH",
"398 831 OFFCURVE",
"429 803 OFFCURVE",
"466 803 CURVE SMOOTH"
);
}
);
width = 700;
}
);
unicode = 00CF;
},
{
glyphname = Igrave;
lastChange = "2020-09-05 14:24:52 +0000";
layers = (
{
layerId = "2C887366-8E1E-4334-B4A5-9B98F2C45AC5";
paths = (
{
closed = 1;
nodes = (
"392 700 LINE",
"546 700 LINE",
"557 700 OFFCURVE",
"564 706 OFFCURVE",
"564 715 CURVE SMOOTH",
"564 724 OFFCURVE",
"557 730 OFFCURVE",
"546 730 CURVE",
"154 730 LINE",
"143 730 OFFCURVE",
"136 724 OFFCURVE",
"136 715 CURVE SMOOTH",
"136 706 OFFCURVE",
"143 700 OFFCURVE",
"154 700 CURVE",
"312 700 LINE",
"312 30 LINE",
"159 30 LINE",
"148 30 OFFCURVE",
"141 24 OFFCURVE",
"141 15 CURVE SMOOTH",
"141 6 OFFCURVE",
"148 0 OFFCURVE",
"159 0 CURVE",
"543 0 LINE SMOOTH",
"554 0 OFFCURVE",
"561 6 OFFCURVE",
"561 15 CURVE SMOOTH",
"561 24 OFFCURVE",
"554 30 OFFCURVE",
"543 30 CURVE",
"392 30 LINE"
);
},
{
closed = 1;
nodes = (
"260 990 LINE SMOOTH",
"281 990 OFFCURVE",
"284 987 OFFCURVE",
"295 972 CURVE SMOOTH",
"409 809 LINE SMOOTH",
"415 800 OFFCURVE",
"421 789 OFFCURVE",
"413 783 CURVE SMOOTH",
"407 778 OFFCURVE",
"399 781 OFFCURVE",
"388 791 CURVE SMOOTH",
"211 963 LINE SMOOTH",
"193 981 OFFCURVE",
"197 990 OFFCURVE",
"220 990 CURVE SMOOTH"
);
}
);
width = 700;
},
{
layerId = "15A46FCC-DA81-4964-B403-68213F8F3DE4";
paths = (
{
closed = 1;
nodes = (
"402 680 LINE",
"540 680 LINE SMOOTH",
"558 680 OFFCURVE",
"569 690 OFFCURVE",
"569 705 CURVE SMOOTH",
"569 720 OFFCURVE",
"558 730 OFFCURVE",
"540 730 CURVE SMOOTH",
"160 730 LINE SMOOTH",
"142 730 OFFCURVE",
"131 720 OFFCURVE",
"131 705 CURVE SMOOTH",
"131 690 OFFCURVE",
"142 680 OFFCURVE",
"160 680 CURVE SMOOTH",
"302 680 LINE",
"302 50 LINE",
"161 50 LINE SMOOTH",
"142 50 OFFCURVE",
"131 40 OFFCURVE",
"131 25 CURVE SMOOTH",
"131 10 OFFCURVE",
"142 0 OFFCURVE",
"161 0 CURVE",
"541 0 LINE",
"560 0 OFFCURVE",
"571 10 OFFCURVE",
"571 25 CURVE SMOOTH",
"571 40 OFFCURVE",
"560 50 OFFCURVE",
"541 50 CURVE SMOOTH",
"402 50 LINE"
);
},
{
closed = 1;
nodes = (
"240 1000 LINE SMOOTH",
"271 1000 OFFCURVE",
"285 1000 OFFCURVE",
"299 980 CURVE SMOOTH",
"423 806 LINE SMOOTH",
"429 797 OFFCURVE",
"430 783 OFFCURVE",
"419 776 CURVE SMOOTH",
"408 769 OFFCURVE",
"395 773 OFFCURVE",
"384 783 CURVE SMOOTH",
"207 953 LINE SMOOTH",
"177 982 OFFCURVE",
"182 1000 OFFCURVE",
"213 1000 CURVE SMOOTH"
);
}
);
width = 700;
},
{
layerId = "6A265716-979C-4B63-AB57-6A34FBA57EF3";
paths = (
{
closed = 1;
nodes = (
"412 680 LINE",
"550 680 LINE SMOOTH",
"568 680 OFFCURVE",
"579 690 OFFCURVE",
"579 705 CURVE SMOOTH",
"579 720 OFFCURVE",
"568 730 OFFCURVE",
"550 730 CURVE SMOOTH",
"150 730 LINE SMOOTH",
"132 730 OFFCURVE",
"121 720 OFFCURVE",
"121 705 CURVE SMOOTH",
"121 690 OFFCURVE",
"132 680 OFFCURVE",
"150 680 CURVE SMOOTH",
"292 680 LINE",
"292 50 LINE",
"151 50 LINE SMOOTH",
"132 50 OFFCURVE",
"121 40 OFFCURVE",
"121 25 CURVE SMOOTH",
"121 10 OFFCURVE",
"132 0 OFFCURVE",
"151 0 CURVE SMOOTH",
"551 0 LINE SMOOTH",
"570 0 OFFCURVE",
"581 10 OFFCURVE",
"581 25 CURVE SMOOTH",
"581 40 OFFCURVE",
"570 50 OFFCURVE",
"551 50 CURVE SMOOTH",
"412 50 LINE"
);
},
{
closed = 1;
nodes = (
"250 1000 LINE SMOOTH",
"281 1000 OFFCURVE",
"295 1000 OFFCURVE",
"309 980 CURVE SMOOTH",
"429 812 LINE SMOOTH",
"441 796 OFFCURVE",
"439 772 OFFCURVE",
"418 767 CURVE SMOOTH",
"401 763 OFFCURVE",
"387 770 OFFCURVE",
"374 783 CURVE SMOOTH",
"197 953 LINE SMOOTH",
"167 982 OFFCURVE",
"172 1000 OFFCURVE",
"203 1000 CURVE SMOOTH"
);
}
);
width = 700;
}
);
unicode = 00CC;
},
{
glyphname = J;
lastChange = "2021-03-22 22:27:27 +0000";
layers = (
{
layerId = "2C887366-8E1E-4334-B4A5-9B98F2C45AC5";
paths = (
{
closed = 1;
nodes = (
"457 710 LINE",
"611 710 LINE SMOOTH",
"622 710 OFFCURVE",
"629 716 OFFCURVE",
"629 725 CURVE SMOOTH",
"629 734 OFFCURVE",
"622 740 OFFCURVE",
"611 740 CURVE SMOOTH",
"219 740 LINE SMOOTH",
"208 740 OFFCURVE",
"201 734 OFFCURVE",
"201 725 CURVE SMOOTH",
"201 716 OFFCURVE",
"208 710 OFFCURVE",
"219 710 CURVE SMOOTH",
"377 710 LINE",
"377 263 LINE SMOOTH",
"377 166 OFFCURVE",
"367 30 OFFCURVE",
"263 30 CURVE SMOOTH",
"153 30 OFFCURVE",
"123 107 OFFCURVE",
"119 144 CURVE",
"119 144 OFFCURVE",
"161 136 OFFCURVE",
"181 175 CURVE SMOOTH",
"195 203 OFFCURVE",
"190 234 OFFCURVE",
"158 247 CURVE SMOOTH",
"128 259 OFFCURVE",
"97 245 OFFCURVE",
"84 218 CURVE SMOOTH",
"52 152 OFFCURVE",
"99 0 OFFCURVE",
"263 0 CURVE SMOOTH",
"468 0 OFFCURVE",
"456 186 OFFCURVE",
"457 263 CURVE SMOOTH"
);
}
);
width = 700;
},
{
layerId = "15A46FCC-DA81-4964-B403-68213F8F3DE4";
paths = (
{
closed = 1;
nodes = (
"467 680 LINE",
"605 680 LINE SMOOTH",
"623 680 OFFCURVE",
"634 690 OFFCURVE",
"634 705 CURVE SMOOTH",
"634 720 OFFCURVE",
"623 730 OFFCURVE",
"605 730 CURVE SMOOTH",
"225 730 LINE SMOOTH",
"207 730 OFFCURVE",
"196 720 OFFCURVE",
"196 705 CURVE SMOOTH",
"196 690 OFFCURVE",
"207 680 OFFCURVE",
"225 680 CURVE SMOOTH",
"367 680 LINE",
"367 263 LINE SMOOTH",
"367 166 OFFCURVE",
"367 45 OFFCURVE",
"263 45 CURVE SMOOTH",
"205 45 OFFCURVE",
"177 60 OFFCURVE",
"152 94 CURVE",
"152 94 OFFCURVE",
"179 158 OFFCURVE",
"187 174 CURVE SMOOTH",
"199 200 OFFCURVE",
"205 237 OFFCURVE",
"159 257 CURVE SMOOTH",
"131 269 OFFCURVE",
"92 256 OFFCURVE",
"75 220 CURVE SMOOTH",
"43 153 OFFCURVE",
"94 0 OFFCURVE",
"263 0 CURVE SMOOTH",
"478 0 OFFCURVE",
"466 186 OFFCURVE",
"467 263 CURVE SMOOTH"
);
}
);
width = 700;
},
{
layerId = "6A265716-979C-4B63-AB57-6A34FBA57EF3";
paths = (
{
closed = 1;
nodes = (
"477 680 LINE",
"615 680 LINE SMOOTH",
"633 680 OFFCURVE",
"644 690 OFFCURVE",
"644 705 CURVE SMOOTH",
"644 720 OFFCURVE",
"633 730 OFFCURVE",
"615 730 CURVE SMOOTH",
"215 730 LINE SMOOTH",
"197 730 OFFCURVE",
"186 720 OFFCURVE",
"186 705 CURVE SMOOTH",
"186 690 OFFCURVE",
"197 680 OFFCURVE",
"215 680 CURVE SMOOTH",
"357 680 LINE",
"357 263 LINE SMOOTH",
"357 166 OFFCURVE",
"357 45 OFFCURVE",
"263 45 CURVE SMOOTH",
"148 45 OFFCURVE",
"163 109 OFFCURVE",
"163 112 CURVE",
"163 112 OFFCURVE",
"183 155 OFFCURVE",
"191 172 CURVE SMOOTH",
"204 200 OFFCURVE",
"211 241 OFFCURVE",
"161 262 CURVE",
"132 276 OFFCURVE",
"87 260 OFFCURVE",
"70 222 CURVE",
"38 155 OFFCURVE",
"94 0 OFFCURVE",
"263 0 CURVE SMOOTH",
"488 0 OFFCURVE",
"477 186 OFFCURVE",
"477 263 CURVE SMOOTH"
);
}
);
width = 700;
}
);
unicode = 004A;
},
{
glyphname = K;
lastChange = "2020-08-31 11:28:10 +0000";
layers = (
{
layerId = "2C887366-8E1E-4334-B4A5-9B98F2C45AC5";
paths = (
{
closed = 1;
nodes = (
"302 0 OFFCURVE",
"308 6 OFFCURVE",
"308 15 CURVE SMOOTH",
"308 24 OFFCURVE",
"302 30 OFFCURVE",
"291 30 CURVE SMOOTH",
"217 30 LINE",
"217 282 LINE",
"271 347 LINE",
"492 30 LINE",
"400 30 LINE SMOOTH",
"389 30 OFFCURVE",
"382 24 OFFCURVE",
"382 15 CURVE SMOOTH",
"382 6 OFFCURVE",
"389 0 OFFCURVE",
"400 0 CURVE SMOOTH",
"646 0 LINE SMOOTH",
"657 0 OFFCURVE",
"663 6 OFFCURVE",
"663 15 CURVE SMOOTH",
"663 24 OFFCURVE",
"657 30 OFFCURVE",
"646 30 CURVE SMOOTH",
"572 30 LINE",
"316 402 LINE",
"552 700 LINE",
"623 700 LINE SMOOTH",
"634 700 OFFCURVE",
"640 706 OFFCURVE",
"640 715 CURVE SMOOTH",
"640 724 OFFCURVE",
"634 730 OFFCURVE",
"623 730 CURVE SMOOTH",
"387 730 LINE SMOOTH",
"376 730 OFFCURVE",
"369 724 OFFCURVE",
"369 715 CURVE SMOOTH",
"369 706 OFFCURVE",
"376 700 OFFCURVE",
"387 700 CURVE SMOOTH",
"506 700 LINE",
"217 342 LINE",
"217 700 LINE",
"291 700 LINE SMOOTH",
"302 700 OFFCURVE",
"308 706 OFFCURVE",
"308 715 CURVE SMOOTH",
"308 724 OFFCURVE",
"302 730 OFFCURVE",
"291 730 CURVE SMOOTH",
"55 730 LINE SMOOTH",
"44 730 OFFCURVE",
"37 724 OFFCURVE",
"37 715 CURVE SMOOTH",
"37 706 OFFCURVE",
"44 700 OFFCURVE",
"55 700 CURVE SMOOTH",
"137 700 LINE",
"137 30 LINE",
"55 30 LINE SMOOTH",
"44 30 OFFCURVE",
"37 24 OFFCURVE",
"37 15 CURVE SMOOTH",
"37 6 OFFCURVE",
"44 0 OFFCURVE",
"55 0 CURVE SMOOTH",
"291 0 LINE SMOOTH"
);
}
);
width = 700;
},
{
layerId = "15A46FCC-DA81-4964-B403-68213F8F3DE4";
paths = (
{
closed = 1;
nodes = (
"297 0 OFFCURVE",
"308 10 OFFCURVE",
"308 25 CURVE SMOOTH",
"308 40 OFFCURVE",
"297 50 OFFCURVE",
"280 50 CURVE SMOOTH",
"227 50 LINE",
"227 269 LINE",
"277 333 LINE",
"458 50 LINE",
"408 50 LINE SMOOTH",
"391 50 OFFCURVE",
"380 40 OFFCURVE",
"380 25 CURVE SMOOTH",
"380 10 OFFCURVE",
"391 0 OFFCURVE",
"408 0 CURVE SMOOTH",
"632 0 LINE SMOOTH",
"650 0 OFFCURVE",
"661 10 OFFCURVE",
"661 25 CURVE SMOOTH",
"661 40 OFFCURVE",
"650 50 OFFCURVE",
"632 50 CURVE SMOOTH",
"576 50 LINE",
"343 415 LINE",
"552 680 LINE",
"612 680 LINE SMOOTH",
"629 680 OFFCURVE",
"640 690 OFFCURVE",
"640 705 CURVE SMOOTH",
"640 720 OFFCURVE",
"629 730 OFFCURVE",
"612 730 CURVE SMOOTH",
"397 730 LINE SMOOTH",
"380 730 OFFCURVE",
"369 720 OFFCURVE",
"369 705 CURVE SMOOTH",
"369 690 OFFCURVE",
"380 680 OFFCURVE",
"397 680 CURVE SMOOTH",
"472 680 LINE",
"227 368 LINE",
"227 680 LINE",
"279 680 LINE SMOOTH",
"297 680 OFFCURVE",
"308 690 OFFCURVE",
"308 705 CURVE SMOOTH",
"308 720 OFFCURVE",
"297 730 OFFCURVE",
"279 730 CURVE SMOOTH",
"66 730 LINE SMOOTH",
"48 730 OFFCURVE",
"37 720 OFFCURVE",
"37 705 CURVE SMOOTH",
"37 690 OFFCURVE",
"48 680 OFFCURVE",
"66 680 CURVE SMOOTH",
"127 680 LINE",
"127 50 LINE",
"65 50 LINE SMOOTH",
"48 50 OFFCURVE",
"37 40 OFFCURVE",
"37 25 CURVE SMOOTH",
"37 10 OFFCURVE",
"48 0 OFFCURVE",
"65 0 CURVE SMOOTH",
"280 0 LINE"
);
}
);
width = 700;
},
{
layerId = "6A265716-979C-4B63-AB57-6A34FBA57EF3";
paths = (
{
closed = 1;
nodes = (
"307 0 OFFCURVE",
"318 10 OFFCURVE",
"318 25 CURVE SMOOTH",
"318 40 OFFCURVE",
"307 50 OFFCURVE",
"290 50 CURVE SMOOTH",
"237 50 LINE",
"237 282 LINE",
"271 326 LINE",
"448 50 LINE",
"398 50 LINE SMOOTH",
"381 50 OFFCURVE",
"370 40 OFFCURVE",
"370 25 CURVE SMOOTH",
"370 10 OFFCURVE",
"381 0 OFFCURVE",
"398 0 CURVE SMOOTH",
"642 0 LINE SMOOTH",
"660 0 OFFCURVE",
"671 10 OFFCURVE",
"671 25 CURVE SMOOTH",
"671 40 OFFCURVE",
"660 50 OFFCURVE",
"642 50 CURVE SMOOTH",
"586 50 LINE",
"349 422 LINE",
"552 680 LINE",
"612 680 LINE SMOOTH",
"629 680 OFFCURVE",
"640 690 OFFCURVE",
"640 705 CURVE SMOOTH",
"640 720 OFFCURVE",
"629 730 OFFCURVE",
"612 730 CURVE SMOOTH",
"397 730 LINE SMOOTH",
"380 730 OFFCURVE",
"369 720 OFFCURVE",
"369 705 CURVE SMOOTH",
"369 690 OFFCURVE",
"380 680 OFFCURVE",
"397 680 CURVE SMOOTH",
"472 680 LINE",
"237 381 LINE",
"237 680 LINE",
"289 680 LINE SMOOTH",
"307 680 OFFCURVE",
"318 690 OFFCURVE",
"318 705 CURVE SMOOTH",
"318 720 OFFCURVE",
"307 730 OFFCURVE",
"289 730 CURVE SMOOTH",
"56 730 LINE SMOOTH",
"38 730 OFFCURVE",
"27 720 OFFCURVE",
"27 705 CURVE SMOOTH",
"27 690 OFFCURVE",
"38 680 OFFCURVE",
"56 680 CURVE SMOOTH",
"117 680 LINE",
"117 50 LINE",
"55 50 LINE SMOOTH",
"38 50 OFFCURVE",
"27 40 OFFCURVE",
"27 25 CURVE SMOOTH",
"27 10 OFFCURVE",
"38 0 OFFCURVE",
"55 0 CURVE SMOOTH",
"290 0 LINE SMOOTH"
);
}
);
width = 700;
}
);
unicode = 004B;
},
{
glyphname = L;
lastChange = "2020-08-31 11:28:10 +0000";
layers = (
{
layerId = "2C887366-8E1E-4334-B4A5-9B98F2C45AC5";
paths = (
{
closed = 1;
nodes = (
"75 6 OFFCURVE",
"82 0 OFFCURVE",
"93 0 CURVE SMOOTH",
"576 0 LINE SMOOTH",
"604 0 OFFCURVE",
"612 14 OFFCURVE",
"613 31 CURVE SMOOTH",
"629 223 LINE SMOOTH",
"630 240 OFFCURVE",
"626 246 OFFCURVE",
"614 246 CURVE SMOOTH",
"604 246 OFFCURVE",
"601 240 OFFCURVE",
"599 223 CURVE SMOOTH",
"592 160 LINE SMOOTH",
"585 99 OFFCURVE",
"574 30 OFFCURVE",
"477 30 CURVE SMOOTH",
"255 30 LINE",
"255 700 LINE",
"348 700 LINE SMOOTH",
"359 700 OFFCURVE",
"365 706 OFFCURVE",
"365 715 CURVE SMOOTH",
"365 724 OFFCURVE",
"359 730 OFFCURVE",
"348 730 CURVE SMOOTH",
"93 730 LINE SMOOTH",
"82 730 OFFCURVE",
"75 724 OFFCURVE",
"75 715 CURVE SMOOTH",
"75 706 OFFCURVE",
"82 700 OFFCURVE",
"93 700 CURVE SMOOTH",
"175 700 LINE",
"175 30 LINE",
"93 30 LINE SMOOTH",
"82 30 OFFCURVE",
"75 24 OFFCURVE",
"75 15 CURVE SMOOTH"
);
}
);
width = 700;
},
{
layerId = "15A46FCC-DA81-4964-B403-68213F8F3DE4";
paths = (
{
closed = 1;
nodes = (
"65 10 OFFCURVE",
"76 0 OFFCURVE",
"94 0 CURVE SMOOTH",
"591 0 LINE SMOOTH",
"619 0 OFFCURVE",
"627 14 OFFCURVE",
"628 31 CURVE SMOOTH",
"644 226 LINE SMOOTH",
"645 243 OFFCURVE",
"636 256 OFFCURVE",
"619 256 CURVE SMOOTH",
"602 256 OFFCURVE",
"593 243 OFFCURVE",
"592 226 CURVE SMOOTH",
"588 180 LINE SMOOTH",
"582 139 OFFCURVE",
"569 50 OFFCURVE",
"472 50 CURVE SMOOTH",
"270 50 LINE",
"270 680 LINE",
"346 680 LINE SMOOTH",
"364 680 OFFCURVE",
"375 690 OFFCURVE",
"375 705 CURVE SMOOTH",
"375 720 OFFCURVE",
"364 730 OFFCURVE",
"346 730 CURVE SMOOTH",
"94 730 LINE SMOOTH",
"76 730 OFFCURVE",
"65 720 OFFCURVE",
"65 705 CURVE SMOOTH",
"65 690 OFFCURVE",
"76 680 OFFCURVE",
"94 680 CURVE SMOOTH",
"170 680 LINE",
"170 50 LINE",
"94 50 LINE SMOOTH",
"76 50 OFFCURVE",
"65 40 OFFCURVE",
"65 25 CURVE SMOOTH"
);
}
);
width = 700;
},
{
layerId = "6A265716-979C-4B63-AB57-6A34FBA57EF3";
paths = (
{
closed = 1;
nodes = (
"50 10 OFFCURVE",
"61 0 OFFCURVE",
"79 0 CURVE SMOOTH",
"585 0 LINE SMOOTH",
"614 0 OFFCURVE",
"622 14 OFFCURVE",
"624 32 CURVE SMOOTH",
"640 230 LINE SMOOTH",
"642 248 OFFCURVE",
"632 261 OFFCURVE",
"614 261 CURVE SMOOTH",
"596 261 OFFCURVE",
"587 248 OFFCURVE",
"586 230 CURVE SMOOTH",
"582 182 LINE SMOOTH",
"577 139 OFFCURVE",
"564 50 OFFCURVE",
"467 50 CURVE SMOOTH",
"275 50 LINE",
"275 680 LINE",
"351 680 LINE SMOOTH",
"369 680 OFFCURVE",
"380 690 OFFCURVE",
"380 705 CURVE SMOOTH",
"380 720 OFFCURVE",
"369 730 OFFCURVE",
"351 730 CURVE SMOOTH",
"79 730 LINE SMOOTH",
"61 730 OFFCURVE",
"50 720 OFFCURVE",
"50 705 CURVE SMOOTH",
"50 690 OFFCURVE",
"61 680 OFFCURVE",
"79 680 CURVE SMOOTH",
"155 680 LINE",
"155 50 LINE",
"79 50 LINE SMOOTH",
"61 50 OFFCURVE",
"50 40 OFFCURVE",
"50 25 CURVE SMOOTH"
);
}
);
width = 700;
}
);
unicode = 004C;
},
{
glyphname = Lslash;
lastChange = "2020-09-06 12:17:19 +0000";
layers = (
{
layerId = "2C887366-8E1E-4334-B4A5-9B98F2C45AC5";
paths = (
{
closed = 1;
nodes = (
"255 30 LINE",
"255 700 LINE",
"348 700 LINE SMOOTH",
"359 700 OFFCURVE",
"365 706 OFFCURVE",
"365 715 CURVE SMOOTH",
"365 724 OFFCURVE",
"359 730 OFFCURVE",
"348 730 CURVE SMOOTH",
"83 730 LINE SMOOTH",
"72 730 OFFCURVE",
"65 724 OFFCURVE",
"65 715 CURVE SMOOTH",
"65 706 OFFCURVE",
"72 700 OFFCURVE",
"83 700 CURVE SMOOTH",
"175 700 LINE",
"175 30 LINE",
"83 30 LINE SMOOTH",
"72 30 OFFCURVE",
"65 24 OFFCURVE",
"65 15 CURVE SMOOTH",
"65 6 OFFCURVE",
"72 0 OFFCURVE",
"83 0 CURVE SMOOTH",
"576 0 LINE SMOOTH",
"604 0 OFFCURVE",
"612 14 OFFCURVE",
"613 31 CURVE SMOOTH",
"629 223 LINE SMOOTH",
"630 240 OFFCURVE",
"626 246 OFFCURVE",
"614 246 CURVE SMOOTH",
"604 246 OFFCURVE",
"601 240 OFFCURVE",
"599 223 CURVE SMOOTH",
"592 160 LINE SMOOTH",
"585 99 OFFCURVE",
"574 30 OFFCURVE",
"477 30 CURVE SMOOTH"
);
},
{
closed = 1;
nodes = (
"4 250 LINE SMOOTH",
"-5 244 OFFCURVE",
"-8 235 OFFCURVE",
"-3 227 CURVE SMOOTH",
"2 219 OFFCURVE",
"12 219 OFFCURVE",
"21 225 CURVE",
"424 509 LINE SMOOTH",
"433 515 OFFCURVE",
"436 524 OFFCURVE",
"430 531 CURVE SMOOTH",
"424 538 OFFCURVE",
"416 540 OFFCURVE",
"407 533 CURVE SMOOTH"
);
}
);
width = 700;
},
{
layerId = "15A46FCC-DA81-4964-B403-68213F8F3DE4";
paths = (
{
closed = 1;
nodes = (
"265 50 LINE",
"265 680 LINE",
"341 680 LINE SMOOTH",
"359 680 OFFCURVE",
"370 690 OFFCURVE",
"370 705 CURVE SMOOTH",
"370 720 OFFCURVE",
"359 730 OFFCURVE",
"341 730 CURVE SMOOTH",
"89 730 LINE SMOOTH",
"71 730 OFFCURVE",
"60 720 OFFCURVE",
"60 705 CURVE SMOOTH",
"60 690 OFFCURVE",
"71 680 OFFCURVE",
"89 680 CURVE SMOOTH",
"165 680 LINE",
"165 50 LINE",
"89 50 LINE SMOOTH",
"71 50 OFFCURVE",
"60 40 OFFCURVE",
"60 25 CURVE SMOOTH",
"60 10 OFFCURVE",
"71 0 OFFCURVE",
"89 0 CURVE SMOOTH",
"586 0 LINE SMOOTH",
"614 0 OFFCURVE",
"622 14 OFFCURVE",
"623 31 CURVE SMOOTH",
"639 226 LINE SMOOTH",
"640 243 OFFCURVE",
"631 256 OFFCURVE",
"614 256 CURVE SMOOTH",
"597 256 OFFCURVE",
"588 243 OFFCURVE",
"587 226 CURVE SMOOTH",
"583 180 LINE SMOOTH",
"577 139 OFFCURVE",
"564 50 OFFCURVE",
"467 50 CURVE SMOOTH"
);
},
{
closed = 1;
nodes = (
"9 266 LINE SMOOTH",
"-10 253 OFFCURVE",
"-25 239 OFFCURVE",
"-10 220 CURVE SMOOTH",
"2 205 OFFCURVE",
"18 209 OFFCURVE",
"39 224 CURVE SMOOTH",
"423 493 LINE SMOOTH",
"441 506 OFFCURVE",
"457 519 OFFCURVE",
"443 538 CURVE SMOOTH",
"431 554 OFFCURVE",
"414 548 OFFCURVE",
"393 534 CURVE SMOOTH"
);
}
);
width = 700;
},
{
layerId = "6A265716-979C-4B63-AB57-6A34FBA57EF3";
paths = (
{
closed = 1;
nodes = (
"275 50 LINE",
"275 680 LINE",
"351 680 LINE SMOOTH",
"369 680 OFFCURVE",
"380 690 OFFCURVE",
"380 705 CURVE SMOOTH",
"380 720 OFFCURVE",
"369 730 OFFCURVE",
"351 730 CURVE SMOOTH",
"79 730 LINE SMOOTH",
"61 730 OFFCURVE",
"50 720 OFFCURVE",
"50 705 CURVE SMOOTH",
"50 690 OFFCURVE",
"61 680 OFFCURVE",
"79 680 CURVE SMOOTH",
"155 680 LINE",
"155 50 LINE",
"79 50 LINE SMOOTH",
"61 50 OFFCURVE",
"50 40 OFFCURVE",
"50 25 CURVE SMOOTH",
"50 10 OFFCURVE",
"61 0 OFFCURVE",
"79 0 CURVE SMOOTH",
"585 0 LINE SMOOTH",
"614 0 OFFCURVE",
"623 14 OFFCURVE",
"624 32 CURVE SMOOTH",
"640 230 LINE SMOOTH",
"641 248 OFFCURVE",
"632 261 OFFCURVE",
"614 261 CURVE SMOOTH",
"596 261 OFFCURVE",
"587 248 OFFCURVE",
"586 230 CURVE SMOOTH",
"582 182 LINE SMOOTH",
"578 139 OFFCURVE",
"564 50 OFFCURVE",
"467 50 CURVE SMOOTH"
);
},
{
closed = 1;
nodes = (
"9 266 LINE SMOOTH",
"-10 253 OFFCURVE",
"-25 239 OFFCURVE",
"-10 220 CURVE SMOOTH",
"2 205 OFFCURVE",
"18 209 OFFCURVE",
"39 224 CURVE SMOOTH",
"423 493 LINE SMOOTH",
"441 506 OFFCURVE",
"457 519 OFFCURVE",
"443 538 CURVE SMOOTH",
"431 554 OFFCURVE",
"414 548 OFFCURVE",
"393 534 CURVE SMOOTH"
);
}
);
width = 700;
}
);
unicode = 0141;
},
{
glyphname = M;
lastChange = "2021-05-04 11:15:06 +0000";
layers = (
{
layerId = "2C887366-8E1E-4334-B4A5-9B98F2C45AC5";
paths = (
{
closed = 1;
nodes = (
"518 30 LINE",
"439 30 LINE SMOOTH",
"428 30 OFFCURVE",
"421 24 OFFCURVE",
"421 15 CURVE SMOOTH",
"421 6 OFFCURVE",
"428 0 OFFCURVE",
"439 0 CURVE SMOOTH",
"663 0 LINE SMOOTH",
"674 0 OFFCURVE",
"681 6 OFFCURVE",
"681 15 CURVE SMOOTH",
"681 24 OFFCURVE",
"674 30 OFFCURVE",
"663 30 CURVE SMOOTH",
"598 30 LINE",
"599 700 LINE",
"663 700 LINE SMOOTH",
"674 700 OFFCURVE",
"681 706 OFFCURVE",
"681 715 CURVE SMOOTH",
"681 724 OFFCURVE",
"674 730 OFFCURVE",
"663 730 CURVE SMOOTH",
"568 730 LINE SMOOTH",
"550 730 OFFCURVE",
"545 720 OFFCURVE",
"536 700 CURVE SMOOTH",
"367 316 LINE",
"176 700 LINE SMOOTH",
"167 720 OFFCURVE",
"162 730 OFFCURVE",
"144 730 CURVE SMOOTH",
"37 730 LINE SMOOTH",
"26 730 OFFCURVE",
"19 724 OFFCURVE",
"19 715 CURVE SMOOTH",
"19 706 OFFCURVE",
"26 700 OFFCURVE",
"37 700 CURVE SMOOTH",
"115 700 LINE",
"116 30 LINE",
"32 30 LINE SMOOTH",
"21 30 OFFCURVE",
"14 24 OFFCURVE",
"14 15 CURVE SMOOTH",
"14 6 OFFCURVE",
"21 0 OFFCURVE",
"32 0 CURVE SMOOTH",
"242 0 LINE SMOOTH",
"253 0 OFFCURVE",
"260 6 OFFCURVE",
"260 15 CURVE SMOOTH",
"260 24 OFFCURVE",
"253 30 OFFCURVE",
"242 30 CURVE SMOOTH",
"146 30 LINE",
"146 600 LINE",
"316 232 LINE SMOOTH",
"324 216 OFFCURVE",
"329 207 OFFCURVE",
"339 207 CURVE SMOOTH",
"347 207 OFFCURVE",
"351 209 OFFCURVE",
"360 230 CURVE SMOOTH",
"518 591 LINE"
);
}
);
width = 700;
},
{
layerId = "15A46FCC-DA81-4964-B403-68213F8F3DE4";
paths = (
{
closed = 1;
nodes = (
"513 50 LINE",
"438 50 LINE SMOOTH",
"423 50 OFFCURVE",
"412 40 OFFCURVE",
"412 25 CURVE SMOOTH",
"412 10 OFFCURVE",
"423 0 OFFCURVE",
"438 0 CURVE SMOOTH",
"658 0 LINE SMOOTH",
"676 0 OFFCURVE",
"686 10 OFFCURVE",
"686 25 CURVE SMOOTH",
"686 39 OFFCURVE",
"676 50 OFFCURVE",
"658 50 CURVE SMOOTH",
"613 50 LINE",
"614 675 LINE",
"657 680 LINE SMOOTH",
"673 682 OFFCURVE",
"686 688 OFFCURVE",
"686 705 CURVE SMOOTH",
"686 722 OFFCURVE",
"673 730 OFFCURVE",
"657 730 CURVE SMOOTH",
"563 730 LINE SMOOTH",
"532 730 OFFCURVE",
"523 712 OFFCURVE",
"507 678 CURVE SMOOTH",
"359 348 LINE",
"196 678 LINE SMOOTH",
"180 712 OFFCURVE",
"171 730 OFFCURVE",
"140 730 CURVE SMOOTH",
"43 730 LINE SMOOTH",
"27 730 OFFCURVE",
"14 722 OFFCURVE",
"14 705 CURVE SMOOTH",
"14 688 OFFCURVE",
"27 682 OFFCURVE",
"43 680 CURVE SMOOTH",
"95 675 LINE",
"96 50 LINE",
"40 50 LINE SMOOTH",
"25 50 OFFCURVE",
"14 40 OFFCURVE",
"14 25 CURVE SMOOTH",
"14 10 OFFCURVE",
"25 0 OFFCURVE",
"40 0 CURVE SMOOTH",
"242 0 LINE SMOOTH",
"260 0 OFFCURVE",
"270 10 OFFCURVE",
"270 25 CURVE SMOOTH",
"270 39 OFFCURVE",
"260 50 OFFCURVE",
"242 50 CURVE SMOOTH",
"156 50 LINE",
"156 545 LINE",
"299 237 LINE SMOOTH",
"308 218 OFFCURVE",
"313 201 OFFCURVE",
"333 201 CURVE SMOOTH",
"352 201 OFFCURVE",
"357 218 OFFCURVE",
"366 237 CURVE SMOOTH",
"513 569 LINE"
);
}
);
width = 700;
},
{
layerId = "6A265716-979C-4B63-AB57-6A34FBA57EF3";
paths = (
{
closed = 1;
nodes = (
"503 50 LINE",
"438 50 LINE SMOOTH",
"423 50 OFFCURVE",
"412 40 OFFCURVE",
"412 25 CURVE SMOOTH",
"412 10 OFFCURVE",
"423 0 OFFCURVE",
"438 0 CURVE SMOOTH",
"673 0 LINE SMOOTH",
"691 0 OFFCURVE",
"701 10 OFFCURVE",
"701 25 CURVE SMOOTH",
"701 39 OFFCURVE",
"691 50 OFFCURVE",
"673 50 CURVE SMOOTH",
"623 50 LINE",
"624 675 LINE",
"672 680 LINE SMOOTH",
"688 682 OFFCURVE",
"701 688 OFFCURVE",
"701 705 CURVE SMOOTH",
"701 722 OFFCURVE",
"688 730 OFFCURVE",
"672 730 CURVE SMOOTH",
"563 730 LINE SMOOTH",
"532 730 OFFCURVE",
"522 712 OFFCURVE",
"507 678 CURVE SMOOTH",
"364 359 LINE",
"206 678 LINE SMOOTH",
"189 712 OFFCURVE",
"181 730 OFFCURVE",
"150 730 CURVE SMOOTH",
"43 730 LINE SMOOTH",
"27 730 OFFCURVE",
"14 722 OFFCURVE",
"14 705 CURVE SMOOTH",
"14 688 OFFCURVE",
"27 682 OFFCURVE",
"43 680 CURVE SMOOTH",
"95 675 LINE",
"96 50 LINE",
"40 50 LINE SMOOTH",
"25 50 OFFCURVE",
"14 40 OFFCURVE",
"14 25 CURVE SMOOTH",
"14 10 OFFCURVE",
"25 0 OFFCURVE",
"40 0 CURVE SMOOTH",
"242 0 LINE SMOOTH",
"260 0 OFFCURVE",
"270 10 OFFCURVE",
"270 25 CURVE SMOOTH",
"270 39 OFFCURVE",
"260 50 OFFCURVE",
"242 50 CURVE SMOOTH",
"156 50 LINE",
"156 524 LINE",
"285 246 LINE SMOOTH",
"296 222 OFFCURVE",
"303 200 OFFCURVE",
"328 200 CURVE SMOOTH",
"352 200 OFFCURVE",
"359 221 OFFCURVE",
"370 246 CURVE SMOOTH",
"506 554 LINE"
);
}
);
width = 700;
}
);
unicode = 004D;
},
{
glyphname = N;
lastChange = "2020-08-31 11:28:10 +0000";
layers = (
{
layerId = "2C887366-8E1E-4334-B4A5-9B98F2C45AC5";
paths = (
{
closed = 1;
nodes = (
"482 31 LINE SMOOTH",
"497 0 OFFCURVE",
"508 0 OFFCURVE",
"535 0 CURVE SMOOTH",
"568 0 OFFCURVE",
"569 0 OFFCURVE",
"569 31 CURVE SMOOTH",
"569 700 LINE",
"654 700 LINE SMOOTH",
"665 700 OFFCURVE",
"672 706 OFFCURVE",
"672 715 CURVE SMOOTH",
"672 724 OFFCURVE",
"665 730 OFFCURVE",
"654 730 CURVE SMOOTH",
"446 730 LINE SMOOTH",
"435 730 OFFCURVE",
"428 724 OFFCURVE",
"428 715 CURVE SMOOTH",
"428 706 OFFCURVE",
"435 700 OFFCURVE",
"446 700 CURVE SMOOTH",
"529 700 LINE",
"529 105 LINE",
"243 687 LINE SMOOTH",
"226 721 OFFCURVE",
"222 730 OFFCURVE",
"197 730 CURVE SMOOTH",
"76 730 LINE SMOOTH",
"65 730 OFFCURVE",
"58 724 OFFCURVE",
"58 715 CURVE SMOOTH",
"58 706 OFFCURVE",
"65 700 OFFCURVE",
"76 700 CURVE SMOOTH",
"143 700 LINE",
"144 30 LINE",
"61 30 LINE SMOOTH",
"50 30 OFFCURVE",
"43 24 OFFCURVE",
"43 15 CURVE SMOOTH",
"43 6 OFFCURVE",
"50 0 OFFCURVE",
"61 0 CURVE SMOOTH",
"269 0 LINE SMOOTH",
"280 0 OFFCURVE",
"287 6 OFFCURVE",
"287 15 CURVE SMOOTH",
"287 24 OFFCURVE",
"280 30 OFFCURVE",
"269 30 CURVE SMOOTH",
"184 30 LINE",
"184 641 LINE"
);
}
);
width = 700;
},
{
layerId = "15A46FCC-DA81-4964-B403-68213F8F3DE4";
paths = (
{
closed = 1;
nodes = (
"464 47 LINE SMOOTH",
"481 12 OFFCURVE",
"494 0 OFFCURVE",
"525 0 CURVE SMOOTH",
"558 0 OFFCURVE",
"579 0 OFFCURVE",
"579 31 CURVE SMOOTH",
"579 680 LINE",
"649 680 LINE SMOOTH",
"667 680 OFFCURVE",
"677 690 OFFCURVE",
"677 705 CURVE SMOOTH",
"677 719 OFFCURVE",
"667 730 OFFCURVE",
"649 730 CURVE SMOOTH",
"449 730 LINE SMOOTH",
"434 730 OFFCURVE",
"423 720 OFFCURVE",
"423 705 CURVE SMOOTH",
"423 690 OFFCURVE",
"434 680 OFFCURVE",
"449 680 CURVE SMOOTH",
"519 680 LINE",
"519 150 LINE",
"262 680 LINE SMOOTH",
"245 714 OFFCURVE",
"234 730 OFFCURVE",
"204 730 CURVE SMOOTH",
"82 730 LINE SMOOTH",
"66 730 OFFCURVE",
"53 722 OFFCURVE",
"53 705 CURVE SMOOTH",
"53 688 OFFCURVE",
"66 682 OFFCURVE",
"82 680 CURVE SMOOTH",
"133 675 LINE",
"134 50 LINE",
"64 50 LINE SMOOTH",
"49 50 OFFCURVE",
"38 40 OFFCURVE",
"38 25 CURVE SMOOTH",
"38 10 OFFCURVE",
"49 0 OFFCURVE",
"64 0 CURVE SMOOTH",
"264 0 LINE SMOOTH",
"282 0 OFFCURVE",
"292 10 OFFCURVE",
"292 25 CURVE SMOOTH",
"292 39 OFFCURVE",
"282 50 OFFCURVE",
"264 50 CURVE SMOOTH",
"194 50 LINE",
"194 601 LINE"
);
}
);
width = 700;
},
{
layerId = "6A265716-979C-4B63-AB57-6A34FBA57EF3";
paths = (
{
closed = 1;
nodes = (
"454 47 LINE SMOOTH",
"471 12 OFFCURVE",
"484 0 OFFCURVE",
"525 0 CURVE SMOOTH",
"558 0 OFFCURVE",
"579 0 OFFCURVE",
"579 31 CURVE SMOOTH",
"579 680 LINE",
"649 680 LINE SMOOTH",
"667 680 OFFCURVE",
"677 690 OFFCURVE",
"677 705 CURVE SMOOTH",
"677 719 OFFCURVE",
"667 730 OFFCURVE",
"649 730 CURVE SMOOTH",
"449 730 LINE SMOOTH",
"434 730 OFFCURVE",
"423 720 OFFCURVE",
"423 705 CURVE SMOOTH",
"423 690 OFFCURVE",
"434 680 OFFCURVE",
"449 680 CURVE SMOOTH",
"519 680 LINE",
"519 170 LINE",
"272 680 LINE SMOOTH",
"255 714 OFFCURVE",
"244 730 OFFCURVE",
"214 730 CURVE SMOOTH",
"82 730 LINE SMOOTH",
"66 730 OFFCURVE",
"53 722 OFFCURVE",
"53 705 CURVE SMOOTH",
"53 688 OFFCURVE",
"66 682 OFFCURVE",
"82 680 CURVE SMOOTH",
"133 675 LINE",
"134 50 LINE",
"64 50 LINE SMOOTH",
"49 50 OFFCURVE",
"38 40 OFFCURVE",
"38 25 CURVE SMOOTH",
"38 10 OFFCURVE",
"49 0 OFFCURVE",
"64 0 CURVE SMOOTH",
"264 0 LINE SMOOTH",
"282 0 OFFCURVE",
"292 10 OFFCURVE",
"292 25 CURVE SMOOTH",
"292 39 OFFCURVE",
"282 50 OFFCURVE",
"264 50 CURVE SMOOTH",
"194 50 LINE",
"194 581 LINE"
);
}
);
width = 700;
}
);
unicode = 004E;
},
{
glyphname = Ntilde;
lastChange = "2020-09-05 14:27:28 +0000";
layers = (
{
layerId = "2C887366-8E1E-4334-B4A5-9B98F2C45AC5";
paths = (
{
closed = 1;
nodes = (
"482 31 LINE SMOOTH",
"497 0 OFFCURVE",
"508 0 OFFCURVE",
"535 0 CURVE SMOOTH",
"568 0 OFFCURVE",
"569 0 OFFCURVE",
"569 31 CURVE SMOOTH",
"569 700 LINE",
"654 700 LINE SMOOTH",
"665 700 OFFCURVE",
"672 706 OFFCURVE",
"672 715 CURVE SMOOTH",
"672 724 OFFCURVE",
"665 730 OFFCURVE",
"654 730 CURVE SMOOTH",
"446 730 LINE SMOOTH",
"435 730 OFFCURVE",
"428 724 OFFCURVE",
"428 715 CURVE SMOOTH",
"428 706 OFFCURVE",
"435 700 OFFCURVE",
"446 700 CURVE SMOOTH",
"529 700 LINE",
"529 105 LINE",
"243 687 LINE SMOOTH",
"226 721 OFFCURVE",
"222 730 OFFCURVE",
"197 730 CURVE SMOOTH",
"76 730 LINE SMOOTH",
"65 730 OFFCURVE",
"58 724 OFFCURVE",
"58 715 CURVE SMOOTH",
"58 706 OFFCURVE",
"65 700 OFFCURVE",
"76 700 CURVE SMOOTH",
"143 700 LINE",
"144 30 LINE",
"61 30 LINE SMOOTH",
"50 30 OFFCURVE",
"43 24 OFFCURVE",
"43 15 CURVE SMOOTH",
"43 6 OFFCURVE",
"50 0 OFFCURVE",
"61 0 CURVE SMOOTH",
"269 0 LINE SMOOTH",
"280 0 OFFCURVE",
"287 6 OFFCURVE",
"287 15 CURVE SMOOTH",
"287 24 OFFCURVE",
"280 30 OFFCURVE",
"269 30 CURVE SMOOTH",
"184 30 LINE",
"184 641 LINE"
);
},
{
closed = 1;
nodes = (
"354 865 OFFCURVE",
"388 798 OFFCURVE",
"448 798 CURVE SMOOTH",
"479 798 OFFCURVE",
"523 807 OFFCURVE",
"555 869 CURVE SMOOTH",
"568 894 OFFCURVE",
"543 909 OFFCURVE",
"528 885 CURVE SMOOTH",
"502 843 OFFCURVE",
"485 828 OFFCURVE",
"448 828 CURVE SMOOTH",
"401 828 OFFCURVE",
"363 897 OFFCURVE",
"296 895 CURVE SMOOTH",
"255 894 OFFCURVE",
"221 880 OFFCURVE",
"192 828 CURVE SMOOTH",
"177 801 OFFCURVE",
"205 787 OFFCURVE",
"217 807 CURVE SMOOTH",
"240 845 OFFCURVE",
"259 865 OFFCURVE",
"296 865 CURVE SMOOTH"
);
}
);
width = 700;
},
{
layerId = "15A46FCC-DA81-4964-B403-68213F8F3DE4";
paths = (
{
closed = 1;
nodes = (
"464 47 LINE SMOOTH",
"481 12 OFFCURVE",
"494 0 OFFCURVE",
"525 0 CURVE SMOOTH",
"558 0 OFFCURVE",
"579 0 OFFCURVE",
"579 31 CURVE SMOOTH",
"579 680 LINE",
"649 680 LINE SMOOTH",
"667 680 OFFCURVE",
"677 690 OFFCURVE",
"677 705 CURVE SMOOTH",
"677 719 OFFCURVE",
"667 730 OFFCURVE",
"649 730 CURVE SMOOTH",
"449 730 LINE SMOOTH",
"434 730 OFFCURVE",
"423 720 OFFCURVE",
"423 705 CURVE SMOOTH",
"423 690 OFFCURVE",
"434 680 OFFCURVE",
"449 680 CURVE SMOOTH",
"519 680 LINE",
"519 150 LINE",
"262 680 LINE SMOOTH",
"245 714 OFFCURVE",
"234 730 OFFCURVE",
"204 730 CURVE SMOOTH",
"82 730 LINE SMOOTH",
"66 730 OFFCURVE",
"53 722 OFFCURVE",
"53 705 CURVE SMOOTH",
"53 688 OFFCURVE",
"66 682 OFFCURVE",
"82 680 CURVE SMOOTH",
"133 675 LINE",
"134 50 LINE",
"64 50 LINE SMOOTH",
"49 50 OFFCURVE",
"38 40 OFFCURVE",
"38 25 CURVE SMOOTH",
"38 10 OFFCURVE",
"49 0 OFFCURVE",
"64 0 CURVE SMOOTH",
"264 0 LINE SMOOTH",
"282 0 OFFCURVE",
"292 10 OFFCURVE",
"292 25 CURVE SMOOTH",
"292 39 OFFCURVE",
"282 50 OFFCURVE",
"264 50 CURVE SMOOTH",
"194 50 LINE",
"194 601 LINE"
);
},
{
closed = 1;
nodes = (
"354 854 OFFCURVE",
"378 787 OFFCURVE",
"448 787 CURVE SMOOTH",
"488 787 OFFCURVE",
"534 803 OFFCURVE",
"565 866 CURVE SMOOTH",
"582 900 OFFCURVE",
"536 924 OFFCURVE",
"515 885 CURVE SMOOTH",
"497 851 OFFCURVE",
"475 838 OFFCURVE",
"448 838 CURVE SMOOTH",
"406 838 OFFCURVE",
"373 906 OFFCURVE",
"296 904 CURVE SMOOTH",
"255 903 OFFCURVE",
"210 890 OFFCURVE",
"180 827 CURVE SMOOTH",
"164 793 OFFCURVE",
"209 769 OFFCURVE",
"229 806 CURVE SMOOTH",
"248 841 OFFCURVE",
"269 854 OFFCURVE",
"296 854 CURVE SMOOTH"
);
}
);
width = 700;
},
{
layerId = "6A265716-979C-4B63-AB57-6A34FBA57EF3";
paths = (
{
closed = 1;
nodes = (
"454 47 LINE SMOOTH",
"471 12 OFFCURVE",
"484 0 OFFCURVE",
"525 0 CURVE SMOOTH",
"558 0 OFFCURVE",
"579 0 OFFCURVE",
"579 31 CURVE SMOOTH",
"579 680 LINE",
"649 680 LINE SMOOTH",
"667 680 OFFCURVE",
"677 690 OFFCURVE",
"677 705 CURVE SMOOTH",
"677 719 OFFCURVE",
"667 730 OFFCURVE",
"649 730 CURVE SMOOTH",
"449 730 LINE SMOOTH",
"434 730 OFFCURVE",
"423 720 OFFCURVE",
"423 705 CURVE SMOOTH",
"423 690 OFFCURVE",
"434 680 OFFCURVE",
"449 680 CURVE SMOOTH",
"519 680 LINE",
"519 170 LINE",
"272 680 LINE SMOOTH",
"255 714 OFFCURVE",
"244 730 OFFCURVE",
"214 730 CURVE SMOOTH",
"82 730 LINE SMOOTH",
"66 730 OFFCURVE",
"53 722 OFFCURVE",
"53 705 CURVE SMOOTH",
"53 688 OFFCURVE",
"66 682 OFFCURVE",
"82 680 CURVE SMOOTH",
"133 675 LINE",
"134 50 LINE",
"64 50 LINE SMOOTH",
"49 50 OFFCURVE",
"38 40 OFFCURVE",
"38 25 CURVE SMOOTH",
"38 10 OFFCURVE",
"49 0 OFFCURVE",
"64 0 CURVE SMOOTH",
"264 0 LINE SMOOTH",
"282 0 OFFCURVE",
"292 10 OFFCURVE",
"292 25 CURVE SMOOTH",
"292 39 OFFCURVE",
"282 50 OFFCURVE",
"264 50 CURVE SMOOTH",
"194 50 LINE",
"194 581 LINE"
);
},
{
closed = 1;
nodes = (
"353 844 OFFCURVE",
"377 777 OFFCURVE",
"447 777 CURVE SMOOTH",
"487 777 OFFCURVE",
"530 796 OFFCURVE",
"566 856 CURVE SMOOTH",
"593 901 OFFCURVE",
"541 935 OFFCURVE",
"514 895 CURVE",
"494 862 OFFCURVE",
"474 848 OFFCURVE",
"447 848 CURVE SMOOTH",
"406 848 OFFCURVE",
"373 914 OFFCURVE",
"298 914 CURVE SMOOTH",
"242 914 OFFCURVE",
"207 884 OFFCURVE",
"177 837 CURVE SMOOTH",
"149 793 OFFCURVE",
"201 758 OFFCURVE",
"230 796 CURVE SMOOTH",
"257 831 OFFCURVE",
"268 844 OFFCURVE",
"295 844 CURVE SMOOTH"
);
}
);
width = 700;
}
);
unicode = 00D1;
},
{
glyphname = O;
lastChange = "2020-08-31 11:28:10 +0000";
layers = (
{
layerId = "2C887366-8E1E-4334-B4A5-9B98F2C45AC5";
paths = (
{
closed = 1;
nodes = (
"499 -5 OFFCURVE",
"616 133 OFFCURVE",
"616 365 CURVE SMOOTH",
"616 597 OFFCURVE",
"499 735 OFFCURVE",
"351 735 CURVE SMOOTH",
"204 735 OFFCURVE",
"85 595 OFFCURVE",
"85 365 CURVE SMOOTH",
"85 133 OFFCURVE",
"202 -5 OFFCURVE",
"351 -5 CURVE SMOOTH"
);
},
{
closed = 1;
nodes = (
"238 25 OFFCURVE",
"165 192 OFFCURVE",
"165 365 CURVE SMOOTH",
"165 537 OFFCURVE",
"238 705 OFFCURVE",
"351 705 CURVE SMOOTH",
"463 705 OFFCURVE",
"536 537 OFFCURVE",
"536 365 CURVE SMOOTH",
"536 192 OFFCURVE",
"463 25 OFFCURVE",
"351 25 CURVE SMOOTH"
);
}
);
width = 700;
},
{
layerId = "15A46FCC-DA81-4964-B403-68213F8F3DE4";
paths = (
{
closed = 1;
nodes = (
"499 -5 OFFCURVE",
"631 133 OFFCURVE",
"631 365 CURVE SMOOTH",
"631 597 OFFCURVE",
"499 735 OFFCURVE",
"351 735 CURVE SMOOTH",
"204 735 OFFCURVE",
"70 595 OFFCURVE",
"70 365 CURVE SMOOTH",
"70 133 OFFCURVE",
"202 -5 OFFCURVE",
"351 -5 CURVE SMOOTH"
);
},
{
closed = 1;
nodes = (
"238 45 OFFCURVE",
"180 192 OFFCURVE",
"180 365 CURVE SMOOTH",
"180 537 OFFCURVE",
"238 685 OFFCURVE",
"351 685 CURVE SMOOTH",
"463 685 OFFCURVE",
"521 537 OFFCURVE",
"521 365 CURVE SMOOTH",
"521 192 OFFCURVE",
"463 45 OFFCURVE",
"351 45 CURVE SMOOTH"
);
}
);
width = 700;
},
{
layerId = "6A265716-979C-4B63-AB57-6A34FBA57EF3";
paths = (
{
closed = 1;
nodes = (
"509 -5 OFFCURVE",
"641 133 OFFCURVE",
"641 365 CURVE SMOOTH",
"641 597 OFFCURVE",
"509 735 OFFCURVE",
"351 735 CURVE SMOOTH",
"194 735 OFFCURVE",
"60 595 OFFCURVE",
"60 365 CURVE SMOOTH",
"60 133 OFFCURVE",
"192 -5 OFFCURVE",
"351 -5 CURVE SMOOTH"
);
},
{
closed = 1;
nodes = (
"248 45 OFFCURVE",
"190 192 OFFCURVE",
"190 365 CURVE SMOOTH",
"190 537 OFFCURVE",
"248 685 OFFCURVE",
"351 685 CURVE SMOOTH",
"453 685 OFFCURVE",
"511 537 OFFCURVE",
"511 365 CURVE SMOOTH",
"511 192 OFFCURVE",
"453 45 OFFCURVE",
"351 45 CURVE SMOOTH"
);
}
);
width = 700;
}
);
unicode = 004F;
},
{
glyphname = Oacute;
lastChange = "2020-09-05 14:28:36 +0000";
layers = (
{
layerId = "2C887366-8E1E-4334-B4A5-9B98F2C45AC5";
paths = (
{
closed = 1;
nodes = (
"499 -5 OFFCURVE",
"616 133 OFFCURVE",
"616 365 CURVE SMOOTH",
"616 597 OFFCURVE",
"499 735 OFFCURVE",
"351 735 CURVE SMOOTH",
"204 735 OFFCURVE",
"85 595 OFFCURVE",
"85 365 CURVE SMOOTH",
"85 133 OFFCURVE",
"202 -5 OFFCURVE",
"351 -5 CURVE SMOOTH"
);
},
{
closed = 1;
nodes = (
"238 25 OFFCURVE",
"165 192 OFFCURVE",
"165 365 CURVE SMOOTH",
"165 537 OFFCURVE",
"238 705 OFFCURVE",
"351 705 CURVE SMOOTH",
"463 705 OFFCURVE",
"536 537 OFFCURVE",
"536 365 CURVE SMOOTH",
"536 192 OFFCURVE",
"463 25 OFFCURVE",
"351 25 CURVE SMOOTH"
);
},
{
closed = 1;
nodes = (
"544 990 OFFCURVE",
"548 981 OFFCURVE",
"530 963 CURVE SMOOTH",
"353 791 LINE SMOOTH",
"342 781 OFFCURVE",
"334 778 OFFCURVE",
"328 783 CURVE SMOOTH",
"320 789 OFFCURVE",
"326 800 OFFCURVE",
"332 809 CURVE SMOOTH",
"446 972 LINE SMOOTH",
"457 987 OFFCURVE",
"460 990 OFFCURVE",
"481 990 CURVE SMOOTH",
"521 990 LINE SMOOTH"
);
}
);
width = 700;
},
{
layerId = "15A46FCC-DA81-4964-B403-68213F8F3DE4";
paths = (
{
closed = 1;
nodes = (
"499 -5 OFFCURVE",
"631 133 OFFCURVE",
"631 365 CURVE SMOOTH",
"631 597 OFFCURVE",
"499 735 OFFCURVE",
"351 735 CURVE SMOOTH",
"204 735 OFFCURVE",
"70 595 OFFCURVE",
"70 365 CURVE SMOOTH",
"70 133 OFFCURVE",
"202 -5 OFFCURVE",
"351 -5 CURVE SMOOTH"
);
},
{
closed = 1;
nodes = (
"238 45 OFFCURVE",
"180 192 OFFCURVE",
"180 365 CURVE SMOOTH",
"180 537 OFFCURVE",
"238 685 OFFCURVE",
"351 685 CURVE SMOOTH",
"463 685 OFFCURVE",
"521 537 OFFCURVE",
"521 365 CURVE SMOOTH",
"521 192 OFFCURVE",
"463 45 OFFCURVE",
"351 45 CURVE SMOOTH"
);
},
{
closed = 1;
nodes = (
"559 1000 OFFCURVE",
"564 982 OFFCURVE",
"534 953 CURVE SMOOTH",
"357 783 LINE SMOOTH",
"346 773 OFFCURVE",
"333 769 OFFCURVE",
"322 776 CURVE SMOOTH",
"311 783 OFFCURVE",
"312 797 OFFCURVE",
"318 806 CURVE SMOOTH",
"442 980 LINE SMOOTH",
"456 1000 OFFCURVE",
"470 1000 OFFCURVE",
"501 1000 CURVE SMOOTH",
"528 1000 LINE SMOOTH"
);
}
);
width = 700;
},
{
layerId = "6A265716-979C-4B63-AB57-6A34FBA57EF3";
paths = (
{
closed = 1;
nodes = (
"509 -5 OFFCURVE",
"641 133 OFFCURVE",
"641 365 CURVE SMOOTH",
"641 597 OFFCURVE",
"509 735 OFFCURVE",
"351 735 CURVE SMOOTH",
"194 735 OFFCURVE",
"60 595 OFFCURVE",
"60 365 CURVE SMOOTH",
"60 133 OFFCURVE",
"192 -5 OFFCURVE",
"351 -5 CURVE SMOOTH"
);
},
{
closed = 1;
nodes = (
"248 45 OFFCURVE",
"190 192 OFFCURVE",
"190 365 CURVE SMOOTH",
"190 537 OFFCURVE",
"248 685 OFFCURVE",
"351 685 CURVE SMOOTH",
"453 685 OFFCURVE",
"511 537 OFFCURVE",
"511 365 CURVE SMOOTH",
"511 192 OFFCURVE",
"453 45 OFFCURVE",
"351 45 CURVE SMOOTH"
);
},
{
closed = 1;
nodes = (
"570 1000 OFFCURVE",
"575 982 OFFCURVE",
"545 953 CURVE SMOOTH",
"368 783 LINE SMOOTH",
"355 770 OFFCURVE",
"341 763 OFFCURVE",
"324 767 CURVE SMOOTH",
"303 772 OFFCURVE",
"301 796 OFFCURVE",
"313 812 CURVE SMOOTH",
"433 980 LINE SMOOTH",
"447 1000 OFFCURVE",
"461 1000 OFFCURVE",
"492 1000 CURVE SMOOTH",
"539 1000 LINE SMOOTH"
);
}
);
width = 700;
}
);
unicode = 00D3;
},
{
glyphname = Ocircumflex;
lastChange = "2021-04-06 14:01:33 +0000";
layers = (
{
layerId = "2C887366-8E1E-4334-B4A5-9B98F2C45AC5";
paths = (
{
closed = 1;
nodes = (
"499 -5 OFFCURVE",
"616 133 OFFCURVE",
"616 365 CURVE SMOOTH",
"616 597 OFFCURVE",
"499 735 OFFCURVE",
"351 735 CURVE SMOOTH",
"204 735 OFFCURVE",
"85 595 OFFCURVE",
"85 365 CURVE SMOOTH",
"85 133 OFFCURVE",
"202 -5 OFFCURVE",
"351 -5 CURVE SMOOTH"
);
},
{
closed = 1;
nodes = (
"238 25 OFFCURVE",
"165 192 OFFCURVE",
"165 365 CURVE SMOOTH",
"165 537 OFFCURVE",
"238 705 OFFCURVE",
"351 705 CURVE SMOOTH",
"463 705 OFFCURVE",
"536 537 OFFCURVE",
"536 365 CURVE SMOOTH",
"536 192 OFFCURVE",
"463 25 OFFCURVE",
"351 25 CURVE SMOOTH"
);
},
{
closed = 1;
nodes = (
"340 990 OFFCURVE",
"334 985 OFFCURVE",
"328 979 CURVE SMOOTH",
"169 806 LINE SMOOTH",
"156 792 OFFCURVE",
"156 789 OFFCURVE",
"158 785 CURVE SMOOTH",
"160 781 OFFCURVE",
"166 781 OFFCURVE",
"190 781 CURVE SMOOTH",
"222 781 LINE SMOOTH",
"242 781 OFFCURVE",
"248 780 OFFCURVE",
"254 791 CURVE SMOOTH",
"350 960 LINE",
"447 791 LINE SMOOTH",
"453 780 OFFCURVE",
"459 781 OFFCURVE",
"479 781 CURVE SMOOTH",
"511 781 LINE SMOOTH",
"535 781 OFFCURVE",
"541 781 OFFCURVE",
"543 785 CURVE SMOOTH",
"545 789 OFFCURVE",
"545 792 OFFCURVE",
"532 806 CURVE SMOOTH",
"373 979 LINE SMOOTH",
"367 985 OFFCURVE",
"361 990 OFFCURVE",
"350 990 CURVE SMOOTH"
);
}
);
width = 700;
},
{
layerId = "15A46FCC-DA81-4964-B403-68213F8F3DE4";
paths = (
{
closed = 1;
nodes = (
"499 -5 OFFCURVE",
"631 133 OFFCURVE",
"631 365 CURVE SMOOTH",
"631 597 OFFCURVE",
"499 735 OFFCURVE",
"351 735 CURVE SMOOTH",
"204 735 OFFCURVE",
"70 595 OFFCURVE",
"70 365 CURVE SMOOTH",
"70 133 OFFCURVE",
"202 -5 OFFCURVE",
"351 -5 CURVE SMOOTH"
);
},
{
closed = 1;
nodes = (
"238 45 OFFCURVE",
"180 192 OFFCURVE",
"180 365 CURVE SMOOTH",
"180 537 OFFCURVE",
"238 685 OFFCURVE",
"351 685 CURVE SMOOTH",
"463 685 OFFCURVE",
"521 537 OFFCURVE",
"521 365 CURVE SMOOTH",
"521 192 OFFCURVE",
"463 45 OFFCURVE",
"351 45 CURVE SMOOTH"
);
},
{
closed = 1;
nodes = (
"341 1000 OFFCURVE",
"334 995 OFFCURVE",
"329 989 CURVE SMOOTH",
"168 809 LINE SMOOTH",
"155 795 OFFCURVE",
"149 790 OFFCURVE",
"154 781 CURVE SMOOTH",
"158 774 OFFCURVE",
"167 772 OFFCURVE",
"191 772 CURVE SMOOTH",
"226 772 LINE SMOOTH",
"246 772 OFFCURVE",
"254 772 OFFCURVE",
"263 786 CURVE SMOOTH",
"351 929 LINE",
"440 786 LINE SMOOTH",
"448 774 OFFCURVE",
"457 772 OFFCURVE",
"478 772 CURVE SMOOTH",
"513 772 LINE SMOOTH",
"536 772 OFFCURVE",
"546 773 OFFCURVE",
"549 781 CURVE SMOOTH",
"553 791 OFFCURVE",
"548 795 OFFCURVE",
"535 809 CURVE SMOOTH",
"374 989 LINE SMOOTH",
"370 993 OFFCURVE",
"362 1000 OFFCURVE",
"351 1000 CURVE SMOOTH"
);
}
);
width = 700;
},
{
layerId = "6A265716-979C-4B63-AB57-6A34FBA57EF3";
paths = (
{
closed = 1;
nodes = (
"509 -5 OFFCURVE",
"641 133 OFFCURVE",
"641 365 CURVE SMOOTH",
"641 597 OFFCURVE",
"509 735 OFFCURVE",
"351 735 CURVE SMOOTH",
"194 735 OFFCURVE",
"60 595 OFFCURVE",
"60 365 CURVE SMOOTH",
"60 133 OFFCURVE",
"192 -5 OFFCURVE",
"351 -5 CURVE SMOOTH"
);
},
{
closed = 1;
nodes = (
"248 45 OFFCURVE",
"190 192 OFFCURVE",
"190 365 CURVE SMOOTH",
"190 537 OFFCURVE",
"248 685 OFFCURVE",
"351 685 CURVE SMOOTH",
"453 685 OFFCURVE",
"511 537 OFFCURVE",
"511 365 CURVE SMOOTH",
"511 192 OFFCURVE",
"453 45 OFFCURVE",
"351 45 CURVE SMOOTH"
);
},
{
closed = 1;
nodes = (
"330 1000 OFFCURVE",
"323 995 OFFCURVE",
"318 989 CURVE",
"147 809 LINE SMOOTH",
"129 790 OFFCURVE",
"128 780 OFFCURVE",
"133 771 CURVE SMOOTH",
"137 764 OFFCURVE",
"146 762 OFFCURVE",
"170 762 CURVE SMOOTH",
"240 762 LINE SMOOTH",
"260 762 OFFCURVE",
"270 762 OFFCURVE",
"277 776 CURVE SMOOTH",
"350 924 LINE",
"424 786 LINE SMOOTH",
"435 765 OFFCURVE",
"441 762 OFFCURVE",
"462 762 CURVE SMOOTH",
"532 762 LINE SMOOTH",
"555 762 OFFCURVE",
"565 763 OFFCURVE",
"568 771 CURVE SMOOTH",
"572 781 OFFCURVE",
"567 795 OFFCURVE",
"554 809 CURVE SMOOTH",
"383 989 LINE SMOOTH",
"379 993 OFFCURVE",
"371 1000 OFFCURVE",
"350 1000 CURVE SMOOTH"
);
}
);
width = 700;
}
);
unicode = 00D4;
},
{
glyphname = Odieresis;
lastChange = "2020-09-05 14:31:04 +0000";
layers = (
{
layerId = "2C887366-8E1E-4334-B4A5-9B98F2C45AC5";
paths = (
{
closed = 1;
nodes = (
"499 -5 OFFCURVE",
"616 133 OFFCURVE",
"616 365 CURVE SMOOTH",
"616 597 OFFCURVE",
"499 735 OFFCURVE",
"351 735 CURVE SMOOTH",
"204 735 OFFCURVE",
"85 595 OFFCURVE",
"85 365 CURVE SMOOTH",
"85 133 OFFCURVE",
"202 -5 OFFCURVE",
"351 -5 CURVE SMOOTH"
);
},
{
closed = 1;
nodes = (
"238 25 OFFCURVE",
"165 192 OFFCURVE",
"165 365 CURVE SMOOTH",
"165 537 OFFCURVE",
"238 705 OFFCURVE",
"351 705 CURVE SMOOTH",
"463 705 OFFCURVE",
"536 537 OFFCURVE",
"536 365 CURVE SMOOTH",
"536 192 OFFCURVE",
"463 25 OFFCURVE",
"351 25 CURVE SMOOTH"
);
},
{
closed = 1;
nodes = (
"264 817 OFFCURVE",
"288 839 OFFCURVE",
"288 867 CURVE SMOOTH",
"288 896 OFFCURVE",
"264 918 OFFCURVE",
"235 918 CURVE SMOOTH",
"207 918 OFFCURVE",
"183 896 OFFCURVE",
"183 867 CURVE SMOOTH",
"183 839 OFFCURVE",
"207 817 OFFCURVE",
"235 817 CURVE SMOOTH"
);
},
{
closed = 1;
nodes = (
"496 817 OFFCURVE",
"520 839 OFFCURVE",
"520 867 CURVE SMOOTH",
"520 896 OFFCURVE",
"496 918 OFFCURVE",
"467 918 CURVE SMOOTH",
"438 918 OFFCURVE",
"414 896 OFFCURVE",
"414 867 CURVE SMOOTH",
"414 839 OFFCURVE",
"438 817 OFFCURVE",
"467 817 CURVE SMOOTH"
);
}
);
width = 700;
},
{
layerId = "15A46FCC-DA81-4964-B403-68213F8F3DE4";
paths = (
{
closed = 1;
nodes = (
"499 -5 OFFCURVE",
"631 133 OFFCURVE",
"631 365 CURVE SMOOTH",
"631 597 OFFCURVE",
"499 735 OFFCURVE",
"351 735 CURVE SMOOTH",
"204 735 OFFCURVE",
"70 595 OFFCURVE",
"70 365 CURVE SMOOTH",
"70 133 OFFCURVE",
"202 -5 OFFCURVE",
"351 -5 CURVE SMOOTH"
);
},
{
closed = 1;
nodes = (
"238 45 OFFCURVE",
"180 192 OFFCURVE",
"180 365 CURVE SMOOTH",
"180 537 OFFCURVE",
"238 685 OFFCURVE",
"351 685 CURVE SMOOTH",
"463 685 OFFCURVE",
"521 537 OFFCURVE",
"521 365 CURVE SMOOTH",
"521 192 OFFCURVE",
"463 45 OFFCURVE",
"351 45 CURVE SMOOTH"
);
},
{
closed = 1;
nodes = (
"270 809 OFFCURVE",
"298 834 OFFCURVE",
"298 868 CURVE SMOOTH",
"298 902 OFFCURVE",
"270 927 OFFCURVE",
"236 927 CURVE SMOOTH",
"202 927 OFFCURVE",
"174 902 OFFCURVE",
"174 868 CURVE SMOOTH",
"174 834 OFFCURVE",
"202 809 OFFCURVE",
"236 809 CURVE SMOOTH"
);
},
{
closed = 1;
nodes = (
"501 809 OFFCURVE",
"529 834 OFFCURVE",
"529 868 CURVE SMOOTH",
"529 902 OFFCURVE",
"501 927 OFFCURVE",
"467 927 CURVE SMOOTH",
"433 927 OFFCURVE",
"405 902 OFFCURVE",
"405 868 CURVE SMOOTH",
"405 834 OFFCURVE",
"433 809 OFFCURVE",
"467 809 CURVE SMOOTH"
);
}
);
width = 700;
},
{
layerId = "6A265716-979C-4B63-AB57-6A34FBA57EF3";
paths = (
{
closed = 1;
nodes = (
"509 -5 OFFCURVE",
"641 133 OFFCURVE",
"641 365 CURVE SMOOTH",
"641 597 OFFCURVE",
"509 735 OFFCURVE",
"351 735 CURVE SMOOTH",
"194 735 OFFCURVE",
"60 595 OFFCURVE",
"60 365 CURVE SMOOTH",
"60 133 OFFCURVE",
"192 -5 OFFCURVE",
"351 -5 CURVE SMOOTH"
);
},
{
closed = 1;
nodes = (
"248 45 OFFCURVE",
"190 192 OFFCURVE",
"190 365 CURVE SMOOTH",
"190 537 OFFCURVE",
"248 685 OFFCURVE",
"351 685 CURVE SMOOTH",
"453 685 OFFCURVE",
"511 537 OFFCURVE",
"511 365 CURVE SMOOTH",
"511 192 OFFCURVE",
"453 45 OFFCURVE",
"351 45 CURVE SMOOTH"
);
},
{
closed = 1;
nodes = (
"273 803 OFFCURVE",
"303 831 OFFCURVE",
"303 868 CURVE SMOOTH",
"303 905 OFFCURVE",
"273 933 OFFCURVE",
"235 933 CURVE SMOOTH",
"198 933 OFFCURVE",
"167 905 OFFCURVE",
"167 868 CURVE SMOOTH",
"167 831 OFFCURVE",
"198 803 OFFCURVE",
"235 803 CURVE SMOOTH"
);
},
{
closed = 1;
nodes = (
"504 803 OFFCURVE",
"535 831 OFFCURVE",
"535 868 CURVE SMOOTH",
"535 905 OFFCURVE",
"504 933 OFFCURVE",
"466 933 CURVE SMOOTH",
"429 933 OFFCURVE",
"398 905 OFFCURVE",
"398 868 CURVE SMOOTH",
"398 831 OFFCURVE",
"429 803 OFFCURVE",
"466 803 CURVE SMOOTH"
);
}
);
width = 700;
}
);
unicode = 00D6;
},
{
glyphname = Ograve;
lastChange = "2020-09-05 14:29:18 +0000";
layers = (
{
layerId = "2C887366-8E1E-4334-B4A5-9B98F2C45AC5";
paths = (
{
closed = 1;
nodes = (
"499 -5 OFFCURVE",
"616 133 OFFCURVE",
"616 365 CURVE SMOOTH",
"616 597 OFFCURVE",
"499 735 OFFCURVE",
"351 735 CURVE SMOOTH",
"204 735 OFFCURVE",
"85 595 OFFCURVE",
"85 365 CURVE SMOOTH",
"85 133 OFFCURVE",
"202 -5 OFFCURVE",
"351 -5 CURVE SMOOTH"
);
},
{
closed = 1;
nodes = (
"238 25 OFFCURVE",
"165 192 OFFCURVE",
"165 365 CURVE SMOOTH",
"165 537 OFFCURVE",
"238 705 OFFCURVE",
"351 705 CURVE SMOOTH",
"463 705 OFFCURVE",
"536 537 OFFCURVE",
"536 365 CURVE SMOOTH",
"536 192 OFFCURVE",
"463 25 OFFCURVE",
"351 25 CURVE SMOOTH"
);
},
{
closed = 1;
nodes = (
"219 990 LINE SMOOTH",
"240 990 OFFCURVE",
"243 987 OFFCURVE",
"254 972 CURVE SMOOTH",
"368 809 LINE SMOOTH",
"374 800 OFFCURVE",
"380 789 OFFCURVE",
"372 783 CURVE SMOOTH",
"366 778 OFFCURVE",
"358 781 OFFCURVE",
"347 791 CURVE SMOOTH",
"170 963 LINE SMOOTH",
"152 981 OFFCURVE",
"156 990 OFFCURVE",
"179 990 CURVE SMOOTH"
);
}
);
width = 700;
},
{
layerId = "15A46FCC-DA81-4964-B403-68213F8F3DE4";
paths = (
{
closed = 1;
nodes = (
"499 -5 OFFCURVE",
"631 133 OFFCURVE",
"631 365 CURVE SMOOTH",
"631 597 OFFCURVE",
"499 735 OFFCURVE",
"351 735 CURVE SMOOTH",
"204 735 OFFCURVE",
"70 595 OFFCURVE",
"70 365 CURVE SMOOTH",
"70 133 OFFCURVE",
"202 -5 OFFCURVE",
"351 -5 CURVE SMOOTH"
);
},
{
closed = 1;
nodes = (
"238 45 OFFCURVE",
"180 192 OFFCURVE",
"180 365 CURVE SMOOTH",
"180 537 OFFCURVE",
"238 685 OFFCURVE",
"351 685 CURVE SMOOTH",
"463 685 OFFCURVE",
"521 537 OFFCURVE",
"521 365 CURVE SMOOTH",
"521 192 OFFCURVE",
"463 45 OFFCURVE",
"351 45 CURVE SMOOTH"
);
},
{
closed = 1;
nodes = (
"199 1000 LINE SMOOTH",
"230 1000 OFFCURVE",
"244 1000 OFFCURVE",
"258 980 CURVE SMOOTH",
"382 806 LINE SMOOTH",
"388 797 OFFCURVE",
"389 783 OFFCURVE",
"378 776 CURVE SMOOTH",
"367 769 OFFCURVE",
"354 773 OFFCURVE",
"343 783 CURVE SMOOTH",
"166 953 LINE SMOOTH",
"136 982 OFFCURVE",
"141 1000 OFFCURVE",
"172 1000 CURVE SMOOTH"
);
}
);
width = 700;
},
{
layerId = "6A265716-979C-4B63-AB57-6A34FBA57EF3";
paths = (
{
closed = 1;
nodes = (
"509 -5 OFFCURVE",
"641 133 OFFCURVE",
"641 365 CURVE SMOOTH",
"641 597 OFFCURVE",
"509 735 OFFCURVE",
"351 735 CURVE SMOOTH",
"194 735 OFFCURVE",
"60 595 OFFCURVE",
"60 365 CURVE SMOOTH",
"60 133 OFFCURVE",
"192 -5 OFFCURVE",
"351 -5 CURVE SMOOTH"
);
},
{
closed = 1;
nodes = (
"248 45 OFFCURVE",
"190 192 OFFCURVE",
"190 365 CURVE SMOOTH",
"190 537 OFFCURVE",
"248 685 OFFCURVE",
"351 685 CURVE SMOOTH",
"453 685 OFFCURVE",
"511 537 OFFCURVE",
"511 365 CURVE SMOOTH",
"511 192 OFFCURVE",
"453 45 OFFCURVE",
"351 45 CURVE SMOOTH"
);
},
{
closed = 1;
nodes = (
"209 1000 LINE SMOOTH",
"240 1000 OFFCURVE",
"254 1000 OFFCURVE",
"268 980 CURVE SMOOTH",
"388 812 LINE SMOOTH",
"400 796 OFFCURVE",
"398 772 OFFCURVE",
"377 767 CURVE SMOOTH",
"360 763 OFFCURVE",
"346 770 OFFCURVE",
"333 783 CURVE SMOOTH",
"156 953 LINE SMOOTH",
"126 982 OFFCURVE",
"131 1000 OFFCURVE",
"162 1000 CURVE SMOOTH"
);
}
);
width = 700;
}
);
unicode = 00D2;
},
{
glyphname = Oslash;
lastChange = "2020-09-05 14:30:46 +0000";
layers = (
{
layerId = "2C887366-8E1E-4334-B4A5-9B98F2C45AC5";
paths = (
{
closed = 1;
nodes = (
"499 -5 OFFCURVE",
"616 133 OFFCURVE",
"616 365 CURVE SMOOTH",
"616 597 OFFCURVE",
"499 735 OFFCURVE",
"351 735 CURVE SMOOTH",
"204 735 OFFCURVE",
"85 595 OFFCURVE",
"85 365 CURVE SMOOTH",
"85 133 OFFCURVE",
"202 -5 OFFCURVE",
"351 -5 CURVE SMOOTH"
);
},
{
closed = 1;
nodes = (
"238 25 OFFCURVE",
"165 192 OFFCURVE",
"165 365 CURVE SMOOTH",
"165 537 OFFCURVE",
"238 705 OFFCURVE",
"351 705 CURVE SMOOTH",
"463 705 OFFCURVE",
"536 537 OFFCURVE",
"536 365 CURVE SMOOTH",
"536 192 OFFCURVE",
"463 25 OFFCURVE",
"351 25 CURVE SMOOTH"
);
},
{
closed = 1;
nodes = (
"578 852 OFFCURVE",
"571 850 OFFCURVE",
"566 840 CURVE SMOOTH",
"123 -103 LINE SMOOTH",
"118 -113 OFFCURVE",
"120 -122 OFFCURVE",
"129 -126 CURVE SMOOTH",
"138 -130 OFFCURVE",
"146 -126 OFFCURVE",
"150 -116 CURVE",
"592 827 LINE SMOOTH",
"597 837 OFFCURVE",
"595 846 OFFCURVE",
"587 849 CURVE SMOOTH"
);
}
);
width = 700;
},
{
layerId = "15A46FCC-DA81-4964-B403-68213F8F3DE4";
paths = (
{
closed = 1;
nodes = (
"499 -5 OFFCURVE",
"631 133 OFFCURVE",
"631 365 CURVE SMOOTH",
"631 597 OFFCURVE",
"499 735 OFFCURVE",
"351 735 CURVE SMOOTH",
"204 735 OFFCURVE",
"70 595 OFFCURVE",
"70 365 CURVE SMOOTH",
"70 133 OFFCURVE",
"202 -5 OFFCURVE",
"351 -5 CURVE SMOOTH"
);
},
{
closed = 1;
nodes = (
"238 45 OFFCURVE",
"180 192 OFFCURVE",
"180 365 CURVE SMOOTH",
"180 537 OFFCURVE",
"238 685 OFFCURVE",
"351 685 CURVE SMOOTH",
"463 685 OFFCURVE",
"521 537 OFFCURVE",
"521 365 CURVE SMOOTH",
"521 192 OFFCURVE",
"463 45 OFFCURVE",
"351 45 CURVE SMOOTH"
);
},
{
closed = 1;
nodes = (
"573 868 OFFCURVE",
"560 855 OFFCURVE",
"550 833 CURVE SMOOTH",
"117 -90 LINE SMOOTH",
"108 -110 OFFCURVE",
"101 -130 OFFCURVE",
"123 -139 CURVE SMOOTH",
"141 -146 OFFCURVE",
"154 -133 OFFCURVE",
"164 -111 CURVE SMOOTH",
"597 812 LINE SMOOTH",
"606 832 OFFCURVE",
"613 852 OFFCURVE",
"591 861 CURVE SMOOTH"
);
}
);
width = 700;
},
{
layerId = "6A265716-979C-4B63-AB57-6A34FBA57EF3";
paths = (
{
closed = 1;
nodes = (
"509 -5 OFFCURVE",
"641 133 OFFCURVE",
"641 365 CURVE SMOOTH",
"641 597 OFFCURVE",
"509 735 OFFCURVE",
"351 735 CURVE SMOOTH",
"194 735 OFFCURVE",
"60 595 OFFCURVE",
"60 365 CURVE SMOOTH",
"60 133 OFFCURVE",
"192 -5 OFFCURVE",
"351 -5 CURVE SMOOTH"
);
},
{
closed = 1;
nodes = (
"248 45 OFFCURVE",
"190 192 OFFCURVE",
"190 365 CURVE SMOOTH",
"190 537 OFFCURVE",
"248 685 OFFCURVE",
"351 685 CURVE SMOOTH",
"453 685 OFFCURVE",
"511 537 OFFCURVE",
"511 365 CURVE SMOOTH",
"511 192 OFFCURVE",
"453 45 OFFCURVE",
"351 45 CURVE SMOOTH"
);
},
{
closed = 1;
nodes = (
"573 868 OFFCURVE",
"560 855 OFFCURVE",
"550 833 CURVE SMOOTH",
"117 -90 LINE SMOOTH",
"108 -110 OFFCURVE",
"101 -130 OFFCURVE",
"123 -139 CURVE SMOOTH",
"141 -146 OFFCURVE",
"154 -133 OFFCURVE",
"164 -111 CURVE SMOOTH",
"597 812 LINE SMOOTH",
"606 832 OFFCURVE",
"613 852 OFFCURVE",
"591 861 CURVE SMOOTH"
);
}
);
width = 700;
}
);
unicode = 00D8;
},
{
glyphname = Otilde;
lastChange = "2020-09-05 14:31:25 +0000";
layers = (
{
layerId = "2C887366-8E1E-4334-B4A5-9B98F2C45AC5";
paths = (
{
closed = 1;
nodes = (
"499 -5 OFFCURVE",
"616 133 OFFCURVE",
"616 365 CURVE SMOOTH",
"616 597 OFFCURVE",
"499 735 OFFCURVE",
"351 735 CURVE SMOOTH",
"204 735 OFFCURVE",
"85 595 OFFCURVE",
"85 365 CURVE SMOOTH",
"85 133 OFFCURVE",
"202 -5 OFFCURVE",
"351 -5 CURVE SMOOTH"
);
},
{
closed = 1;
nodes = (
"238 25 OFFCURVE",
"165 192 OFFCURVE",
"165 365 CURVE SMOOTH",
"165 537 OFFCURVE",
"238 705 OFFCURVE",
"351 705 CURVE SMOOTH",
"463 705 OFFCURVE",
"536 537 OFFCURVE",
"536 365 CURVE SMOOTH",
"536 192 OFFCURVE",
"463 25 OFFCURVE",
"351 25 CURVE SMOOTH"
);
},
{
closed = 1;
nodes = (
"334 865 OFFCURVE",
"368 798 OFFCURVE",
"428 798 CURVE SMOOTH",
"459 798 OFFCURVE",
"503 807 OFFCURVE",
"535 869 CURVE SMOOTH",
"548 894 OFFCURVE",
"523 909 OFFCURVE",
"508 885 CURVE SMOOTH",
"482 843 OFFCURVE",
"465 828 OFFCURVE",
"428 828 CURVE SMOOTH",
"381 828 OFFCURVE",
"343 897 OFFCURVE",
"276 895 CURVE SMOOTH",
"235 894 OFFCURVE",
"201 880 OFFCURVE",
"172 828 CURVE SMOOTH",
"157 801 OFFCURVE",
"185 787 OFFCURVE",
"197 807 CURVE SMOOTH",
"220 845 OFFCURVE",
"239 865 OFFCURVE",
"276 865 CURVE SMOOTH"
);
}
);
width = 700;
},
{
layerId = "15A46FCC-DA81-4964-B403-68213F8F3DE4";
paths = (
{
closed = 1;
nodes = (
"499 -5 OFFCURVE",
"631 133 OFFCURVE",
"631 365 CURVE SMOOTH",
"631 597 OFFCURVE",
"499 735 OFFCURVE",
"351 735 CURVE SMOOTH",
"204 735 OFFCURVE",
"70 595 OFFCURVE",
"70 365 CURVE SMOOTH",
"70 133 OFFCURVE",
"202 -5 OFFCURVE",
"351 -5 CURVE SMOOTH"
);
},
{
closed = 1;
nodes = (
"238 45 OFFCURVE",
"180 192 OFFCURVE",
"180 365 CURVE SMOOTH",
"180 537 OFFCURVE",
"238 685 OFFCURVE",
"351 685 CURVE SMOOTH",
"463 685 OFFCURVE",
"521 537 OFFCURVE",
"521 365 CURVE SMOOTH",
"521 192 OFFCURVE",
"463 45 OFFCURVE",
"351 45 CURVE SMOOTH"
);
},
{
closed = 1;
nodes = (
"334 854 OFFCURVE",
"358 787 OFFCURVE",
"428 787 CURVE SMOOTH",
"468 787 OFFCURVE",
"514 803 OFFCURVE",
"545 866 CURVE SMOOTH",
"562 900 OFFCURVE",
"516 924 OFFCURVE",
"495 885 CURVE SMOOTH",
"477 851 OFFCURVE",
"455 838 OFFCURVE",
"428 838 CURVE SMOOTH",
"386 838 OFFCURVE",
"353 906 OFFCURVE",
"276 904 CURVE SMOOTH",
"235 903 OFFCURVE",
"190 890 OFFCURVE",
"160 827 CURVE SMOOTH",
"144 793 OFFCURVE",
"189 769 OFFCURVE",
"209 806 CURVE SMOOTH",
"228 841 OFFCURVE",
"249 854 OFFCURVE",
"276 854 CURVE SMOOTH"
);
}
);
width = 700;
},
{
layerId = "6A265716-979C-4B63-AB57-6A34FBA57EF3";
paths = (
{
closed = 1;
nodes = (
"509 -5 OFFCURVE",
"641 133 OFFCURVE",
"641 365 CURVE SMOOTH",
"641 597 OFFCURVE",
"509 735 OFFCURVE",
"351 735 CURVE SMOOTH",
"194 735 OFFCURVE",
"60 595 OFFCURVE",
"60 365 CURVE SMOOTH",
"60 133 OFFCURVE",
"192 -5 OFFCURVE",
"351 -5 CURVE SMOOTH"
);
},
{
closed = 1;
nodes = (
"248 45 OFFCURVE",
"190 192 OFFCURVE",
"190 365 CURVE SMOOTH",
"190 537 OFFCURVE",
"248 685 OFFCURVE",
"351 685 CURVE SMOOTH",
"453 685 OFFCURVE",
"511 537 OFFCURVE",
"511 365 CURVE SMOOTH",
"511 192 OFFCURVE",
"453 45 OFFCURVE",
"351 45 CURVE SMOOTH"
);
},
{
closed = 1;
nodes = (
"334 844 OFFCURVE",
"358 777 OFFCURVE",
"428 777 CURVE SMOOTH",
"468 777 OFFCURVE",
"511 796 OFFCURVE",
"547 856 CURVE SMOOTH",
"574 901 OFFCURVE",
"522 935 OFFCURVE",
"495 895 CURVE",
"475 862 OFFCURVE",
"455 848 OFFCURVE",
"428 848 CURVE SMOOTH",
"387 848 OFFCURVE",
"354 914 OFFCURVE",
"279 914 CURVE SMOOTH",
"223 914 OFFCURVE",
"188 884 OFFCURVE",
"158 837 CURVE SMOOTH",
"130 793 OFFCURVE",
"182 758 OFFCURVE",
"211 796 CURVE SMOOTH",
"238 831 OFFCURVE",
"249 844 OFFCURVE",
"276 844 CURVE SMOOTH"
);
}
);
width = 700;
}
);
unicode = 00D5;
},
{
glyphname = OE;
lastChange = "2020-09-05 14:31:59 +0000";
layers = (
{
layerId = "2C887366-8E1E-4334-B4A5-9B98F2C45AC5";
paths = (
{
closed = 1;
nodes = (
"493 700 LINE SMOOTH",
"600 700 OFFCURVE",
"604 601 OFFCURVE",
"610 550 CURVE SMOOTH",
"617 492 LINE SMOOTH",
"619 474 OFFCURVE",
"624 469 OFFCURVE",
"634 470 CURVE SMOOTH",
"643 471 OFFCURVE",
"646 476 OFFCURVE",
"645 494 CURVE SMOOTH",
"629 709 LINE SMOOTH",
"628 726 OFFCURVE",
"625 730 OFFCURVE",
"612 730 CURVE SMOOTH",
"324 730 LINE SMOOTH",
"177 730 OFFCURVE",
"58 595 OFFCURVE",
"58 365 CURVE SMOOTH",
"58 133 OFFCURVE",
"175 0 OFFCURVE",
"324 0 CURVE SMOOTH",
"612 0 LINE SMOOTH",
"625 0 OFFCURVE",
"628 4 OFFCURVE",
"629 21 CURVE SMOOTH",
"645 236 LINE SMOOTH",
"646 254 OFFCURVE",
"643 259 OFFCURVE",
"634 260 CURVE SMOOTH",
"624 261 OFFCURVE",
"619 256 OFFCURVE",
"617 238 CURVE SMOOTH",
"610 180 LINE SMOOTH",
"604 129 OFFCURVE",
"600 30 OFFCURVE",
"493 30 CURVE SMOOTH",
"404 30 LINE",
"404 354 LINE",
"425 354 LINE SMOOTH",
"491 354 OFFCURVE",
"502 315 OFFCURVE",
"506 276 CURVE SMOOTH",
"508 258 LINE SMOOTH",
"510 241 OFFCURVE",
"508 229 OFFCURVE",
"519 228 CURVE SMOOTH",
"534 227 OFFCURVE",
"533 241 OFFCURVE",
"533 258 CURVE SMOOTH",
"533 480 LINE SMOOTH",
"533 497 OFFCURVE",
"534 511 OFFCURVE",
"519 510 CURVE SMOOTH",
"508 509 OFFCURVE",
"510 497 OFFCURVE",
"508 480 CURVE SMOOTH",
"506 462 LINE SMOOTH",
"502 423 OFFCURVE",
"491 384 OFFCURVE",
"425 384 CURVE SMOOTH",
"404 384 LINE",
"404 700 LINE"
);
},
{
closed = 1;
nodes = (
"324 30 LINE",
"211 30 OFFCURVE",
"138 192 OFFCURVE",
"138 365 CURVE SMOOTH",
"138 537 OFFCURVE",
"211 700 OFFCURVE",
"324 700 CURVE"
);
}
);
width = 700;
},
{
layerId = "15A46FCC-DA81-4964-B403-68213F8F3DE4";
paths = (
{
closed = 1;
nodes = (
"484 680 LINE SMOOTH",
"581 678 OFFCURVE",
"594 591 OFFCURVE",
"600 550 CURVE",
"604 494 LINE SMOOTH",
"605 476 OFFCURVE",
"612 464 OFFCURVE",
"630 464 CURVE SMOOTH",
"648 464 OFFCURVE",
"657 476 OFFCURVE",
"656 494 CURVE SMOOTH",
"640 699 LINE SMOOTH",
"639 716 OFFCURVE",
"631 730 OFFCURVE",
"613 730 CURVE SMOOTH",
"324 730 LINE SMOOTH",
"177 730 OFFCURVE",
"43 595 OFFCURVE",
"43 365 CURVE SMOOTH",
"43 133 OFFCURVE",
"175 0 OFFCURVE",
"324 0 CURVE SMOOTH",
"613 0 LINE SMOOTH",
"631 0 OFFCURVE",
"639 14 OFFCURVE",
"640 31 CURVE SMOOTH",
"656 236 LINE SMOOTH",
"657 254 OFFCURVE",
"648 266 OFFCURVE",
"630 266 CURVE SMOOTH",
"612 266 OFFCURVE",
"605 254 OFFCURVE",
"604 236 CURVE SMOOTH",
"600 180 LINE",
"594 139 OFFCURVE",
"581 52 OFFCURVE",
"484 50 CURVE SMOOTH",
"424 50 LINE",
"424 344 LINE",
"426 344 LINE",
"471 340 OFFCURVE",
"483 312 OFFCURVE",
"490 276 CURVE SMOOTH",
"495 247 LINE SMOOTH",
"498 230 OFFCURVE",
"503 218 OFFCURVE",
"520 218 CURVE SMOOTH",
"537 218 OFFCURVE",
"545 230 OFFCURVE",
"545 247 CURVE SMOOTH",
"545 491 LINE SMOOTH",
"545 508 OFFCURVE",
"537 520 OFFCURVE",
"520 520 CURVE SMOOTH",
"503 520 OFFCURVE",
"498 508 OFFCURVE",
"495 491 CURVE SMOOTH",
"490 462 LINE SMOOTH",
"483 426 OFFCURVE",
"471 398 OFFCURVE",
"426 394 CURVE",
"424 394 LINE",
"424 680 LINE"
);
},
{
closed = 1;
nodes = (
"324 50 LINE",
"211 50 OFFCURVE",
"153 192 OFFCURVE",
"153 365 CURVE SMOOTH",
"153 537 OFFCURVE",
"211 680 OFFCURVE",
"324 680 CURVE"
);
}
);
width = 700;
},
{
layerId = "6A265716-979C-4B63-AB57-6A34FBA57EF3";
paths = (
{
closed = 1;
nodes = (
"484 680 LINE SMOOTH",
"581 678 OFFCURVE",
"594 591 OFFCURVE",
"600 550 CURVE",
"604 484 LINE SMOOTH",
"605 466 OFFCURVE",
"612 454 OFFCURVE",
"630 454 CURVE SMOOTH",
"648 454 OFFCURVE",
"657 466 OFFCURVE",
"656 484 CURVE SMOOTH",
"640 699 LINE SMOOTH",
"639 716 OFFCURVE",
"631 730 OFFCURVE",
"613 730 CURVE SMOOTH",
"324 730 LINE SMOOTH",
"167 730 OFFCURVE",
"33 595 OFFCURVE",
"33 365 CURVE SMOOTH",
"33 133 OFFCURVE",
"165 0 OFFCURVE",
"324 0 CURVE SMOOTH",
"613 0 LINE SMOOTH",
"631 0 OFFCURVE",
"639 14 OFFCURVE",
"640 31 CURVE SMOOTH",
"656 246 LINE SMOOTH",
"657 264 OFFCURVE",
"648 276 OFFCURVE",
"630 276 CURVE SMOOTH",
"612 276 OFFCURVE",
"605 264 OFFCURVE",
"604 246 CURVE SMOOTH",
"600 180 LINE",
"594 139 OFFCURVE",
"581 52 OFFCURVE",
"484 50 CURVE SMOOTH",
"434 50 LINE",
"434 344 LINE",
"436 344 LINE",
"468 340 OFFCURVE",
"483 312 OFFCURVE",
"490 276 CURVE SMOOTH",
"495 247 LINE SMOOTH",
"498 230 OFFCURVE",
"503 218 OFFCURVE",
"520 218 CURVE SMOOTH",
"537 218 OFFCURVE",
"545 230 OFFCURVE",
"545 247 CURVE SMOOTH",
"545 491 LINE SMOOTH",
"545 508 OFFCURVE",
"537 520 OFFCURVE",
"520 520 CURVE SMOOTH",
"503 520 OFFCURVE",
"498 508 OFFCURVE",
"495 491 CURVE SMOOTH",
"490 462 LINE SMOOTH",
"483 426 OFFCURVE",
"468 398 OFFCURVE",
"436 394 CURVE",
"434 394 LINE",
"434 680 LINE"
);
},
{
closed = 1;
nodes = (
"314 50 LINE",
"221 50 OFFCURVE",
"163 192 OFFCURVE",
"163 365 CURVE SMOOTH",
"163 537 OFFCURVE",
"221 680 OFFCURVE",
"314 680 CURVE"
);
}
);
width = 700;
}
);
unicode = 0152;
},
{
glyphname = P;
lastChange = "2021-04-02 10:30:40 +0000";
layers = (
{
backgroundImage = {
imagePath = "../Capture d’écran 2021-04-02 à 12.28.57.png";
transform = "{1, 0, 0, 1, 0, -200}";
};
layerId = "2C887366-8E1E-4334-B4A5-9B98F2C45AC5";
paths = (
{
closed = 1;
nodes = (
"621 659 OFFCURVE",
"541 730 OFFCURVE",
"427 730 CURVE SMOOTH",
"78 730 LINE SMOOTH",
"67 730 OFFCURVE",
"60 724 OFFCURVE",
"60 715 CURVE SMOOTH",
"60 706 OFFCURVE",
"67 700 OFFCURVE",
"78 700 CURVE SMOOTH",
"166 700 LINE",
"166 30 LINE",
"78 30 LINE SMOOTH",
"67 30 OFFCURVE",
"60 24 OFFCURVE",
"60 15 CURVE SMOOTH",
"60 6 OFFCURVE",
"67 0 OFFCURVE",
"78 0 CURVE SMOOTH",
"335 0 LINE SMOOTH",
"346 0 OFFCURVE",
"352 6 OFFCURVE",
"352 15 CURVE SMOOTH",
"352 24 OFFCURVE",
"346 30 OFFCURVE",
"335 30 CURVE SMOOTH",
"246 30 LINE",
"246 346 LINE",
"427 346 LINE SMOOTH",
"541 346 OFFCURVE",
"621 417 OFFCURVE",
"621 538 CURVE SMOOTH"
);
},
{
closed = 1;
nodes = (
"471 700 OFFCURVE",
"542 660 OFFCURVE",
"542 538 CURVE SMOOTH",
"542 416 OFFCURVE",
"472 376 OFFCURVE",
"378 376 CURVE",
"247 376 LINE",
"247 700 LINE",
"378 700 LINE SMOOTH"
);
}
);
width = 700;
},
{
layerId = "15A46FCC-DA81-4964-B403-68213F8F3DE4";
paths = (
{
closed = 1;
nodes = (
"631 654 OFFCURVE",
"541 730 OFFCURVE",
"427 730 CURVE SMOOTH",
"89 730 LINE SMOOTH",
"72 730 OFFCURVE",
"60 720 OFFCURVE",
"60 705 CURVE SMOOTH",
"60 692 OFFCURVE",
"71 681 OFFCURVE",
"89 679 CURVE SMOOTH",
"156 671 LINE",
"156 50 LINE",
"88 50 LINE SMOOTH",
"70 50 OFFCURVE",
"60 39 OFFCURVE",
"60 25 CURVE SMOOTH",
"60 11 OFFCURVE",
"70 0 OFFCURVE",
"88 0 CURVE SMOOTH",
"324 0 LINE SMOOTH",
"342 0 OFFCURVE",
"352 11 OFFCURVE",
"352 25 CURVE SMOOTH",
"352 39 OFFCURVE",
"342 50 OFFCURVE",
"324 50 CURVE SMOOTH",
"256 50 LINE",
"256 336 LINE",
"427 336 LINE SMOOTH",
"541 336 OFFCURVE",
"631 412 OFFCURVE",
"631 533 CURVE SMOOTH"
);
},
{
closed = 1;
nodes = (
"430 680 OFFCURVE",
"531 655 OFFCURVE",
"531 533 CURVE SMOOTH",
"531 411 OFFCURVE",
"430 386 OFFCURVE",
"377 386 CURVE SMOOTH",
"256 386 LINE",
"256 680 LINE",
"377 680 LINE SMOOTH"
);
}
);
width = 700;
},
{
layerId = "6A265716-979C-4B63-AB57-6A34FBA57EF3";
paths = (
{
closed = 1;
nodes = (
"640 654 OFFCURVE",
"550 730 OFFCURVE",
"426 730 CURVE SMOOTH",
"74 730 LINE SMOOTH",
"57 730 OFFCURVE",
"45 720 OFFCURVE",
"45 705 CURVE SMOOTH",
"45 692 OFFCURVE",
"56 681 OFFCURVE",
"74 679 CURVE SMOOTH",
"146 671 LINE",
"146 50 LINE",
"73 50 LINE SMOOTH",
"55 50 OFFCURVE",
"45 39 OFFCURVE",
"45 25 CURVE SMOOTH",
"45 11 OFFCURVE",
"55 0 OFFCURVE",
"73 0 CURVE SMOOTH",
"339 0 LINE SMOOTH",
"357 0 OFFCURVE",
"367 11 OFFCURVE",
"367 25 CURVE SMOOTH",
"367 39 OFFCURVE",
"357 50 OFFCURVE",
"339 50 CURVE SMOOTH",
"266 50 LINE",
"266 336 LINE",
"426 336 LINE SMOOTH",
"550 336 OFFCURVE",
"640 412 OFFCURVE",
"640 533 CURVE SMOOTH"
);
},
{
closed = 1;
nodes = (
"419 680 OFFCURVE",
"520 655 OFFCURVE",
"520 533 CURVE SMOOTH",
"520 411 OFFCURVE",
"419 386 OFFCURVE",
"366 386 CURVE SMOOTH",
"266 386 LINE",
"266 680 LINE",
"366 680 LINE SMOOTH"
);
}
);
width = 700;
}
);
unicode = 0050;
},
{
glyphname = Thorn;
lastChange = "2020-09-05 14:32:32 +0000";
layers = (
{
layerId = "2C887366-8E1E-4334-B4A5-9B98F2C45AC5";
paths = (
{
closed = 1;
nodes = (
"70 6 OFFCURVE",
"77 0 OFFCURVE",
"88 0 CURVE SMOOTH",
"325 0 LINE SMOOTH",
"336 0 OFFCURVE",
"342 6 OFFCURVE",
"342 15 CURVE SMOOTH",
"342 24 OFFCURVE",
"336 30 OFFCURVE",
"325 30 CURVE SMOOTH",
"246 30 LINE",
"246 179 LINE",
"431 179 LINE SMOOTH",
"545 179 OFFCURVE",
"625 245 OFFCURVE",
"625 366 CURVE SMOOTH",
"625 487 OFFCURVE",
"545 553 OFFCURVE",
"431 553 CURVE SMOOTH",
"246 553 LINE",
"246 700 LINE",
"325 700 LINE SMOOTH",
"336 700 OFFCURVE",
"342 706 OFFCURVE",
"342 715 CURVE SMOOTH",
"342 724 OFFCURVE",
"336 730 OFFCURVE",
"325 730 CURVE SMOOTH",
"88 730 LINE SMOOTH",
"77 730 OFFCURVE",
"70 724 OFFCURVE",
"70 715 CURVE SMOOTH",
"70 706 OFFCURVE",
"77 700 OFFCURVE",
"88 700 CURVE SMOOTH",
"166 700 LINE",
"166 30 LINE",
"88 30 LINE SMOOTH",
"77 30 OFFCURVE",
"70 24 OFFCURVE",
"70 15 CURVE SMOOTH"
);
},
{
closed = 1;
nodes = (
"382 523 LINE SMOOTH",
"475 523 OFFCURVE",
"546 488 OFFCURVE",
"546 366 CURVE SMOOTH",
"546 243 OFFCURVE",
"478 207 OFFCURVE",
"382 209 CURVE SMOOTH",
"246 209 LINE",
"246 523 LINE"
);
}
);
width = 700;
},
{
layerId = "15A46FCC-DA81-4964-B403-68213F8F3DE4";
paths = (
{
closed = 1;
nodes = (
"60 11 OFFCURVE",
"70 0 OFFCURVE",
"88 0 CURVE SMOOTH",
"324 0 LINE SMOOTH",
"342 0 OFFCURVE",
"352 11 OFFCURVE",
"352 25 CURVE SMOOTH",
"352 39 OFFCURVE",
"342 50 OFFCURVE",
"324 50 CURVE SMOOTH",
"256 50 LINE",
"256 168 LINE",
"431 168 LINE SMOOTH",
"545 168 OFFCURVE",
"635 244 OFFCURVE",
"635 365 CURVE SMOOTH",
"635 486 OFFCURVE",
"545 562 OFFCURVE",
"431 562 CURVE SMOOTH",
"256 562 LINE",
"256 680 LINE",
"324 680 LINE SMOOTH",
"342 680 OFFCURVE",
"352 691 OFFCURVE",
"352 705 CURVE SMOOTH",
"352 719 OFFCURVE",
"342 730 OFFCURVE",
"324 730 CURVE SMOOTH",
"89 730 LINE SMOOTH",
"72 730 OFFCURVE",
"60 720 OFFCURVE",
"60 705 CURVE SMOOTH",
"60 692 OFFCURVE",
"71 679 OFFCURVE",
"89 679 CURVE SMOOTH",
"156 679 LINE",
"156 50 LINE",
"88 50 LINE SMOOTH",
"70 50 OFFCURVE",
"60 39 OFFCURVE",
"60 25 CURVE SMOOTH"
);
},
{
closed = 1;
nodes = (
"381 512 LINE SMOOTH",
"434 512 OFFCURVE",
"535 487 OFFCURVE",
"535 365 CURVE SMOOTH",
"535 243 OFFCURVE",
"434 218 OFFCURVE",
"381 218 CURVE SMOOTH",
"256 218 LINE",
"256 512 LINE"
);
}
);
width = 700;
},
{
layerId = "6A265716-979C-4B63-AB57-6A34FBA57EF3";
paths = (
{
closed = 1;
nodes = (
"60 11 OFFCURVE",
"70 0 OFFCURVE",
"88 0 CURVE SMOOTH",
"324 0 LINE SMOOTH",
"342 0 OFFCURVE",
"352 11 OFFCURVE",
"352 25 CURVE SMOOTH",
"352 39 OFFCURVE",
"342 50 OFFCURVE",
"324 50 CURVE SMOOTH",
"266 50 LINE",
"266 168 LINE",
"431 168 LINE SMOOTH",
"555 168 OFFCURVE",
"645 244 OFFCURVE",
"645 365 CURVE SMOOTH",
"645 486 OFFCURVE",
"555 562 OFFCURVE",
"431 562 CURVE SMOOTH",
"266 562 LINE",
"266 680 LINE",
"324 680 LINE SMOOTH",
"342 680 OFFCURVE",
"352 691 OFFCURVE",
"352 705 CURVE SMOOTH",
"352 719 OFFCURVE",
"342 730 OFFCURVE",
"324 730 CURVE SMOOTH",
"89 730 LINE SMOOTH",
"72 730 OFFCURVE",
"60 720 OFFCURVE",
"60 705 CURVE SMOOTH",
"60 692 OFFCURVE",
"71 679 OFFCURVE",
"89 679 CURVE SMOOTH",
"146 679 LINE",
"146 50 LINE",
"88 50 LINE SMOOTH",
"70 50 OFFCURVE",
"60 39 OFFCURVE",
"60 25 CURVE SMOOTH"
);
},
{
closed = 1;
nodes = (
"381 512 LINE SMOOTH",
"424 512 OFFCURVE",
"525 487 OFFCURVE",
"525 365 CURVE SMOOTH",
"525 243 OFFCURVE",
"424 218 OFFCURVE",
"381 218 CURVE SMOOTH",
"266 218 LINE",
"266 512 LINE"
);
}
);
width = 700;
}
);
unicode = 00DE;
},
{
glyphname = Q;
lastChange = "2020-08-31 11:28:10 +0000";
layers = (
{
layerId = "2C887366-8E1E-4334-B4A5-9B98F2C45AC5";
paths = (
{
closed = 1;
nodes = (
"85 159 OFFCURVE",
"177 27 OFFCURVE",
"303 0 CURVE",
"181 -98 LINE SMOOTH",
"141 -130 OFFCURVE",
"128 -143 OFFCURVE",
"138 -157 CURVE SMOOTH",
"149 -172 OFFCURVE",
"163 -161 OFFCURVE",
"182 -144 CURVE SMOOTH",
"209 -120 OFFCURVE",
"231 -107 OFFCURVE",
"265 -107 CURVE SMOOTH",
"325 -107 OFFCURVE",
"396 -179 OFFCURVE",
"464 -179 CURVE SMOOTH",
"489 -179 OFFCURVE",
"529 -174 OFFCURVE",
"562 -124 CURVE SMOOTH",
"579 -98 LINE SMOOTH",
"592 -78 OFFCURVE",
"598 -63 OFFCURVE",
"586 -55 CURVE SMOOTH",
"575 -48 OFFCURVE",
"565 -54 OFFCURVE",
"549 -80 CURVE SMOOTH",
"520 -127 OFFCURVE",
"498 -144 OFFCURVE",
"465 -144 CURVE SMOOTH",
"421 -144 OFFCURVE",
"344 -76 OFFCURVE",
"272 -72 CURVE",
"356 -5 LINE",
"502 -2 OFFCURVE",
"616 136 OFFCURVE",
"616 365 CURVE SMOOTH",
"616 597 OFFCURVE",
"499 735 OFFCURVE",
"351 735 CURVE SMOOTH",
"204 735 OFFCURVE",
"85 595 OFFCURVE",
"85 365 CURVE SMOOTH"
);
},
{
closed = 1;
nodes = (
"165 537 OFFCURVE",
"238 705 OFFCURVE",
"351 705 CURVE SMOOTH",
"463 705 OFFCURVE",
"536 537 OFFCURVE",
"536 365 CURVE SMOOTH",
"536 192 OFFCURVE",
"463 25 OFFCURVE",
"351 25 CURVE SMOOTH",
"238 25 OFFCURVE",
"165 192 OFFCURVE",
"165 365 CURVE SMOOTH"
);
}
);
width = 700;
},
{
layerId = "15A46FCC-DA81-4964-B403-68213F8F3DE4";
paths = (
{
closed = 1;
nodes = (
"70 172 OFFCURVE",
"161 44 OFFCURVE",
"278 7 CURVE",
"147 -104 LINE SMOOTH",
"121 -126 OFFCURVE",
"122 -152 OFFCURVE",
"136 -168 CURVE SMOOTH",
"151 -184 OFFCURVE",
"179 -189 OFFCURVE",
"206 -166 CURVE SMOOTH",
"234 -142 OFFCURVE",
"253 -128 OFFCURVE",
"273 -128 CURVE SMOOTH",
"333 -128 OFFCURVE",
"394 -200 OFFCURVE",
"462 -200 CURVE SMOOTH",
"487 -200 OFFCURVE",
"543 -197 OFFCURVE",
"579 -136 CURVE SMOOTH",
"598 -104 LINE SMOOTH",
"610 -84 OFFCURVE",
"604 -64 OFFCURVE",
"590 -55 CURVE SMOOTH",
"576 -45 OFFCURVE",
"554 -48 OFFCURVE",
"537 -74 CURVE SMOOTH",
"502 -130 OFFCURVE",
"482 -135 OFFCURVE",
"463 -135 CURVE SMOOTH",
"420 -135 OFFCURVE",
"363 -70 OFFCURVE",
"285 -63 CURVE",
"354 -5 LINE",
"501 -3 OFFCURVE",
"631 134 OFFCURVE",
"631 365 CURVE SMOOTH",
"631 597 OFFCURVE",
"499 735 OFFCURVE",
"351 735 CURVE SMOOTH",
"204 735 OFFCURVE",
"70 595 OFFCURVE",
"70 365 CURVE SMOOTH"
);
},
{
closed = 1;
nodes = (
"180 537 OFFCURVE",
"238 685 OFFCURVE",
"351 685 CURVE SMOOTH",
"463 685 OFFCURVE",
"521 537 OFFCURVE",
"521 365 CURVE SMOOTH",
"521 192 OFFCURVE",
"463 45 OFFCURVE",
"351 45 CURVE SMOOTH",
"238 45 OFFCURVE",
"180 192 OFFCURVE",
"180 365 CURVE SMOOTH"
);
}
);
width = 700;
},
{
layerId = "6A265716-979C-4B63-AB57-6A34FBA57EF3";
paths = (
{
closed = 1;
nodes = (
"60 172 OFFCURVE",
"151 44 OFFCURVE",
"276 9 CURVE",
"143 -104 LINE SMOOTH",
"116 -127 OFFCURVE",
"117 -153 OFFCURVE",
"131 -170 CURVE",
"149 -188 OFFCURVE",
"176 -190 OFFCURVE",
"203 -167 CURVE SMOOTH",
"231 -143 OFFCURVE",
"251 -129 OFFCURVE",
"271 -129 CURVE SMOOTH",
"332 -129 OFFCURVE",
"395 -202 OFFCURVE",
"464 -202 CURVE SMOOTH",
"490 -202 OFFCURVE",
"547 -199 OFFCURVE",
"583 -137 CURVE SMOOTH",
"603 -104 LINE SMOOTH",
"615 -84 OFFCURVE",
"609 -64 OFFCURVE",
"595 -54 CURVE",
"577 -43 OFFCURVE",
"556 -49 OFFCURVE",
"541 -74 CURVE SMOOTH",
"504 -131 OFFCURVE",
"484 -136 OFFCURVE",
"465 -136 CURVE SMOOTH",
"421 -136 OFFCURVE",
"363 -70 OFFCURVE",
"283 -62 CURVE",
"354 -3 LINE",
"511 -3 OFFCURVE",
"641 135 OFFCURVE",
"641 365 CURVE SMOOTH",
"641 597 OFFCURVE",
"509 735 OFFCURVE",
"351 735 CURVE SMOOTH",
"194 735 OFFCURVE",
"60 595 OFFCURVE",
"60 365 CURVE SMOOTH"
);
},
{
closed = 1;
nodes = (
"190 537 OFFCURVE",
"248 685 OFFCURVE",
"351 685 CURVE SMOOTH",
"453 685 OFFCURVE",
"511 537 OFFCURVE",
"511 365 CURVE SMOOTH",
"511 192 OFFCURVE",
"453 45 OFFCURVE",
"351 45 CURVE SMOOTH",
"248 45 OFFCURVE",
"190 192 OFFCURVE",
"190 365 CURVE SMOOTH"
);
}
);
width = 700;
}
);
unicode = 0051;
},
{
glyphname = R;
lastChange = "2021-05-04 11:22:58 +0000";
layers = (
{
layerId = "2C887366-8E1E-4334-B4A5-9B98F2C45AC5";
paths = (
{
closed = 1;
nodes = (
"352 346 LINE SMOOTH",
"390 346 OFFCURVE",
"432 313 OFFCURVE",
"432 247 CURVE SMOOTH",
"432 140 LINE SMOOTH",
"432 66 OFFCURVE",
"448 -8 OFFCURVE",
"551 -8 CURVE SMOOTH",
"611 -8 OFFCURVE",
"635 43 OFFCURVE",
"655 91 CURVE SMOOTH",
"675 139 OFFCURVE",
"684 164 OFFCURVE",
"668 169 CURVE",
"657 172 OFFCURVE",
"653 165 OFFCURVE",
"646 146 CURVE SMOOTH",
"629 101 OFFCURVE",
"607 22 OFFCURVE",
"559 22 CURVE SMOOTH",
"507 22 OFFCURVE",
"512 119 OFFCURVE",
"512 170 CURVE SMOOTH",
"512 247 LINE SMOOTH",
"512 305 OFFCURVE",
"472 337 OFFCURVE",
"433 346 CURVE",
"519 366 OFFCURVE",
"577 437 OFFCURVE",
"577 538 CURVE SMOOTH",
"577 659 OFFCURVE",
"500 730 OFFCURVE",
"386 730 CURVE SMOOTH",
"33 730 LINE SMOOTH",
"22 730 OFFCURVE",
"15 724 OFFCURVE",
"15 715 CURVE SMOOTH",
"15 706 OFFCURVE",
"22 700 OFFCURVE",
"33 700 CURVE SMOOTH",
"121 700 LINE",
"121 30 LINE",
"33 30 LINE SMOOTH",
"22 30 OFFCURVE",
"15 24 OFFCURVE",
"15 15 CURVE SMOOTH",
"15 6 OFFCURVE",
"22 0 OFFCURVE",
"33 0 CURVE SMOOTH",
"290 0 LINE SMOOTH",
"301 0 OFFCURVE",
"307 6 OFFCURVE",
"307 15 CURVE SMOOTH",
"307 24 OFFCURVE",
"301 30 OFFCURVE",
"290 30 CURVE SMOOTH",
"201 30 LINE",
"201 346 LINE"
);
},
{
closed = 1;
nodes = (
"497 412 OFFCURVE",
"430 376 OFFCURVE",
"336 376 CURVE",
"201 376 LINE",
"201 700 LINE",
"336 700 LINE SMOOTH",
"429 700 OFFCURVE",
"497 664 OFFCURVE",
"497 538 CURVE SMOOTH"
);
}
);
width = 700;
},
{
layerId = "15A46FCC-DA81-4964-B403-68213F8F3DE4";
paths = (
{
closed = 1;
nodes = (
"332 336 LINE SMOOTH",
"394 336 OFFCURVE",
"422 313 OFFCURVE",
"422 247 CURVE SMOOTH",
"422 140 LINE SMOOTH",
"422 66 OFFCURVE",
"448 -8 OFFCURVE",
"551 -8 CURVE SMOOTH",
"615 -8 OFFCURVE",
"645 42 OFFCURVE",
"665 91 CURVE SMOOTH",
"685 140 OFFCURVE",
"689 165 OFFCURVE",
"668 173 CURVE SMOOTH",
"648 181 OFFCURVE",
"636 169 OFFCURVE",
"629 149 CURVE SMOOTH",
"613 104 OFFCURVE",
"598 47 OFFCURVE",
"559 47 CURVE SMOOTH",
"516 47 OFFCURVE",
"522 119 OFFCURVE",
"522 170 CURVE SMOOTH",
"522 247 LINE SMOOTH",
"522 301 OFFCURVE",
"486 336 OFFCURVE",
"447 345 CURVE",
"533 365 OFFCURVE",
"587 432 OFFCURVE",
"587 533 CURVE SMOOTH",
"587 654 OFFCURVE",
"500 730 OFFCURVE",
"386 730 CURVE SMOOTH",
"42 730 LINE SMOOTH",
"27 730 OFFCURVE",
"15 719 OFFCURVE",
"15 705 CURVE SMOOTH",
"15 691 OFFCURVE",
"27 682 OFFCURVE",
"42 680 CURVE SMOOTH",
"111 671 LINE",
"111 50 LINE",
"43 50 LINE SMOOTH",
"25 50 OFFCURVE",
"15 39 OFFCURVE",
"15 25 CURVE SMOOTH",
"15 11 OFFCURVE",
"25 0 OFFCURVE",
"43 0 CURVE SMOOTH",
"279 0 LINE SMOOTH",
"297 0 OFFCURVE",
"307 11 OFFCURVE",
"307 25 CURVE SMOOTH",
"307 39 OFFCURVE",
"297 50 OFFCURVE",
"279 50 CURVE SMOOTH",
"211 50 LINE",
"211 336 LINE"
);
},
{
closed = 1;
nodes = (
"487 411 OFFCURVE",
"389 386 OFFCURVE",
"336 386 CURVE SMOOTH",
"211 386 LINE",
"211 680 LINE",
"336 680 LINE SMOOTH",
"389 680 OFFCURVE",
"487 655 OFFCURVE",
"487 533 CURVE SMOOTH"
);
}
);
width = 700;
},
{
layerId = "6A265716-979C-4B63-AB57-6A34FBA57EF3";
paths = (
{
closed = 1;
nodes = (
"340 336 LINE SMOOTH",
"368 336 OFFCURVE",
"415 313 OFFCURVE",
"415 247 CURVE SMOOTH",
"415 140 LINE SMOOTH",
"415 66 OFFCURVE",
"441 -8 OFFCURVE",
"554 -8 CURVE SMOOTH",
"614 -8 OFFCURVE",
"658 42 OFFCURVE",
"678 91 CURVE SMOOTH",
"698 140 OFFCURVE",
"702 165 OFFCURVE",
"681 173 CURVE",
"663 182 OFFCURVE",
"650 170 OFFCURVE",
"642 149 CURVE SMOOTH",
"625 104 OFFCURVE",
"607 47 OFFCURVE",
"571 47 CURVE SMOOTH",
"534 47 OFFCURVE",
"535 119 OFFCURVE",
"535 170 CURVE SMOOTH",
"535 247 LINE SMOOTH",
"535 301 OFFCURVE",
"510 324 OFFCURVE",
"461 343 CURVE",
"557 363 OFFCURVE",
"593 432 OFFCURVE",
"593 533 CURVE SMOOTH",
"593 654 OFFCURVE",
"508 730 OFFCURVE",
"384 730 CURVE SMOOTH",
"35 730 LINE SMOOTH",
"20 730 OFFCURVE",
"8 719 OFFCURVE",
"8 705 CURVE SMOOTH",
"8 691 OFFCURVE",
"20 682 OFFCURVE",
"35 680 CURVE SMOOTH",
"99 673 LINE",
"99 50 LINE",
"36 50 LINE SMOOTH",
"18 50 OFFCURVE",
"8 39 OFFCURVE",
"8 25 CURVE SMOOTH",
"8 11 OFFCURVE",
"18 0 OFFCURVE",
"36 0 CURVE SMOOTH",
"293 0 LINE SMOOTH",
"311 0 OFFCURVE",
"321 11 OFFCURVE",
"321 25 CURVE SMOOTH",
"321 39 OFFCURVE",
"311 50 OFFCURVE",
"293 50 CURVE SMOOTH",
"219 50 LINE",
"219 336 LINE"
);
},
{
closed = 1;
nodes = (
"473 411 OFFCURVE",
"387 386 OFFCURVE",
"324 386 CURVE SMOOTH",
"219 386 LINE",
"219 680 LINE",
"324 680 LINE SMOOTH",
"387 680 OFFCURVE",
"473 655 OFFCURVE",
"473 533 CURVE SMOOTH"
);
}
);
width = 700;
}
);
unicode = 0052;
},
{
glyphname = S;
lastChange = "2020-08-31 11:28:10 +0000";
layers = (
{
layerId = "2C887366-8E1E-4334-B4A5-9B98F2C45AC5";
paths = (
{
closed = 1;
nodes = (
"199 648 OFFCURVE",
"237 705 OFFCURVE",
"337 705 CURVE SMOOTH",
"449 705 OFFCURVE",
"514 611 OFFCURVE",
"550 527 CURVE SMOOTH",
"556 513 OFFCURVE",
"559 488 OFFCURVE",
"576 488 CURVE SMOOTH",
"584 488 OFFCURVE",
"590 494 OFFCURVE",
"590 505 CURVE SMOOTH",
"590 554 LINE",
"590 723 LINE SMOOTH",
"590 734 OFFCURVE",
"583 741 OFFCURVE",
"575 741 CURVE SMOOTH",
"567 741 OFFCURVE",
"560 735 OFFCURVE",
"560 723 CURVE SMOOTH",
"560 565 LINE",
"529 641 OFFCURVE",
"458 735 OFFCURVE",
"337 735 CURVE SMOOTH",
"218 735 OFFCURVE",
"136 657 OFFCURVE",
"136 550 CURVE SMOOTH",
"136 426 OFFCURVE",
"220 385 OFFCURVE",
"337 343 CURVE",
"434 308 OFFCURVE",
"547 268 OFFCURVE",
"547 169 CURVE SMOOTH",
"547 75 OFFCURVE",
"486 20 OFFCURVE",
"388 20 CURVE SMOOTH",
"267 20 OFFCURVE",
"168 149 OFFCURVE",
"159 251 CURVE SMOOTH",
"157 275 LINE SMOOTH",
"156 284 OFFCURVE",
"151 291 OFFCURVE",
"142 291 CURVE SMOOTH",
"133 291 OFFCURVE",
"127 284 OFFCURVE",
"127 275 CURVE SMOOTH",
"127 17 LINE SMOOTH",
"127 6 OFFCURVE",
"133 0 OFFCURVE",
"142 0 CURVE SMOOTH",
"151 0 OFFCURVE",
"157 6 OFFCURVE",
"157 17 CURVE",
"157 162 LINE",
"178 88 OFFCURVE",
"262 -10 OFFCURVE",
"388 -10 CURVE SMOOTH",
"489 -10 OFFCURVE",
"605 34 OFFCURVE",
"605 193 CURVE SMOOTH",
"605 330 OFFCURVE",
"506 364 OFFCURVE",
"386 416 CURVE SMOOTH",
"305 451 OFFCURVE",
"199 474 OFFCURVE",
"199 579 CURVE SMOOTH"
);
}
);
width = 700;
},
{
layerId = "15A46FCC-DA81-4964-B403-68213F8F3DE4";
paths = (
{
closed = 1;
nodes = (
"210 643 OFFCURVE",
"247 680 OFFCURVE",
"327 680 CURVE SMOOTH",
"419 680 OFFCURVE",
"513 595 OFFCURVE",
"549 511 CURVE SMOOTH",
"555 497 OFFCURVE",
"558 482 OFFCURVE",
"575 482 CURVE SMOOTH",
"591 482 OFFCURVE",
"599 492 OFFCURVE",
"599 510 CURVE SMOOTH",
"599 590 LINE",
"599 707 LINE SMOOTH",
"599 725 OFFCURVE",
"589 736 OFFCURVE",
"574 736 CURVE SMOOTH",
"561 736 OFFCURVE",
"549 726 OFFCURVE",
"548 707 CURVE SMOOTH",
"542 629 LINE",
"487 697 OFFCURVE",
"407 730 OFFCURVE",
"327 730 CURVE SMOOTH",
"208 730 OFFCURVE",
"122 652 OFFCURVE",
"122 545 CURVE SMOOTH",
"122 421 OFFCURVE",
"210 376 OFFCURVE",
"327 334 CURVE SMOOTH",
"424 299 OFFCURVE",
"539 258 OFFCURVE",
"539 169 CURVE SMOOTH",
"539 75 OFFCURVE",
"452 40 OFFCURVE",
"384 40 CURVE SMOOTH",
"293 40 OFFCURVE",
"190 114 OFFCURVE",
"175 216 CURVE SMOOTH",
"168 262 LINE SMOOTH",
"166 278 OFFCURVE",
"160 291 OFFCURVE",
"143 291 CURVE SMOOTH",
"126 291 OFFCURVE",
"118 278 OFFCURVE",
"118 262 CURVE SMOOTH",
"118 28 LINE SMOOTH",
"118 10 OFFCURVE",
"129 0 OFFCURVE",
"143 0 CURVE SMOOTH",
"157 0 OFFCURVE",
"168 10 OFFCURVE",
"168 28 CURVE",
"168 99 LINE",
"199 45 OFFCURVE",
"280 -10 OFFCURVE",
"386 -10 CURVE SMOOTH",
"487 -10 OFFCURVE",
"612 34 OFFCURVE",
"612 193 CURVE SMOOTH",
"612 350 OFFCURVE",
"499 376 OFFCURVE",
"376 426 CURVE SMOOTH",
"295 459 OFFCURVE",
"210 489 OFFCURVE",
"210 574 CURVE SMOOTH"
);
}
);
width = 700;
},
{
layerId = "6A265716-979C-4B63-AB57-6A34FBA57EF3";
paths = (
{
closed = 1;
nodes = (
"220 643 OFFCURVE",
"257 680 OFFCURVE",
"327 680 CURVE SMOOTH",
"419 680 OFFCURVE",
"513 595 OFFCURVE",
"549 511 CURVE SMOOTH",
"555 497 OFFCURVE",
"558 482 OFFCURVE",
"575 482 CURVE SMOOTH",
"591 482 OFFCURVE",
"599 492 OFFCURVE",
"599 510 CURVE SMOOTH",
"599 607 LINE",
"599 707 LINE SMOOTH",
"599 725 OFFCURVE",
"589 736 OFFCURVE",
"574 736 CURVE SMOOTH",
"556 736 OFFCURVE",
"545 726 OFFCURVE",
"543 707 CURVE SMOOTH",
"537 629 LINE",
"482 697 OFFCURVE",
"402 730 OFFCURVE",
"327 730 CURVE SMOOTH",
"198 730 OFFCURVE",
"112 652 OFFCURVE",
"112 545 CURVE SMOOTH",
"112 411 OFFCURVE",
"202 370 OFFCURVE",
"327 324 CURVE SMOOTH",
"415 292 OFFCURVE",
"529 248 OFFCURVE",
"529 169 CURVE SMOOTH",
"529 75 OFFCURVE",
"442 40 OFFCURVE",
"384 40 CURVE SMOOTH",
"298 40 OFFCURVE",
"196 114 OFFCURVE",
"180 216 CURVE SMOOTH",
"173 262 LINE SMOOTH",
"171 278 OFFCURVE",
"165 291 OFFCURVE",
"143 291 CURVE SMOOTH",
"126 291 OFFCURVE",
"118 278 OFFCURVE",
"118 262 CURVE SMOOTH",
"118 28 LINE SMOOTH",
"118 10 OFFCURVE",
"129 0 OFFCURVE",
"143 0 CURVE SMOOTH",
"157 0 OFFCURVE",
"168 10 OFFCURVE",
"168 28 CURVE SMOOTH",
"168 99 LINE",
"199 45 OFFCURVE",
"280 -10 OFFCURVE",
"386 -10 CURVE SMOOTH",
"497 -10 OFFCURVE",
"622 34 OFFCURVE",
"622 193 CURVE SMOOTH",
"622 360 OFFCURVE",
"507 380 OFFCURVE",
"376 436 CURVE SMOOTH",
"304 467 OFFCURVE",
"220 499 OFFCURVE",
"220 574 CURVE SMOOTH"
);
}
);
width = 700;
}
);
unicode = 0053;
},
{
glyphname = T;
lastChange = "2020-08-31 11:28:10 +0000";
layers = (
{
layerId = "2C887366-8E1E-4334-B4A5-9B98F2C45AC5";
paths = (
{
closed = 1;
nodes = (
"311 30 LINE",
"183 30 LINE SMOOTH",
"172 30 OFFCURVE",
"165 24 OFFCURVE",
"165 15 CURVE SMOOTH",
"165 6 OFFCURVE",
"172 0 OFFCURVE",
"183 0 CURVE SMOOTH",
"519 0 LINE SMOOTH",
"530 0 OFFCURVE",
"537 6 OFFCURVE",
"537 15 CURVE SMOOTH",
"537 24 OFFCURVE",
"530 30 OFFCURVE",
"519 30 CURVE SMOOTH",
"391 30 LINE",
"391 700 LINE",
"456 700 LINE SMOOTH",
"561 700 OFFCURVE",
"569 645 OFFCURVE",
"574 567 CURVE SMOOTH",
"579 485 LINE SMOOTH",
"580 468 OFFCURVE",
"581 453 OFFCURVE",
"595 454 CURVE SMOOTH",
"611 455 OFFCURVE",
"610 471 OFFCURVE",
"609 488 CURVE SMOOTH",
"599 706 LINE SMOOTH",
"598 723 OFFCURVE",
"598 730 OFFCURVE",
"580 730 CURVE SMOOTH",
"120 730 LINE SMOOTH",
"102 730 OFFCURVE",
"102 723 OFFCURVE",
"101 706 CURVE SMOOTH",
"91 488 LINE SMOOTH",
"90 471 OFFCURVE",
"89 455 OFFCURVE",
"105 454 CURVE SMOOTH",
"119 453 OFFCURVE",
"120 468 OFFCURVE",
"121 485 CURVE SMOOTH",
"126 567 LINE SMOOTH",
"131 645 OFFCURVE",
"137 700 OFFCURVE",
"244 700 CURVE SMOOTH",
"311 700 LINE"
);
}
);
width = 700;
},
{
layerId = "15A46FCC-DA81-4964-B403-68213F8F3DE4";
paths = (
{
closed = 1;
nodes = (
"301 50 LINE",
"183 50 LINE SMOOTH",
"165 50 OFFCURVE",
"155 39 OFFCURVE",
"155 25 CURVE SMOOTH",
"155 11 OFFCURVE",
"165 0 OFFCURVE",
"183 0 CURVE SMOOTH",
"519 0 LINE SMOOTH",
"537 0 OFFCURVE",
"547 11 OFFCURVE",
"547 25 CURVE SMOOTH",
"547 39 OFFCURVE",
"537 50 OFFCURVE",
"519 50 CURVE SMOOTH",
"401 50 LINE",
"401 680 LINE",
"458 680 LINE SMOOTH",
"555 680 OFFCURVE",
"555 621 OFFCURVE",
"564 520 CURVE SMOOTH",
"568 474 LINE SMOOTH",
"569 457 OFFCURVE",
"575 444 OFFCURVE",
"593 444 CURVE SMOOTH",
"611 444 OFFCURVE",
"620 457 OFFCURVE",
"620 474 CURVE",
"614 699 LINE",
"614 716 OFFCURVE",
"605 730 OFFCURVE",
"587 730 CURVE SMOOTH",
"115 730 LINE SMOOTH",
"97 730 OFFCURVE",
"88 716 OFFCURVE",
"88 699 CURVE SMOOTH",
"82 474 LINE SMOOTH",
"82 457 OFFCURVE",
"91 444 OFFCURVE",
"109 444 CURVE SMOOTH",
"127 444 OFFCURVE",
"133 457 OFFCURVE",
"134 474 CURVE SMOOTH",
"138 520 LINE SMOOTH",
"147 621 OFFCURVE",
"147 680 OFFCURVE",
"244 680 CURVE SMOOTH",
"301 680 LINE"
);
}
);
width = 700;
},
{
layerId = "6A265716-979C-4B63-AB57-6A34FBA57EF3";
paths = (
{
closed = 1;
nodes = (
"291 50 LINE",
"173 50 LINE SMOOTH",
"155 50 OFFCURVE",
"145 39 OFFCURVE",
"145 25 CURVE SMOOTH",
"145 11 OFFCURVE",
"155 0 OFFCURVE",
"173 0 CURVE SMOOTH",
"529 0 LINE SMOOTH",
"547 0 OFFCURVE",
"557 11 OFFCURVE",
"557 25 CURVE SMOOTH",
"557 39 OFFCURVE",
"547 50 OFFCURVE",
"529 50 CURVE SMOOTH",
"411 50 LINE",
"411 680 LINE",
"458 680 LINE SMOOTH",
"555 680 OFFCURVE",
"554 618 OFFCURVE",
"563 517 CURVE SMOOTH",
"567 470 LINE SMOOTH",
"568 452 OFFCURVE",
"574 439 OFFCURVE",
"593 439 CURVE SMOOTH",
"612 439 OFFCURVE",
"621 452 OFFCURVE",
"621 470 CURVE",
"615 698 LINE",
"615 716 OFFCURVE",
"606 731 OFFCURVE",
"587 731 CURVE SMOOTH",
"115 730 LINE SMOOTH",
"97 730 OFFCURVE",
"87 716 OFFCURVE",
"87 698 CURVE SMOOTH",
"81 470 LINE SMOOTH",
"81 452 OFFCURVE",
"90 439 OFFCURVE",
"109 439 CURVE SMOOTH",
"128 439 OFFCURVE",
"134 452 OFFCURVE",
"135 470 CURVE SMOOTH",
"139 518 LINE SMOOTH",
"148 619 OFFCURVE",
"147 680 OFFCURVE",
"244 680 CURVE SMOOTH",
"291 680 LINE"
);
}
);
width = 700;
}
);
unicode = 0054;
},
{
glyphname = U;
lastChange = "2020-08-31 11:28:10 +0000";
layers = (
{
layerId = "2C887366-8E1E-4334-B4A5-9B98F2C45AC5";
paths = (
{
closed = 1;
nodes = (
"31 706 OFFCURVE",
"38 700 OFFCURVE",
"49 700 CURVE SMOOTH",
"130 700 LINE",
"130 287 LINE SMOOTH",
"130 91 OFFCURVE",
"211 0 OFFCURVE",
"373 0 CURVE SMOOTH",
"495 0 OFFCURVE",
"571 71 OFFCURVE",
"571 277 CURVE SMOOTH",
"571 700 LINE",
"647 700 LINE SMOOTH",
"658 700 OFFCURVE",
"665 706 OFFCURVE",
"665 715 CURVE SMOOTH",
"665 724 OFFCURVE",
"658 730 OFFCURVE",
"647 730 CURVE SMOOTH",
"455 730 LINE SMOOTH",
"444 730 OFFCURVE",
"437 724 OFFCURVE",
"437 715 CURVE SMOOTH",
"437 706 OFFCURVE",
"444 700 OFFCURVE",
"455 700 CURVE SMOOTH",
"531 700 LINE",
"531 260 LINE SMOOTH",
"531 122 OFFCURVE",
"482 30 OFFCURVE",
"373 30 CURVE SMOOTH",
"291 30 OFFCURVE",
"210 102 OFFCURVE",
"210 260 CURVE SMOOTH",
"210 700 LINE",
"291 700 LINE SMOOTH",
"302 700 OFFCURVE",
"309 706 OFFCURVE",
"309 715 CURVE SMOOTH",
"309 724 OFFCURVE",
"302 730 OFFCURVE",
"291 730 CURVE SMOOTH",
"49 730 LINE SMOOTH",
"38 730 OFFCURVE",
"31 724 OFFCURVE",
"31 715 CURVE SMOOTH"
);
}
);
width = 700;
},
{
layerId = "15A46FCC-DA81-4964-B403-68213F8F3DE4";
paths = (
{
closed = 1;
nodes = (
"26 691 OFFCURVE",
"36 680 OFFCURVE",
"54 680 CURVE SMOOTH",
"120 680 LINE",
"120 297 LINE SMOOTH",
"120 81 OFFCURVE",
"201 0 OFFCURVE",
"373 0 CURVE SMOOTH",
"505 0 OFFCURVE",
"581 81 OFFCURVE",
"581 297 CURVE SMOOTH",
"581 680 LINE",
"642 680 LINE SMOOTH",
"660 680 OFFCURVE",
"670 691 OFFCURVE",
"670 705 CURVE SMOOTH",
"670 719 OFFCURVE",
"660 730 OFFCURVE",
"642 730 CURVE SMOOTH",
"460 730 LINE SMOOTH",
"442 730 OFFCURVE",
"432 719 OFFCURVE",
"432 705 CURVE SMOOTH",
"432 691 OFFCURVE",
"442 680 OFFCURVE",
"460 680 CURVE SMOOTH",
"521 680 LINE",
"521 270 LINE SMOOTH",
"521 132 OFFCURVE",
"475 50 OFFCURVE",
"373 50 CURVE SMOOTH",
"281 50 OFFCURVE",
"220 92 OFFCURVE",
"220 270 CURVE SMOOTH",
"220 680 LINE",
"286 680 LINE SMOOTH",
"304 680 OFFCURVE",
"314 691 OFFCURVE",
"314 705 CURVE SMOOTH",
"314 719 OFFCURVE",
"304 730 OFFCURVE",
"286 730 CURVE SMOOTH",
"54 730 LINE SMOOTH",
"36 730 OFFCURVE",
"26 719 OFFCURVE",
"26 705 CURVE SMOOTH"
);
}
);
width = 700;
},
{
layerId = "6A265716-979C-4B63-AB57-6A34FBA57EF3";
paths = (
{
closed = 1;
nodes = (
"11 691 OFFCURVE",
"21 680 OFFCURVE",
"39 680 CURVE SMOOTH",
"110 680 LINE",
"110 297 LINE SMOOTH",
"110 81 OFFCURVE",
"191 0 OFFCURVE",
"373 0 CURVE SMOOTH",
"505 0 OFFCURVE",
"581 81 OFFCURVE",
"581 297 CURVE SMOOTH",
"581 680 LINE",
"642 680 LINE SMOOTH",
"660 680 OFFCURVE",
"670 691 OFFCURVE",
"670 705 CURVE SMOOTH",
"670 719 OFFCURVE",
"660 730 OFFCURVE",
"642 730 CURVE SMOOTH",
"460 730 LINE SMOOTH",
"442 730 OFFCURVE",
"432 719 OFFCURVE",
"432 705 CURVE SMOOTH",
"432 691 OFFCURVE",
"442 680 OFFCURVE",
"460 680 CURVE SMOOTH",
"521 680 LINE",
"521 270 LINE SMOOTH",
"521 132 OFFCURVE",
"475 50 OFFCURVE",
"373 50 CURVE SMOOTH",
"291 50 OFFCURVE",
"230 92 OFFCURVE",
"230 270 CURVE SMOOTH",
"230 680 LINE",
"301 680 LINE SMOOTH",
"319 680 OFFCURVE",
"329 691 OFFCURVE",
"329 705 CURVE SMOOTH",
"329 719 OFFCURVE",
"319 730 OFFCURVE",
"301 730 CURVE SMOOTH",
"39 730 LINE SMOOTH",
"21 730 OFFCURVE",
"11 719 OFFCURVE",
"11 705 CURVE SMOOTH"
);
}
);
width = 700;
}
);
unicode = 0055;
},
